<svg xmlns="http://www.w3.org/2000/svg" viewBox="0 0 102.064 91.581">
  <path fill="#171314" d="M40.814 2.43c.096 29.634 4.744 59.04 4.85 88.667.002.645 1.002.645 1 0-.105-29.626-4.754-59.033-4.85-88.667 0-.644-1-.645-1 0z"/>
  <path fill="#171314" d="M35.333 3.555c5.782-4.353 20.132-3.808 25.76.553 9.072 7.03 4.347 23.533.07 31.68-2.883 5.495-8.42 9.352-13.67 12.41-.978.568-2 1.064-3.064 1.442-.97.342-.85-1.748.37-.757 1.14.93 1.93 2.378 2.71 3.606 5.47 8.7 9.63 18.14 15.51 26.62 3.27 4.73 9.56 13.32 16.3 9.64.56-.31.06-1.18-.51-.87-5.64 3.08-11-3.98-13.93-7.89-4.37-5.84-7.82-12.37-11.29-18.75-2.33-4.27-4.46-9.31-7.86-12.86-1.27-1.33-3.9-.79-3.32 1.54.8 3.24 9.49-3.38 10.4-4.03 7.42-5.32 11.44-12.11 13.48-21.08 1.83-8.08.85-19.07-7.34-23.24C55.4-.22 50.65.03 46.77 0c-3.987-.03-8.64.206-11.94 2.69-.51.38-.013 1.25.503.86zm47.145-1.818c.02 7.805.204 15.615.72 23.404.554 8.34-.084 16.74-.127 25.09-.06 13.17-1.17 26.53.71 39.62.1.64 1.06.37.97-.26-1.96-13.6-.73-27.59-.66-41.28.08-15.54-.56-31.02-.6-46.56 0-.64-1-.64-1 0z"/>
  <path fill="#171314" d="M66.945 2.93c11.494-1.396 23.105-.066 34.636 0 .65.004.65-.996 0-1-11.53-.066-23.14-1.396-34.63 0-.63.077-.64 1.078 0 1zM.92 90.51c12.206-24.315 18.356-52.116 22.564-78.813.502-3.18.97-6.364 1.432-9.55-.23-.01-.46-.023-.69-.035.055 1.094.118 2.188.19 3.28.105 1.684.25 3.364.393 5.044.59 7.008 1.56 13.984 2.71 20.92 1.1 6.586 2.5 13.12 4.19 19.578 1.8 6.894 1.88 14.21 2.83 21.257.39 2.91 1.06 5.78 1.57 8.67.33 1.9.55 3.81.68 5.72.01.16.78 5.1.83 3.01.06-2.67-.41-5.39-.83-8.02-1.315-8.22-3.55-16.39-6.66-24.12-2.19-5.44-5.23-12.06-10.7-14.91-6.07-3.17-8.675 2.79-8.54 7.96.16 6.19 4.715 9.93 10.574 10.59 3.18.36 7-.83 9.353-2.99 1.4-1.28 2.455-2.572 3.48-4.17 1.423-2.22 1.32-5.42 3.794-7 .54-.342.04-1.21-.506-.86-3.51 2.237-3.693 7.334-6.5 10.43-5.47 6.05-16.962 4.407-18.944-3.94-1.224-5.15 1.267-12.015 7.334-8.85 2.84 1.48 4.784 4.538 6.37 7.19 3.95 6.61 6.21 14.31 8.07 21.73 1.42 5.646 3.02 11.916 2.67 17.79-.035.56.904.695.98.135.785-5.79-.84-11.607-1.857-17.27-1.35-7.497-1.278-15.164-3.055-22.59-3.95-16.53-6.75-33.17-7.53-50.17-.02-.535-.894-.714-.98-.132C19.81 30.72 13.93 62.36.055 90.01c-.29.575.576 1.08.865.505z"/>
</svg>
