<svg xmlns="http://www.w3.org/2000/svg" viewBox="0 0 96.657 89.526">
  <path fill="#171314" d="M8.996 4.183c.023 27.337.977 54.663 1 82 0 .645 1 .645 1 0-.023-27.337-.977-54.663-1-82 0-.645-1-.645-1 0z"/>
  <path fill="#171314" d="M.63 4.665c9.987-1.39 26.545-1.472 28.11 11.796 1.17 9.91-7.38 19.05-15.19 23.67-2.61 1.55-6.124-.81-2.068-2.25 1.813-.64 4.052-.48 5.94-.41 4.088.16 8.477 1.26 12.027 3.31 6.95 4.03 9.02 12.72 8.57 20.16-.45 7.55-4.19 14.83-9.79 19.82-5.79 5.16-14.1 5.75-21.47 5.8-.65.007-.65 1.007 0 1 9.47-.062 18.38-1.542 24.98-8.894 5.6-6.24 8.45-15.815 7.083-24.097-1.49-9.045-6.96-15.064-15.814-17.27-2.99-.748-16.095-2.806-15.08 3.574.84 5.28 12.34-4.365 13.72-5.73 4.263-4.22 7.4-9.78 8.07-15.782C31.546 3.18 11.44 2.16.362 3.7-.27 3.79 0 4.752.63 4.665z"/>
  <path fill="#171314" d="M36.808 2.906c.038.075 2.843 4.896 2.932 2.385.054-1.54-1.486-1.33-1.878-.09-.788 2.5-.463 5.57-.42 8.13.133 7.94.913 15.86 1.284 23.79.782 16.708-.67 33.376-.73 50.078 0 .645 1 .645 1 0 .076-21.09 1.316-41.905 0-63-.368-5.925-1.39-12.53-.24-18.44.11-.565-.072-1.03-.016-.452-.07-.734.786.208.085-.813-.446-.65-.796-1.373-1.153-2.074-.294-.577-1.156-.07-.864.503zm37.354 5.486C70.328 3.52 59.51 7.848 55.185 9.797c-8.843 3.986-10.957 16.364-12.207 24.755-2.673 17.932-3.346 48.735 19.26 54.266 7.695 1.882 17.016-.048 23.173-5.042 6.14-4.98 8.33-14.467 9.66-21.8 3.07-16.865 2.95-42.972-11.86-54.81C78.48 3.38 69.98 3.55 64.41 4.65c-4.498.89-5.668 5.16-1.41 7.425 3.47 1.845 13.007 2.89 16.05-.4C82.683 7.745 78.81.473 74.04.003c-.64-.063-.635.938 0 1 4.347.428 5.615 5 4.98 8.603-.424 2.408-3.97 2.602-5.807 2.798-3.114.334-11.86.458-12.02-4.176C61.043 4.04 72.107 5.14 74.45 5.35c6.02.54 10.008 3.476 13.418 8.48 5.84 8.57 7.166 19.863 7.482 29.955.337 10.73-.91 22.188-5.444 32.022C85.56 85.23 75.91 88.905 65.942 88.355 50.436 87.5 44.27 71.028 42.645 57.77c-1.373-11.208.478-24.348 3.95-35.08 1.903-5.88 5.603-10.785 11.454-12.998 3.74-1.414 12.39-4.426 15.4-.594.4.507 1.1-.206.7-.706z"/>
</svg>
