<svg version="1.1" id="Ebene_1" xmlns="http://www.w3.org/2000/svg" viewBox="0 0 96.657 89.526">
<g>
	<g>
		<path style="fill:#171314;" d="M8.996,4.183c0.023,27.337,0.977,54.663,1,82c0.001,0.645,1.001,0.645,1,0
			c-0.023-27.337-0.977-54.663-1-82C9.995,3.538,8.995,3.538,8.996,4.183L8.996,4.183z"/>
	</g>
</g>
<g>
	<g>
		<path style="fill:#171314;" d="M0.629,4.665c9.988-1.39,26.546-1.472,28.111,11.796c1.169,9.902-7.381,19.044-15.189,23.669
			c-2.611,1.547-6.125-0.814-2.069-2.255c1.813-0.644,4.052-0.483,5.94-0.409c4.088,0.161,8.477,1.252,12.027,3.308
			c6.959,4.03,9.02,12.719,8.574,20.157c-0.451,7.543-4.189,14.83-9.789,19.819c-5.791,5.161-14.101,5.746-21.465,5.797
			c-0.645,0.004-0.646,1.004,0,1c9.477-0.065,18.385-1.545,24.983-8.897c5.601-6.241,8.453-15.815,7.088-24.097
			c-1.491-9.044-6.959-15.063-15.814-17.271c-2.992-0.746-16.095-2.804-15.08,3.576c0.839,5.28,12.339-4.367,13.718-5.73
			c4.264-4.219,7.4-9.782,8.072-15.784C31.547,3.18,11.438,2.16,0.363,3.701C-0.273,3.789-0.001,4.752,0.629,4.665L0.629,4.665z"/>
	</g>
</g>
<g>
	<g>
		<path style="fill:#171314;" d="M38.139,4.05c-1.862,10.082,0.477,21.432,0.95,31.553c0.782,16.707-0.67,33.375-0.729,50.077
			c-0.002,0.645,0.998,0.645,1,0c0.055-15.47,1.322-30.91,0.873-46.385c-0.228-7.817-0.89-15.612-1.284-23.421
			c-0.19-3.764-0.536-7.819,0.155-11.559C39.22,3.685,38.256,3.416,38.139,4.05L38.139,4.05z"/>
	</g>
</g>
<g>
	<g>
		<path style="fill:#171314;" d="M74.162,8.392C70.328,3.52,59.509,7.848,55.185,9.797c-8.843,3.986-10.957,16.364-12.207,24.755
			c-2.673,17.932-3.346,48.735,19.261,54.266c7.694,1.882,17.015-0.048,23.172-5.042c6.139-4.98,8.326-14.467,9.657-21.8
			c3.063-16.865,2.951-42.972-11.859-54.811c-5.804-4.639-17.872-4.066-24.151-0.977c-0.579,0.285-0.072,1.147,0.504,0.863
			c4.144-2.039,9.051-2.019,13.566-1.796c6.046,0.298,10.278,2.518,13.962,7.429c5.488,7.318,7.221,17.027,7.993,25.914
			c1.273,14.646,0.66,39.307-14.492,47.08c-8.765,4.496-21.006,3.846-28.124-3.286c-8.332-8.349-10.438-22.616-10.132-33.81
			c0.27-9.842,1.743-21.831,6.343-30.647c2.518-4.826,6.401-7.318,11.38-8.915c3.454-1.107,10.694-3.359,13.398,0.077
			C73.854,9.605,74.557,8.892,74.162,8.392L74.162,8.392z"/>
	</g>
</g>
</svg>
