<svg xmlns="http://www.w3.org/2000/svg" viewBox="0 0 155.824 90.208">
  <path fill="#171314" d="M8.996 4.962c.023 27.337.977 54.663 1 82 0 .645 1 .645 1 0-.023-27.337-.977-54.663-1-82 0-.645-1-.645-1 0z"/>
  <path fill="#171314" d="M.63 5.444c11.202-1.536 25.407.665 27.906 13.778 1.9 9.972-5.693 19.027-15.02 21.29-1.192.265-2.4.423-3.625.473-.86-1.428-.66-2.156.6-2.183 1.85-.497 4.12-.25 6.01-.166 4.37.196 8.99 1.023 12.96 2.916 7.38 3.518 10.12 11.636 9.74 19.274-.81 16.237-17.47 26.266-32.41 26.5-.644.01-.645 1.01 0 1 17.64-.276 34.69-12.976 33.37-31.75-.58-8.22-5.917-14.707-13.65-17.257-2.47-.82-19.79-4.62-19.79 1.07 0 4.53 12.233-.7 14.02-1.82 4.778-3.01 7.884-8.19 8.816-13.68C31.988 10.45 18.09 3.62 5.788 3.94c-1.817.045-3.624.284-5.423.53-.636.087-.364 1.05.266.964z"/>
  <path fill="#171314" d="M39.032 3.3c-.142-.68-.29-2.087-1.037-2.38-1.54-.607-1.03 5.247-1.023 5.587.23 12.32 1.593 24.598 1.95 36.917.433 14.85-.875 29.69-.926 44.54-.002.644.998.644 1 0 .04-11.74.787-23.456.975-35.19.19-11.644-.7-23.253-1.45-34.863-.32-5.1-1.15-10.72-.46-15.84.07-.45-.48-.38-.22.57.09.31.17.63.23.94.13.63 1.1.37.97-.26zm51.8 4.992c-3.767-4.8-15.1-.457-19.462 1.2-8.492 3.225-11.433 13.156-12.957 21.23-2.1 11.116-3.28 22.412-.97 33.58 1.872 9.055 6.754 20.4 16.153 23.772 8.196 2.94 17.704 1.875 25.04-2.837 6.304-4.05 8.88-12.507 10.49-19.366 2.35-10 2.53-20.61 1.346-30.78-.81-6.95-2.452-16.6-6.995-22.27-3.526-4.4-8.85-8.07-14.484-8.9-5.4-.79-10.79 1.25-15.856 2.8-.615.19-.353 1.154.266.965 7.82-2.385 15.68-4.76 23.074.305 8.074 5.53 10.79 14.28 12.47 23.57 1.808 9.98 1.582 20.472-.066 30.45-1.37 8.34-4.11 18.12-11.62 22.945-8.5 5.46-21.47 5.29-29.16-1.41-9.49-8.27-11.5-24.444-10.9-36.166.52-10.14 1.9-22.75 7.66-31.35 2.83-4.23 6.9-5.79 11.54-7.114 3.35-.964 11.08-3.3 13.74.09.4.508 1.1-.205.71-.706z"/>
  <path fill="#171314" d="M38.55 88.65c5.43-.044 10.836-.438 16.255-.752 4.262-.247 8.533.342 12.75.097.64-.037.644-1.038 0-1-3.66.212-7.384-.348-11.078-.186-5.98.26-11.936.79-17.927.84-.645 0-.646 1 0 1zM145.696 6.62c-7.538-.92-16.206-2.11-23.338 1.256-5.656 2.67-7.496 9.062-8.263 14.762-1.063 7.905-.552 16.235-.602 24.21-.053 8.235.27 16.6 2.48 24.577 1.823 6.596 5.572 12.58 11.973 15.447 6.02 2.7 15.198 2.505 19.47-3.205 5.213-6.966 4.223-16.457 2.662-24.484-1.01-5.193-2.506-10.28-3.475-15.48-.52-2.797 1.216-2.787-1.665-2.287-2.364.41-4.808.546-7.205.528-3.663-.028.797-1.34 2.285-1.295 1.993.06 3.986.21 5.978.33 3.116.19 6.373.52 9.467-.04.634-.12.364-1.08-.266-.97-4.172.75-8.73.02-12.927-.22-2.188-.13-6.355-1.04-7.644 1.36-.116.21-.068.42.078.6 1.885 2.345 11.99 1.89 13.813-.525.113-.15.066-.35 0-.506-.308-.71-1.545-1.52-2.36-1.293-1.26.346-.774 2.734-.68 3.522 1.11 9.26 4.807 17.904 4.83 27.36.03 11.24-6.665 18.754-18.31 16.764-8.244-1.41-12.814-8.45-15.06-15.898-4.114-13.637-2.795-29.866-2.226-43.965.27-6.62 1.37-14.38 7.53-18.12 6.57-3.99 16.31-2.33 23.46-1.456.64.076.64-.925 0-1z"/>
</svg>
