<?xml version="1.0" encoding="UTF-8" standalone="no"?>
<svg
   xmlns:dc="http://purl.org/dc/elements/1.1/"
   xmlns:cc="http://creativecommons.org/ns#"
   xmlns:rdf="http://www.w3.org/1999/02/22-rdf-syntax-ns#"
   xmlns:svg="http://www.w3.org/2000/svg"
   xmlns="http://www.w3.org/2000/svg"
   xmlns:sodipodi="http://sodipodi.sourceforge.net/DTD/sodipodi-0.dtd"
   xmlns:inkscape="http://www.inkscape.org/namespaces/inkscape"
   viewBox="0 0 200 200"
   id="svg2"
   version="1.1"
   inkscape:version="0.91 r13725"
   sodipodi:docname="brand-logo.svg">
  <metadata
     id="metadata16">
    <rdf:RDF>
      <cc:Work
         rdf:about="">
        <dc:format>image/svg+xml</dc:format>
        <dc:type
           rdf:resource="http://purl.org/dc/dcmitype/StillImage" />
      </cc:Work>
    </rdf:RDF>
  </metadata>
  <defs
     id="defs14" />
  <sodipodi:namedview
     pagecolor="#ffffff"
     bordercolor="#666666"
     borderopacity="1"
     objecttolerance="10"
     gridtolerance="10"
     guidetolerance="10"
     inkscape:pageopacity="0"
     inkscape:pageshadow="2"
     inkscape:window-width="1920"
     inkscape:window-height="1001"
     id="namedview12"
     showgrid="false"
     inkscape:zoom="7.7092167"
     inkscape:cx="115.06527"
     inkscape:cy="78.230866"
     inkscape:window-x="-9"
     inkscape:window-y="-9"
     inkscape:window-maximized="1"
     inkscape:current-layer="svg2" />
  <path
     fill="none"
     stroke="#171314"
     stroke-width="6"
     stroke-miterlimit="10"
     d="M192.215 180.348c0 6.553-5.63 11.867-12.576 11.867H20.36c-6.944 0-12.574-5.314-12.574-11.867V19.654c0-6.555 5.63-11.868 12.575-11.868h159.28c6.95 0 12.58 5.313 12.58 11.868v160.694z"
     id="path4" />
  <path
     d="M 109.77,8.464 C 102.08,9.68 94.26,9.7 86.563,11.08 74.89,13.173 63.2,17.442 53.717,24.695 c -21.34,16.324 -37,41.57 -42.016,67.91 -2.62,13.79 -1.55,27.96 1.31,41.614 2.06,9.8 7.07,18.15 16.04,23.04 8.88,4.84 20.95,2.35 29.23,-2.48 7.99,-4.67 13.39,-12.36 18.5,-19.84 C 87.69,118.97 92.61,101.08 98.91,83 l -4.24,-2.49 c -1.632,20.53 -1.513,41.12 -3.125,61.66 -0.85,10.816 -1.146,21.775 -2.495,32.538 -0.663,5.282 -4.845,9.813 -9.265,12.327 -1.97,1.12 -4.338,1.424 -6.556,1.467 -4.43,0.085 -5.7,-3.252 -5.97,-6.856 -0.68,-9.022 5.37,-18.442 10.02,-25.694 5.23,-8.15 11.13,-15.975 17.22,-23.5 12.69,-15.695 33.01945,-34.710024 54.77517,-38.736161 1.07,-0.297 -4.52515,-1.390562 -10.49517,0.949161 -22.63,6.226 -39.22,22.836 -53.13,40.958 -6.75,8.794 -13.49,17.887 -18.45,27.832 -3.475,6.972 -7.178,17.6 -1.05,24.16 4.932,5.28 14.33,5.216 19.79,0.96 9.894,-7.71 8.193,-21.303 9.014,-32.59 0.93,-12.8 2.27,-25.572 2.625,-38.402 0.323,-11.635 0.44,-23.23 1.36,-34.842 0.09,-1.15 -3.85,-3.6 -4.24,-2.49 -3.565,10.23 -6.61,20.68 -10.58,30.76 -3.505,8.91 -8.58,16.98 -14.06,24.79 -5.566,7.94 -11.944,14.93 -21.13,18.64 -5.905,2.39 -14.1,3.26 -20.027,0.57 -6.99,-3.17 -10.09,-11.66 -11.625,-18.56 -6.445,-28.97 -0.81,-57.87 15.95,-82.38 7.59,-11.11 17.08,-21.83 28.43,-29.21 10.25,-6.67 22.42,-9.98 34.43,-11.62 5.77,-0.78 11.643,-0.79 17.393,-1.7 0.95,-0.15 -2.265,-3.31 -3.75,-3.07 z"
     id="path6"
     inkscape:connector-curvature="0"
     style="fill:#171314"
     sodipodi:nodetypes="cccccccccccccccccccscccccccccccscccccc" />
  <path
     fill="#171314"
     d="M117.362 10.055c-.693 27.98-2.13 55.97-3.41 83.93-.778 16.94-2.05 33.858-3.314 50.77-.633 8.474-1.266 16.948-1.854 25.426-.49 7.06-1.027 14.24-3.734 20.86-1.192 2.92 3.414 3.35 4.373 1 5.47-13.36 4.61-29.24 5.668-43.41 1.29-17.25 2.58-34.5 3.48-51.78 1.52-29.26 2.88-58.6 3.61-87.89.07-2.69-4.74-1.36-4.8 1.11z"
     id="path8" />
  <path
     d="m 113.19,11.613 c 20.516,-1.692 45.74,-0.48 60.382,16.083 7.67,8.676 11.114,22.85 12.026,34.133 0.757,9.34 -1.44,18.48 -6.643,26.29 -5.497,8.24 -13.903,13.87 -21.85,19.5 -6.12,4.34 -12.45,7.85 -19.19,11.11 -15.183,7.35 -30.32128,13.69857 -40.295,29.18 -3.894297,6.24202 1.850707,0.98627 7.87116,-5.23546 C 119.23947,128.57727 132.07,127.019 147.708,118.879 c 8.345,-4.35 16.158,-10.13 23.527,-15.93 6.99,-5.497 12.82,-12.35 16.322,-20.57 3.938,-9.238 3.686,-19.598 1.81,-29.276 -2.176,-11.218 -6.423,-22.86 -14.67,-31.017 C 158.91,6.5 132.733,5.683 112.07,7.383 c -3.244,0.27 -1.85,4.475 1.12,4.23 z"
     id="path10"
     inkscape:connector-curvature="0"
     style="fill:#171314"
     sodipodi:nodetypes="ccccccccccccccc" />
</svg>
