<svg xmlns="http://www.w3.org/2000/svg" viewBox="0 0 200 200">
  <path fill="none" stroke="#171314" stroke-width="6" stroke-miterlimit="10" d="M192.215 180.348c0 6.553-5.63 11.867-12.576 11.867H20.36c-6.944 0-12.574-5.314-12.574-11.867V19.654c0-6.555 5.63-11.868 12.575-11.868h159.28c6.95 0 12.58 5.313 12.58 11.868v160.694z"/>
  <path fill="#171314" d="M109.77 8.464C102.08 9.68 94.26 9.7 86.563 11.08 74.89 13.173 63.2 17.442 53.717 24.695c-21.34 16.324-37 41.57-42.016 67.91-2.62 13.79-1.55 27.96 1.31 41.614 2.06 9.8 7.07 18.15 16.04 23.04 8.88 4.84 20.95 2.35 29.23-2.48 7.99-4.67 13.39-12.36 18.5-19.84C87.69 118.97 92.61 101.08 98.91 83l-4.24-2.49c-1.632 20.53-1.513 41.12-3.125 61.66-.85 10.816-1.146 21.775-2.495 32.538-.663 5.282-4.845 9.813-9.265 12.327-1.97 1.12-4.338 1.424-6.556 1.467-4.43.085-5.7-3.252-5.97-6.856-.68-9.022 5.37-18.442 10.02-25.694 5.23-8.15 11.13-15.975 17.22-23.5 12.69-15.695 28.22-29.262 48.03-34.715 1.07-.297-2.32-3.466-3.75-3.072-22.63 6.226-39.22 22.836-53.13 40.958-6.75 8.794-13.49 17.887-18.45 27.832-3.475 6.972-7.178 17.6-1.05 24.16 4.932 5.28 14.33 5.216 19.79.96 9.894-7.71 8.193-21.303 9.014-32.59.93-12.8 2.27-25.572 2.625-38.402.323-11.635.44-23.23 1.36-34.842.09-1.15-3.85-3.6-4.24-2.49-3.565 10.23-6.61 20.68-10.58 30.76-3.505 8.91-8.58 16.98-14.06 24.79-5.566 7.94-11.944 14.93-21.13 18.64-5.905 2.39-14.1 3.26-20.027.57-6.99-3.17-10.09-11.66-11.625-18.56-6.445-28.97-.81-57.87 15.95-82.38 7.59-11.11 17.08-21.83 28.43-29.21 10.25-6.67 22.42-9.98 34.43-11.62 5.77-.78 11.643-.79 17.393-1.7.95-.15-2.265-3.31-3.75-3.07z"/>
  <path fill="#171314" d="M117.362 10.055c-.693 27.98-2.13 55.97-3.41 83.93-.778 16.94-2.05 33.858-3.314 50.77-.633 8.474-1.266 16.948-1.854 25.426-.49 7.06-1.027 14.24-3.734 20.86-1.192 2.92 3.414 3.35 4.373 1 5.47-13.36 4.61-29.24 5.668-43.41 1.29-17.25 2.58-34.5 3.48-51.78 1.52-29.26 2.88-58.6 3.61-87.89.07-2.69-4.74-1.36-4.8 1.11z"/>
  <path fill="#171314" d="M113.19 11.613c20.516-1.692 45.74-.48 60.382 16.083 7.67 8.676 11.114 22.85 12.026 34.133.757 9.34-1.44 18.48-6.643 26.29-5.497 8.24-13.903 13.87-21.85 19.5-6.12 4.34-12.45 7.85-19.19 11.11-15.183 7.35-32.267 13.05-40.295 29.18-1.3 2.61 3.537 3.84 4.758 1.38 8.43-16.95 29.692-22.27 45.33-30.41 8.345-4.35 16.158-10.13 23.527-15.93 6.99-5.497 12.82-12.35 16.322-20.57 3.938-9.238 3.686-19.598 1.81-29.276-2.176-11.218-6.423-22.86-14.67-31.017C158.91 6.5 132.733 5.683 112.07 7.383c-3.244.27-1.85 4.475 1.12 4.23z"/>
</svg>
