<?xml version="1.0" encoding="utf-8"?>
<!-- Generator: Adobe Illustrator 16.0.0, SVG Export Plug-In . SVG Version: 6.00 Build 0)  -->
<!DOCTYPE svg PUBLIC "-//W3C//DTD SVG 1.1//EN" "http://www.w3.org/Graphics/SVG/1.1/DTD/svg11.dtd">
<svg version="1.1" id="Ebene_1" xmlns="http://www.w3.org/2000/svg" xmlns:xlink="http://www.w3.org/1999/xlink" x="0px" y="0px"
	 width="200px" height="200px" viewBox="0 0 200 200" style="enable-background:new 0 0 200 200;" xml:space="preserve">
<g>
	<g>
		<g>
			<g>
				<g>
					<path style="fill:#292627;" d="M193.608,83.532c0.03,0.063,0.067,0.111,0.118,0.132
						C193.679,83.549,193.641,83.518,193.608,83.532z"/>
					<path style="fill:#292627;" d="M194.366,27.057l0.058,0.657C194.415,27.286,194.395,27.12,194.366,27.057z"/>
					<path style="fill:#292627;" d="M193.288,117.377c-0.01-0.049-0.017-0.049-0.027-0.083c-0.005,0.525-0.011,1.231-0.021,2.38
						L193.288,117.377z"/>
					<path style="fill:#292627;" d="M85.763,4.782l0.754-0.004C86.178,4.776,85.957,4.764,85.763,4.782z"/>
					<path style="fill:#292627;" d="M157.161,5.351c-0.222,0.049-0.596,0.067-0.962,0.083
						C156.662,5.442,157.029,5.432,157.161,5.351z"/>
					<path style="fill:#292627;" d="M190.746,135.254l0.172-0.962C190.844,134.31,190.767,134.651,190.746,135.254z"/>
					<path style="fill:#292627;" d="M191.439,169.583c0.013-0.028,0.023-0.035,0.039-0.09
						C191.463,169.444,191.45,169.5,191.439,169.583z"/>
					<path style="fill:#292627;" d="M192.129,156.168c-0.022-0.286-0.049-0.622-0.075-0.962
						C192.059,155.614,192.059,156.134,192.129,156.168z"/>
					<path style="fill:#292627;" d="M192.011,154.75c0.014,0.145,0.028,0.304,0.043,0.456
						C192.048,154.95,192.041,154.743,192.011,154.75z"/>
					<path style="fill:#292627;" d="M192.861,186.513c0.56-1.035,0.754-2.051,0.906-3.08c0,0-0.038,0.196-0.095,0.491
						c-0.054,0.296-0.136,0.69-0.266,1.07C193.198,185.775,192.861,186.513,192.861,186.513z"/>
					<path style="fill:#292627;" d="M4.681,44.137l-0.07-0.214C4.634,44.123,4.659,44.158,4.681,44.137z"/>
					<path style="fill:#292627;" d="M192.068,184.643c0,0,0.308-0.677,0.287-0.685C192.258,184.212,192.144,184.428,192.068,184.643
						z"/>
					<path style="fill:#292627;" d="M190.289,117.072c-0.168-0.989,0.032-3.023-0.131-3.01
						C190.185,115.114,190.059,116.602,190.289,117.072z"/>
					<path style="fill:#292627;" d="M11.023,67.192l0.009,0.657C11.034,67.535,11.031,67.341,11.023,67.192z"/>
					<path style="fill:#292627;" d="M192.068,184.643c0,0-0.345,0.783-0.366,0.772c0.06-0.053,0.131-0.124,0.188-0.195
						C191.938,185.032,191.996,184.838,192.068,184.643z"/>
					<path style="fill:#292627;" d="M4.609,157.723c0-0.014,0-0.021,0-0.034c-0.011-0.083-0.02-0.146-0.03-0.229L4.609,157.723z"/>
					<path style="fill:#292627;" d="M4.336,163.749c-0.018-0.423-0.035-0.831-0.054-1.287C4.264,163.144,4.293,163.5,4.336,163.749z
						"/>
					<path style="fill:#292627;" d="M193.768,183.433c0,0,0.021-0.111,0.054-0.279c0.016-0.17,0.037-0.396,0.059-0.623
						c0.02-0.226,0.039-0.451,0.053-0.62c0.019-0.168,0.012-0.282,0.012-0.282C193.876,182.271,193.854,182.866,193.768,183.433z"/>
					<path style="fill:#292627;" d="M49.516,195.418c-0.207,0.007-0.408,0.014-0.595,0.021
						C49.177,195.44,49.371,195.434,49.516,195.418z"/>
					<path style="fill:#292627;" d="M161.74,5.45c0.146,0.01,0.35,0.024,0.526,0.037C162.322,5.447,162.287,5.42,161.74,5.45z"/>
					<polygon style="fill:#292627;" points="116.861,9.921 116.848,9.921 116.848,9.925 					"/>
					<path style="fill:#292627;" d="M119.255,9.713c-0.747-0.038-1.819,0.083-2.394,0.208
						C117.615,9.921,118.324,9.886,119.255,9.713z"/>
					<path style="fill:#292627;" d="M111.718,9.835c0.093,0.007,0.169,0.012,0.279,0.021C111.897,9.844,111.811,9.837,111.718,9.835
						z"/>
					<path style="fill:#292627;" d="M159.928,10.169c0-0.005,0.007-0.013,0-0.018c-0.014,0.006-0.021,0.01-0.027,0.016
						L159.928,10.169z"/>
					<path style="fill:#292627;" d="M150.381,10.197c-0.17-0.033-0.401-0.058-0.657-0.075
						C149.883,10.155,150.104,10.182,150.381,10.197z"/>
					<path style="fill:#292627;" d="M87.949,10.31c0.007-0.001,0.007-0.005,0.007-0.008c-0.021,0.001-0.028,0.001-0.048,0.003
						C87.925,10.307,87.936,10.308,87.949,10.31z"/>
					<path style="fill:#292627;" d="M11.551,22.859c-0.007-0.564-0.014-1.139-0.021-1.724c-0.004-0.292-0.008-0.586-0.013-0.883
						c-0.002-0.284-0.015-0.64,0.001-0.798c-0.027-0.813,0.152-1.629,0.407-2.436c0.515-1.62,1.703-3.124,3.231-4.19
						c0.777-0.519,1.636-0.924,2.533-1.209c0.917-0.28,1.81-0.377,2.813-0.413c2.498-0.02,4.908-0.022,7.146,0.002
						c1.951-0.346,4.791-0.358,7.645-0.436l0.305,0.46l2.38-0.147c0.968,0.139-1.833,0.086-0.118,0.26l0.899-0.285
						c0.187,0.164,6.112,0.108,2.117,0.438l9.25,0.002c2.048,0.014,1.197-0.383,3.459-0.27c0.457,0.134-0.816,0.092-0.63,0.257
						c6.787,0.342,7.846-0.891,14.176-0.682l-0.54,0.061c1.079-0.123,3.127-0.105,3.155-0.172c-0.816-0.464-1.138,0.251-3.072-0.022
						c0.173-0.39,2.408-0.21,2.283-0.507c1.48,0.141,2.352-0.081,3.646-0.104c2.2,0.245,5.361,0.071,7.022,0.376
						c1.079-0.123,2.283-0.506,4.601-0.522c1.661,0.305-0.391,0.292,1.872,0.406l0.363-0.227c1.854,0.035,1.563,0.099,1.494,0.205
						c1.986,0.011,1.654-0.31,4.137-0.165l-1.384,0.22c1.84-0.087,2.588-0.048,5.147-0.028c-0.055,0.13-1.083,0.122-1.833,0.084
						c1.387,0.335,2.38-0.146,3.134-0.108c-0.214-0.099-1.993-0.144-1.121-0.367c1.266,0.041,2.705-0.307,3.612-0.04l-1.387,0.218
						c2.653-0.176,1.418-0.283,4.458-0.195c-0.162,0.018-0.083,0.074-0.152,0.121c1.931-0.29,4.445-0.026,7.292-0.004l-0.539,0.061
						c1.148-0.077,1.777-0.279,2.397-0.263c-1.623-0.131-1.18-0.197-1.325-0.415c2.145,0.375,3.272-0.433,6.776-0.211
						c-0.059,0.129-0.902,0.287-1.864,0.149c-1.197,0.383-1.346,0.709-3.48,0.888c1.329-0.088,2.893-0.142,2.561,0.02l0.415-0.357
						c0.802,0.005,1.438,0.009,2.048,0.012c0.342-0.225-1.626-0.369,0.235-0.517c2.103-0.116,1.117,0.365,1.445,0.205
						c2.892-0.142,1.197-0.383,3.979-0.265c-0.277,0.03-0.816,0.091-1.059,0.057c1.992,0.145,4.901-0.063,5.486,0.367
						c-0.298,0.096-0.354,0.225-1.107,0.188l0.028-0.065c-2.193,0.311,1.833-0.084,1.148,0.302
						c-0.152-0.231,2.649-0.178,3.915-0.135l-0.401-0.264c4.207-0.786-0.228,0.52,3.93,0.419c2.644-0.177-0.996-0.073,0.623-0.258
						c1.785,0.046,2.449,0.28,5.064,0.167c0.727,0.104,2.207,0.244,2.331,0.539c1.588-0.119,4.822,0.133,5.722-0.154
						c-2.712-0.248-2.705,0.308-5.874-0.075l0.893-0.287c2.193,0.015,5.002-0.129,6.518-0.025c-0.305-0.056-0.443-0.13-0.249-0.191
						c3.127-0.107,4.026-0.396,7.07-0.308c0.397,0.264-1.384,0.218-2.678,0.241c1.958,0.211,2.048,0.016,5.092,0.102
						c0.159,0.23-2.048-0.014-2.4,0.211l3.369-0.072c-0.014,0.014,0,0.03,0,0.047c0.491-0.385,2.57,0.034,4.632-0.081
						c4.881,0.003,5.628-0.514,8.333-0.821c0.727,0.104,0.941,0.202,0.634,0.299c-1.2-0.171-0.986-0.037-1.404,0.063
						c1.649-0.04,3.607,0.378,2.688,0.533c2.615-0.111-0.944-0.203,0.657-0.322l3.584,0.026c-0.423-0.198-1.688-0.24,0.173-0.391
						c0.409-0.02,0.69-0.005,0.975,0.004c0.282,0.015,0.553,0.006,0.828,0.063c0.276,0.046,0.567,0.082,0.896,0.146
						c0.321,0.092,0.692,0.165,1.117,0.299c-0.136,0.003-0.025,0.121-0.039,0.181c-0.013,0.057-0.144,0.053-0.779-0.097
						c0.823,0.213,1.993,0.753,2.54,0.8c-0.845-0.454-0.077-0.239,0.684,0.171c0.767,0.383,1.553,0.908,1.05,0.348
						c0.051-0.047,1.398,1.406,1.36,1.43c-0.308-0.325-0.418-0.277-0.896-0.724c0.232,0.559,1.213,1.016,1.648,1.563
						c0.208,0.274,0.509,0.815,0.763,1.294c0.224,0.497,0.405,0.933,0.36,1.029c0.345,0.511,0.643,1.972,0.494,2.263
						c0.204,0.86,0.204,0.044,0.343,0.288c0,0,0.022,0.191,0.03,0.48c0.01,0.293,0.041,0.649,0.028,1.123
						c-0.007,0.896-0.013,1.791-0.013,1.791c-0.166,0.187-0.625,0.488-0.687-0.052c0.152,1.356,0.487,0.484,0.472,2.529
						c-0.319-1.173-0.247,2.705-0.628,1.003c-0.235,1.172-0.227,4.518-0.143,6.358c0.253,1.142,0.145-1.993,0.405-1.875
						c0.093,5.175,0.81,5.493,0.685,9.292l0.072-0.989c0.146,2.373,0.114,2.103,0.334,3.487c-0.321-0.657-0.868,2.691-0.8,6.579
						c0.162,0.332,0.31-2.176,0.566-1.542l0.047,2.587c-0.024,0.187-0.079-0.097-0.12-0.429c0.113,2.318-0.421,4.31-0.043,4.981
						l-0.473,2.352l0.202-0.934c0.159,0.325,0.207,2.92,0.269,3.459c0.178,2.653,0.039,3.618-0.167,5.067
						c0.133-0.46,0.436-1.608,0.485,0.474c-0.523-0.021-0.195,4.379-0.466,4.317c0.007,0.844-0.156,2.338,0.06,2.436l-0.325-0.142
						c0.454,0.197,0.434,3.269,0.514,5.622c-0.617-0.533,0.048,2.584-0.515,3.625c0.419,0.443,0.164,4.179,0.521,4.594
						c0.02,1.813-0.371,1.633-0.505,2.089l0.156,0.844c-0.196,0.913-0.227,4.317-0.361,6.337l0.369,1.882l-0.169,0.699
						c0.095,0.298,0.149,1.861,0.288,0.893l-0.022,1.017c0.404,0.083,0.11,1.425,0.282,3.466c-0.064,0.471-0.161,0.346-0.216-0.097
						c-0.004,1.017-0.211,0.581-0.347,1.135c0.104-0.72,0.725,3.66,0.907,0.92c0.165-0.187,0.285,1.411,0.213,2.408l-0.363,0.608
						l0.383,1.197c0.053,1.563-0.18,2.228-0.222,3.493c-0.022-1.294-0.698-2.878-0.689,0.464c-0.047-1.758-0.249-2.622-0.325-3.528
						c-0.014,0.691-0.049,1.037-0.203-0.042c0.112,2.615,0.223,0.872,0.269,3.459c-0.325-0.145-0.429,0.582-0.541,2.837l0.238-1.688
						c0.04,0.08,0.069,0.194,0.088,0.325c0.035-0.643,0.087-0.823,0.211-0.961c-0.003,0.512,0.403,3.002,0.206,3.432
						c0.506-2.602,0.391,4.538,0.696,2.878c0.095,0.297,0.113,2.103-0.05,2.29c-0.245-2.166-0.37,1.625-0.598,1.276
						c0.094,0.806,0.242-1.698,0.364-0.612c0.022,1.286-0.179,2.234-0.281,2.954l-0.061-0.54l-0.146,1.993
						c0.162,0.325,0.275-1.931,0.36-0.098c-0.069,0.484,0.016,2.321-0.114,2.263c-0.224-0.872-0.521-0.235-0.575-1.799
						c0.022,1.294,0.06,5.424,0.364,3.757l-0.011,1.546c0.138-0.972,0.385-3.69,0.429-0.584l-0.065-0.028l0.246,2.159l-0.168,0.94
						c0.082-0.027,0.158,0.312,0.153,1.114c-0.098,0.207-0.138,0.961-0.268,0.899c0.016,2.324,0.181,2.134,0.275,2.435
						c0.023,1.301-0.046,1.785-0.237,1.18c-0.043,1.778-0.002,4.881-0.174,6.092c0.146,2.38,0.068-0.487,0.289,0.903
						c-0.57,2.058-0.221,7.862-0.15,11.743c0.496-1.055,0.057,1.059,0.508,1.771c-0.155-0.837-0.385,3.684-0.523,0.283l0.051,2.076
						c-0.272,1.418-0.203-3.429-0.578-1.287c0.016,2.324,0.56,3.847,0.376,6.586c-0.351-0.92,0.116,2.11-0.271,1.426
						c-0.127-0.567-0.088-1.328-0.115-2.104l-0.069,0.478c-0.102,5.099,0.415,1.474,0.655,4.145
						c0.045,3.105-0.277,2.448-0.442,2.629c-0.068,0.484-0.015,2.048,0.077,2.864c-0.215-1.896,0.222-3.501,0.443-2.63
						c-0.401,1.363-0.033,4.608,0.124,5.452c0.425-4.435,0.021-3.071,0.477-7.236c-0.126-0.574-0.485-0.478-0.337-2.976
						c0.177,1.567,0.2-0.11,0.258-0.553c-0.207,0.484-0.086-1.733-0.171-2.494c0.168-0.695,0.478,1.497,0.562-1.034l-0.486-0.478
						c0.073-0.989,0.356,0.422,0.24-1.688c0.253,1.139,0.394-0.342,0.472,2.512c0.416-3.404-0.224-5.227-0.4-7.873
						c0.031,0.27,0.096,0.301,0.128,0.567c-0.128-0.567-0.12-1.592-0.148-2.373c0.111-1.751,0.22,1.38,0.354,0.927l-0.013-2.829
						c0.017-0.056,0.025-0.069,0.035-0.069c-0.066-0.747-0.11-1.453,0.011-1.716c0.156,0.844,0.318,1.176,0.445,1.743l-0.338-2.975
						c0.16,0.325,0.277-2.449,0.394-0.339l-0.066-4.394l0.328-0.374c-0.058-1.051-0.122-1.079-0.163,0.181
						c0.076-1.505-0.573-6.67,0.073-5.874c-0.269-3.452-0.161-4.697-0.325-8.876c0.301,3.217,0.384-3.681,0.522-0.277
						c0.145-1.992-0.211-2.407-0.266-3.978c0.141-1.474,0.463-0.816,0.582,0.774l-0.149-1.868l0.065,0.035l-0.185-1.626
						c0.176-1.723,0.329-0.367,0.374-2.145l-0.29-0.388l0.171-1.204c-0.134,0.45-0.192-0.602-0.215-1.896l0.065,0.028l-0.056-1.571
						c0.177,1.557,0.063-1.432,0.271-0.719c0.014-1.343,0.011-1.37-0.042-3.795l-0.199,0.426c-0.171-3.162,0.296-0.132,0.313-2.691
						l-0.229,0.159c0.385-3.688-0.216-6.262,0.031-8.98c0.053,1.563,0.318,1.169,0.253,1.135c-0.082-2.346-0.021-6.171-0.297-8.603
						c0.332-0.886,0.432-1.097,0.582-3.594c-0.021-1.813-0.053-2.083-0.244-2.677c0.129-1.754-0.062-5.05,0.179-5.141
						c-0.189-0.408,0.039-1.577-0.122-2.546l0.099-0.208l-0.229,0.152c0.513-3.113-0.287-5.265,0.158-8.409l0.063,0.543l-0.09-1.325
						c0.1-0.211,0.161,0.329,0.291,0.391l0.044-6.15l-0.172,1.211c-0.023-1.294-0.244-2.166-0.104-3.646
						c0.342,2.459,0.014-2.048,0.277-2.442l0.09,1.321c-0.021-1.806-0.021-1.806-0.251-1.657c-0.079-2.342,0.438-1.602,0.191-3.76
						l-0.011,1.536c-0.134,0.45-0.321-0.654-0.314-1.681c0.035-0.242,0.137-0.969,0.165-0.187c-0.086-1.84,0.031-4.607-0.06-5.417
						c0.071-0.996,0.234-0.671,0.295-0.131c-0.2-3.937,0.045-1.778-0.154-5.729l0.13,0.069l-0.155-1.356l0.276-1.934l-0.169,0.695
						c-0.022-1.293-0.114-2.103-0.038-3.615l0.191,0.609c-0.105-3.649,0.323-4.224,0.055-7.693c0.035-0.239,0.097,0.301,0.127,0.578
						c-0.303-3.217,0.344-2.428-0.025-5.666c0.065,0.201,0.146-0.152,0.2-0.028l-0.124-1.474l0.26,0.114l-0.383-1.2l0.268-0.906
						l-0.124-0.574c0.249-0.785,0.28-1.735,0.296-2.757c0.019-0.467-0.009-1.123-0.024-1.777c-0.025-0.647-0.096-1.305-0.142-1.967
						c0,0-0.052,0.127-0.104,0.254c-0.062,0.127-0.123,0.253-0.123,0.253c-0.948-3.108-2.816-6.37-5.878-8.658
						c-1.512-1.14-3.29-2.019-5.188-2.494c-0.945-0.241-1.922-0.383-2.894-0.408c-0.516-0.029-0.915-0.019-1.325-0.009l-1.234,0.043
						l0.118-0.259l-2.705,0.305c-1.453-0.206,0.872-0.222,0.419-0.355c-2.896,0.143-1.208,0.384-4.577,0.458
						c-1.723-0.176,0.603-0.192,1.411-0.284c-3.151,0.127-7.811,0.27-10.045,0.124c-0.052,0.035-0.19,0.081-0.076,0.096
						c-2.104,0.117-4.878,0-7.198,0.015c0.059-0.12,0.633-0.139,1.207-0.164c-0.83-0.016-1.972-0.098-2.685,0.023l0.872-0.225
						c-1.778-0.045-5.21,0.16-5.604-0.105c0.215,0.101,0.125,0.296-1.411,0.284c-0.851-0.397-4.189,0.167-6.655-0.047
						c0.298-0.095,2.104-0.114,1.595-0.12c-1.235-0.105-2.349,0.081-3.436,0.204l0.332-0.16l-5.749,0.22
						c-0.851-0.397-5.424,0.059-5.033-0.231c-2.051-0.015,1.723,0.176-0.875,0.221c-0.691-0.167-2.345,0.081-2.234-0.179
						l0.276-0.031l-1.813,0.021l1.142-0.254c-1.563,0.055-2.708,0.309-2.788,0.503c-1.48-0.142-3.584-0.026-4.255-0.258l0.547-0.062
						c-4.158,0.101-6.884-0.703-10.156-0.269c-0.242-0.036-0.215-0.1,0.298-0.097l-2.567-0.017l0.609-0.191l-4.248,0.295l0.056-0.13
						c-2.806-0.053-7.195,0.014-10.807,0.052l0.54-0.061c-3.944,0.201-3.805-0.125-6.69,0.019c0.104-0.035,0.201-0.048,0.305-0.055
						l-2.595,0.004l0.574-0.126c-1.923,0.28-5.493-0.365-4.31-0.129c-1.086,0.123-2.958,0.273-3.279,0.433
						c-2.83,0.013-0.692-0.167-2.442-0.278c-2.048-0.014-2.408,0.21-5.182,0.093l0.056-0.13c-1.294,0.022-2.104,0.116-3.909,0.135
						l0.54-0.062c-2.947,0.272-3.68-0.385-5.991,0.185c-1.238-0.106-3.583-0.025-3.47-0.286c-3.67,0.169-6.527,0.247-10.173,0.351
						C45,4.546,44.799,5.001,42.592,4.757l0.159,0.229c-5.154,0.03-11.069-0.537-16.756-0.445l-0.159-0.229l-1.138,0.251
						c-0.765-0.013-1.558-0.026-2.37-0.04c-0.406-0.006-0.816-0.013-1.23-0.019l-0.624-0.009c-0.204-0.004-0.504,0.011-0.753,0.018
						c-2.088,0.05-4.232,0.521-6.166,1.379c-1.938,0.852-3.658,2.084-5.007,3.49c-1.356,1.403-2.331,2.974-2.968,4.422
						c-0.335,0.984-0.698,2.251-0.812,3.697C4.664,18.208,4.7,19,4.677,19.731c0.016,0.61,0.018,1.237-0.003,1.872l-0.032-0.27
						c0.132,4.421,0.229,9.091,0.097,13.913c-0.097-0.297-0.165,0.18-0.227-0.359c0.253,1.145,0.013,2.83,0.006,3.86l0.172-1.211
						c0.218,1.374,0.008,3.342-0.16,4.037l0.246,2.169c-0.023,0.145-0.058,0.367-0.095,0.394l0.121,0.384L4.5,45.673
						c0.062,0.54,0.138,3.404,0.427,4.303c-0.1,0.208-0.179,2.231-0.233,0.664l-0.09,7.921l0.107-1.238
						c0.229-0.152,0.375,2.228,0.269,3.459c-0.185-1.615-0.326-0.135-0.494,0.554c0.123,1.079,0.202-0.934,0.328-0.367
						c0.153,1.356,0.232,4.217,0.129,4.933l-0.092-0.809c0.084,1.84-0.313,2.688-0.295,4.497c0.185,1.626,0.014,2.83,0.408,2.491
						c0.081,2.353-0.267,0.906-0.306,1.667c0.188,1.107,0.066,4.393-0.134,4.815c0.578,1.287-0.208,6.331,0.277,6.808l-0.275,1.931
						c0.131,0.062,0.423,0.442,0.476,2.013c-0.141,1.474-0.367,1.121-0.501,1.57l0.483,0.989
						c-0.519,8.496-0.174,19.704-0.602,29.016c0.103,4.157,0.326,9.395,0.257,14.244l-0.062-0.539l-0.132,4.822l0.222-3.501
						c0.056,1.052,0.149,1.875,0.143,2.892c-0.202,5.293-0.447,12.356-0.202,18.881c0.557,4.22-0.493,2.802-0.088,6.842
						c-0.051-0.346-0.13-0.471-0.185-0.781c0.185,4.352,0.281,6.718,0.607,11.076c-0.552-0.498,0.012,2.836-0.278,2.449l0.225,0.359
						c-0.134,0.985-0.195,3.209-0.335,2.987c0,0,0.104,0.609,0.208,1.22c0.151,0.602,0.325,1.187,0.325,1.187l-0.19,0.254
						c0.298,1.607,1.267,4.051,2.73,5.897c1.407,1.895,3.121,3.203,3.705,3.865c1.729,1.033,3.889,1.896,6.304,2.241
						c0.604,0.081,1.216,0.168,1.842,0.172c0.308,0.01,0.619,0.02,0.931,0.029l0.77-0.008c1.032-0.006,2.088-0.011,3.156-0.016
						c4.272-0.007,8.745,0.042,12.706,0.087c1.114-0.188,3.432-0.204,5.237-0.224l1.93,0.274c1.84-0.084,3.795-0.429,5.507-0.253
						c-0.014,0.031-0.083,0.054-0.201,0.07c1.868-0.057,3.646,0.089,5.39-0.164c2.048,0.015,4.041,0.16,3.411,0.415
						c0.201-0.455,4.338,0.065,4.338,0.065s26.287,0.277,55.78,0.245c14.746-0.016,30.294-0.108,43.759-0.352
						c3.366-0.073,6.603-0.145,9.663-0.212c1.53-0.044,3.017-0.087,4.454-0.129c0.719-0.024,1.425-0.048,2.118-0.07
						c0.347-0.013,0.689-0.025,1.029-0.037c0.336-0.012,0.803-0.054,1.188-0.083c3.243-0.292,6.065-1.576,8.106-3.219
						c2.08-1.621,3.376-3.615,4.109-5.365c0.16-0.496,0.428-1.424,0.564-2.101c0.092-0.694,0.098-1.12-0.167-0.653
						c0.449-2.023,0.741-2.996,0.566-3.411c-0.146,1.428-0.284,1.182-0.432,0.949c-0.171-0.24-0.265-0.448-0.576,0.828
						c0,0,0.014-0.104,0.033-0.26c0.027-0.155,0.035-0.364,0.036-0.573c0.009-0.417,0.017-0.834,0.017-0.834
						c-0.071-0.173-0.054,0.391-0.056,0.951c-0.013,0.56-0.122,1.104-0.223,0.878l0.337,0.545c-0.365,1.343-0.771,2-1.071,2.388
						c-0.217,0.596-0.254,1.173-0.576,1.874c-0.143,0.362-0.351,0.757-0.684,1.187c-0.306,0.451-0.772,0.904-1.372,1.409
						c0.016,0.017,0.591-0.632,0.591-0.632c-0.429,0.473-0.754,0.733-0.982,0.887c-0.224,0.158-0.347,0.215-0.424,0.229
						c-0.153,0.025-0.119-0.11-0.344,0.021l0.421-0.348c0.021,0.042-1.781,1.087-1.805,1.032c0.711-0.332,1.515-1.007,1.963-1.504
						c0.462-0.485,0.585-0.785,0.137-0.291c-2.265,1.774,0.65-0.395-0.989,1.023c-1.095,0.799-0.904,0.389-0.928,0.247
						c0,0-0.12,0.087-0.314,0.194c-0.192,0.112-0.448,0.261-0.705,0.41c-0.525,0.272-1.07,0.51-1.07,0.51
						c0.002-0.215,1.426-0.637,0.473-0.425c0,0-0.634,0.383-1.329,0.646c-0.339,0.156-0.688,0.285-0.958,0.359
						c-0.268,0.085-0.445,0.141-0.445,0.141c-0.321-0.162-1.094,0.026-1.993,0.156c-0.908,0.126-1.897,0.168-2.565-0.061
						c2.103-0.116-0.187-0.165,0.146-0.325l-5.151,0.028c-0.487-0.069,1.353-0.153,0.571-0.128c-0.969-0.136-1.592,0.12-2.114,0.117
						c-0.446-0.136-3.843,0.005-3.704-0.322c-3.494-0.219-1.467,0.415-4.726,0.229c-0.429-0.198,2.588-0.047,1.142-0.252
						l-3.376,0.073c0.304-0.097,0.657-0.322,1.923-0.279c-9.132-0.263-14.058-1.309-22.401-1.043
						c-1.176-0.235,0.844-0.158,1.681-0.314c-6.043,0.314-8.502-0.519-13.649-0.49l-0.09,0.195
						c-7.175-0.606-15.815-0.245-23.924-0.498l0.969,0.138c-1.114,0.188-2.92,0.208-4.248,0.295
						c-0.208-0.099,0.962-0.417-1.391-0.336c0.484,0.069,1.48,0.143,1.183,0.237c-6.967-0.508-21.668-0.383-33.115-0.629
						c-15.466,0.147-32.302-0.227-47.447-0.118c1.097,0.004,1.476,0.111,1.287,0.219c-0.087,0.053-0.302,0.102-0.604,0.131
						c-0.151,0.015-0.324,0.024-0.514,0.027c-0.182,0-0.318-0.019-0.495-0.04c-1.825-0.477-3.247-0.947-4.624-1.673
						c-0.677-0.367-1.329-0.809-1.881-1.394c-0.576-0.56-1.029-1.281-1.313-2.104c-0.419-0.666-0.65-1.405-0.827-2.139
						c-0.059-0.374-0.14-0.743-0.135-1.122c-0.004-0.214-0.032-0.316-0.024-0.62l0.006-0.795c0.033-2.115,0.065-4.192,0.097-6.249
						c0.066-4.113,0.087-8.15-0.226-12.271l0.23-0.159c0.105-1.231-0.054-1.563-0.077-2.857l0.064,0.035
						c0.087-3.055-0.147-6.749-0.037-8.503l-0.26-0.11c-0.021-1.813,0.201-0.941,0.053-2.803l0.13,0.056l-0.246-2.165
						c0.455,0.207,0.037-5.12,0.243-6.573c-0.082-2.345-0.278-6.801-0.187-10.356c0.234-0.664,0.232-5.029,0.35-7.811
						c-0.059-5.417-0.134-13.159-0.051-20.057l-0.295,0.125l-0.02-1.802c0.064,0.024,0.099-0.218,0.13,0.056
						c0.335-1.395-0.103-4.155,0.104-5.601c-0.267,0.906-0.042,1.259-0.048,2.287c-0.141,1.477-0.426,0.065-0.28-1.927l0.065,0.038
						l-0.154-1.36c0.23-0.152,0.337-1.391,0.565-1.549c-0.054-5.929-0.45-9.963-0.341-16.079c0.257,0.63-0.065-4.396,0.38-3.168
						c-0.167-3.674-0.36,0.609-0.676-1.072c0.007-1.024-0.116-2.104,0.049-2.287c0.107,0.481,0.272-0.833,0.313,0l-0.035-2.453
						c0.035-0.235,0.097,0.304,0.126,0.574c-0.258-4.995,0.292-8.862,0.032-13.346c-0.16-0.332-0.045,1.778-0.208,1.453
						c-0.327-4.511,0.291-3.985,0.06-8.198l0.222,0.872c-0.153-1.356-0.344-1.951-0.166-4.186c0.264-0.391,0.215,1.896,0.337,2.975
						c0.011-1.536-0.058-5.417-0.295-4.234c-0.086-1.84,0.148-2.511,0.22-3.5c-0.064-0.035-0.175,1.716-0.297,0.636
						c0.148-2.501,0.143-6.368,0.166-9.43c0.065,0.028,0.164-0.187,0.195,0.083C11.039,25.976,11.625,26.239,11.551,22.859z"/>
					<path style="fill:#292627;" d="M161.166,10.209l-1.238-0.04c0,0.058-0.055,0.125-0.626,0.189L161.166,10.209z"/>
					<path style="fill:#292627;" d="M102.567,10.042c-0.151,0.021-0.304,0.04-0.442,0.071
						C102.426,10.102,102.526,10.073,102.567,10.042z"/>
					<path style="fill:#292627;" d="M88.337,10.503c1.017-0.057,0.11-0.127-0.388-0.194C87.925,10.362,87.949,10.426,88.337,10.503z
						"/>
					<path style="fill:#292627;" d="M189.731,15.966c-0.086-0.161-0.16-0.249-0.2-0.199
						C189.666,15.973,189.714,16.011,189.731,15.966z"/>
					<path style="fill:#292627;" d="M190.293,106.923c0.013-0.117,0.023-0.225,0.039-0.366
						C190.313,106.625,190.301,106.754,190.293,106.923z"/>
					<path style="fill:#292627;" d="M190.703,101.838c0.002-0.249-0.007-0.57-0.036-1.034
						C190.652,101.257,190.673,101.582,190.703,101.838z"/>
					<path style="fill:#292627;" d="M172.122,9.612c-0.343,0.009-0.675,0.028-0.966,0.083
						C171.683,9.689,171.945,9.652,172.122,9.612z"/>
					<path style="fill:#292627;" d="M190.608,99.749l0.028-1.28c-0.018-0.007-0.03-0.021-0.052-0.021L190.608,99.749z"/>
					<path style="fill:#292627;" d="M190.26,108.535c0.009-0.502,0.009-1.18,0.033-1.612
						C190.222,107.56,190.22,108.064,190.26,108.535z"/>
					<path style="fill:#292627;" d="M190.818,48.857c-0.002-0.042-0.004-0.09-0.006-0.138
						C190.699,47.723,190.747,48.345,190.818,48.857z"/>
					<path style="fill:#292627;" d="M190.16,94.152c0.003-0.056,0.007-0.118,0.011-0.173l-0.072-0.374L190.16,94.152z"/>
					<path style="fill:#292627;" d="M190.158,114.063c-0.006-0.242-0.018-0.463-0.048-0.637c-0.008,0.198-0.018,0.43-0.03,0.727
						C190.114,114.083,190.137,114.063,190.158,114.063z"/>
					<path style="fill:#292627;" d="M190.413,68.063c0.097,0.36,0.163,0.498,0.213,0.512
						C190.623,68.146,190.579,67.875,190.413,68.063z"/>
				</g>
			</g>
		</g>
	</g>
</g>
<g>
	<g>
		<g>
			<g>
				<g>
					<path style="fill:#292627;" d="M81.207,143.518c0.005-0.058-0.002-0.11-0.033-0.153
						C81.158,143.466,81.175,143.508,81.207,143.518z"/>
					<path style="fill:#292627;" d="M63.869,185.466l-0.226-0.563C63.763,185.279,63.826,185.42,63.869,185.466z"/>
					<path style="fill:#292627;" d="M98.405,122.542c-0.02,0.035-0.014,0.04-0.025,0.067c0.291-0.306,0.682-0.717,1.317-1.386
						L98.405,122.542z"/>
					<path style="fill:#292627;" d="M98.504,114.611l-0.008,0.603C98.503,114.942,98.519,114.766,98.504,114.611z"/>
					<path style="fill:#292627;" d="M94.04,171.539c-0.036-0.18-0.03-0.479-0.022-0.771
						C93.979,171.136,93.967,171.428,94.04,171.539z"/>
					<path style="fill:#292627;" d="M110.351,114.426c0,0-0.174,0.089-0.348,0.177c-0.177,0.085-0.341,0.185-0.341,0.185
						C109.719,114.831,109.97,114.708,110.351,114.426z"/>
					<path style="fill:#292627;" d="M132.829,99.657c-0.024-0.003-0.034-0.012-0.081-0.011
						C132.719,99.675,132.765,99.671,132.829,99.657z"/>
					<path style="fill:#292627;" d="M122.977,103.691c-0.188,0.131-0.407,0.285-0.629,0.441
						C122.628,103.969,122.987,103.766,122.977,103.691z"/>
					<path style="fill:#292627;" d="M122.053,104.348c0.094-0.068,0.196-0.144,0.295-0.215
						C122.173,104.237,122.033,104.325,122.053,104.348z"/>
					<path style="fill:#292627;" d="M107.547,12.599c0.784-0.047,1.479-0.252,2.186-0.42L107.547,12.599z"/>
					<path style="fill:#292627;" d="M73.543,129.656l0.03-0.18C73.509,129.621,73.515,129.657,73.543,129.656z"/>
					<path style="fill:#292627;" d="M108.413,11.032l0.563-0.015C108.769,11.007,108.585,11.015,108.413,11.032z"/>
					<path style="fill:#292627;" d="M100.448,124.749c-0.415,0.675-1.635,1.73-1.497,1.841
						C99.465,125.936,100.37,125.181,100.448,124.749z"/>
					<path style="fill:#292627;" d="M67.496,148.307l-0.385,0.404C67.299,148.521,67.417,148.406,67.496,148.307z"/>
					<path style="fill:#292627;" d="M108.413,11.032l-0.65,0.015c0.058,0.027,0.131,0.047,0.199,0.069
						C108.104,11.08,108.256,11.049,108.413,11.032z"/>
					<path style="fill:#292627;" d="M17.087,128.505c0.002,0.011,0.003,0.016,0.005,0.026c0.023,0.062,0.04,0.107,0.063,0.17
						L17.087,128.505z"/>
					<path style="fill:#292627;" d="M16.676,123.838c0.064,0.321,0.127,0.632,0.197,0.979
						C16.815,124.293,16.747,124.023,16.676,123.838z"/>
					<path style="fill:#292627;" d="M109.732,12.178c0,0,0.315-0.064,0.631-0.129c0.326-0.076,0.651-0.152,0.651-0.152
						C110.541,11.98,110.116,12.091,109.732,12.178z"/>
					<path style="fill:#292627;" d="M22.85,74.744c-0.056,0.15-0.11,0.296-0.161,0.432C22.769,74.994,22.82,74.854,22.85,74.744z"/>
					<path style="fill:#292627;" d="M93.619,175.242c-0.029,0.133-0.07,0.317-0.106,0.478
						C93.544,175.775,93.577,175.747,93.619,175.242z"/>
					<polygon style="fill:#292627;" points="91.987,139.141 91.988,139.129 91.984,139.129 					"/>
					<path style="fill:#292627;" d="M92.046,141.06c0.084-0.592,0.03-1.453-0.059-1.919C91.94,139.74,91.931,140.307,92.046,141.06z
						"/>
					<path style="fill:#292627;" d="M92.393,135.058c-0.013,0.073-0.023,0.134-0.038,0.221
						C92.373,135.199,92.385,135.131,92.393,135.058z"/>
					<path style="fill:#292627;" d="M89.064,173.361c0.005,0.001,0.012,0.007,0.018,0.002c-0.006-0.012-0.009-0.018-0.014-0.023
						L89.064,173.361z"/>
					<path style="fill:#292627;" d="M89.63,165.769c0.043-0.132,0.083-0.314,0.116-0.517
						C89.703,165.376,89.662,165.55,89.63,165.769z"/>
					<path style="fill:#292627;" d="M92.934,116.214c0.001,0.005,0.005,0.005,0.008,0.005c0-0.016-0.001-0.021-0.001-0.038
						C92.938,116.194,92.937,116.203,92.934,116.214z"/>
					<path style="fill:#292627;" d="M87.837,118.121c3.075-6.883,5.585-16.023,7.922-22.714c0.155-1.59,0.865-3.735,1.529-5.901
						l0.514-0.081l0.471-1.836c0.38-0.683-0.388,1.405,0.216,0.172l-0.039-0.768c0.204-0.087,1.67-4.558,0.958-1.448l0.92-2.692
						l-7.209-1.53l-0.292,4.559c-0.119,1.647,0.321,0.988,0.092,2.799c-0.157,0.359-0.05-0.662-0.224-0.522
						c-0.344,2.721-0.222,4.313-0.081,5.854c0.163,1.542,0.396,3.034,0.21,5.572l-0.048-0.436c0.097,0.871,0.031,2.514,0.097,2.539
						c0.483-0.643-0.225-0.921,0.095-2.465c0.386,0.152,0.153,1.939,0.452,1.847c-0.176,1.184,0.025,1.889,0.018,2.926
						c-0.305,1.764-0.16,4.273-0.497,5.593c0.106,0.862,0.471,1.829,0.452,3.676c-0.331,1.315-0.286-0.318-0.434,1.48l0.221,0.295
						c-0.067,1.475-0.14,1.235-0.238,1.18c-0.072,1.566,0.259,1.315,0.037,3.271l-0.177-1.101c0.03,1.455-0.032,2.044-0.13,4.063
						c-0.128-0.051-0.088-0.86-0.028-1.45c-0.377,1.077,0.072,1.884,0.012,2.478c0.105-0.163,0.204-1.565,0.4-0.865
						c-0.08,0.998,0.223,2.157-0.071,2.856l-0.175-1.109c0.093,2.106,0.241,1.139,0.056,3.536c-0.008-0.131-0.07-0.071-0.114-0.13
						c0.175,1.556-0.249,3.536-0.445,5.798l-0.027-0.434c0.005,0.919,0.167,1.435,0.113,1.926c0.231-1.28,0.27-0.924,0.496-1.023
						c-0.507,1.678,0.229,2.635-0.211,5.404c-0.125-0.057-0.229-0.739-0.033-1.493c-0.308-0.98-0.623-1.123-0.669-2.833
						c0.006,1.063-0.038,2.31-0.179,2.033l0.33,0.356c-0.055,0.638-0.098,1.144-0.14,1.627c0.203,0.29,0.469-1.265,0.501,0.227
						c-0.016,1.681-0.434,0.86-0.294,1.134c-0.038,2.311,0.308,0.98,0.017,3.183c-0.013-0.222-0.041-0.655,0.009-0.846
						c-0.269,1.573-0.242,3.902-0.707,4.335c-0.078-0.244-0.202-0.298-0.119-0.895l0.063,0.026c-0.173-1.767-0.03,1.464-0.373,0.891
						c0.239-0.104,0.013,2.12-0.108,3.123l0.288-0.299c0.522,3.404-0.504-0.221-0.663,3.093c0.013,2.114,0.135-0.787,0.219,0.515
						c-0.157,1.415-0.432,1.926-0.481,4.014c-0.148,0.569-0.38,1.735-0.682,1.812c0.02,1.271-0.432,3.823-0.202,4.561
						c0.416-2.137-0.139-2.174,0.44-4.664l0.23,0.732c-0.152,1.742-0.182,3.986-0.38,5.183c0.075-0.237,0.157-0.342,0.207-0.183
						c-0.087,2.494,0.144,3.231-0.133,5.646c-0.288,0.296-0.131-1.117-0.074-2.147c-0.332,1.54-0.143,1.627-0.418,4.04
						c-0.239,0.108,0.141-1.627-0.061-1.925l-0.138,2.684c-0.013-0.012-0.03-0.002-0.047-0.003c0.088,0.104,0.12,0.285,0.119,0.521
						c-0.001,0.238-0.034,0.544-0.105,0.802c-0.149,0.555-0.245,1.23-0.431,1.916c-0.108,0.403-0.205,0.765-0.292,1.091
						c-0.121,0.319-0.22,0.608-0.303,0.876c-0.083,0.267-0.149,0.512-0.205,0.741c-0.077,0.222-0.147,0.425-0.214,0.617
						c-0.124,0.391-0.218,0.751-0.325,1.133c-0.131,0.367-0.305,0.738-0.53,1.19c-0.395,0.373-0.559,0.436-0.506,0.195
						c0.642-0.604,0.447-0.561,0.54-0.861c-0.624,1.039-1.918,1.756-1.589,1.174c-1.147,1.436,0.598-0.358-0.071,0.559
						c0,0-0.108,0.118-0.27,0.294c-0.152,0.186-0.384,0.402-0.633,0.602c-0.481,0.415-0.962,0.83-0.962,0.83
						c0.344-0.042,1.064-0.621,0.149,0.389c-0.912,0.665-1.382,1.045-2.641,1.694c0.136-0.185-0.515-0.051,0.404-0.555
						c-0.156,0.066-0.33,0.149-0.506,0.241c-0.185,0.072-0.375,0.151-0.552,0.237c-0.348,0.184-0.682,0.337-0.848,0.489
						c0.766-0.158,0.178,0.077-0.466,0.358c-0.662,0.223-1.392,0.474-0.776,0.481c0,0-0.402,0.057-0.81,0.061
						c-0.202,0.009-0.404,0.018-0.555,0.023c-0.15,0.012-0.252-0.002-0.252-0.002c0.367-0.026,0.386-0.183,0.923-0.219
						c-0.25-0.117-0.561-0.035-0.89,0.063c-0.33,0.083-0.677,0.211-0.958,0.246c-0.282-0.021-0.786-0.06-1.235-0.094
						c-0.442-0.074-0.825-0.146-0.876-0.209c-0.252,0.021-0.663-0.076-1.041-0.165c-0.372-0.109-0.681-0.278-0.765-0.375
						c-0.692-0.146-0.117,0.17-0.347,0.203c0,0-0.139-0.06-0.347-0.147c-0.199-0.101-0.503-0.183-0.745-0.346
						c-0.247-0.153-0.518-0.28-0.686-0.41c-0.167-0.131-0.278-0.218-0.278-0.218c0.001-0.206,0.16-0.659,0.439-0.528
						c-0.358-0.16-0.488-0.117-0.63-0.133c-0.075-0.006-0.156-0.025-0.271-0.098c-0.113-0.072-0.284-0.185-0.427-0.437
						c0.31,0.176,0.152-0.182,0.019-0.473c-0.098-0.324-0.116-0.606,0.217-0.303c-0.003-0.168-0.051-0.358-0.131-0.604
						c-0.058-0.329-0.144-0.699-0.248-1.078c-0.055-0.188-0.11-0.38-0.166-0.57c-0.027-0.201-0.055-0.4-0.082-0.594
						c-0.059-0.386-0.126-0.747-0.192-1.048c-0.358-0.741,0.043,1.331-0.23,1.302c-0.068-0.438-0.142-0.822-0.22-1.168
						c-0.089-0.344-0.079-0.674-0.132-0.96c-0.067-0.581-0.208-1.04-0.242-1.487c-0.055-0.889-0.213-1.682,0.175-3.078l-0.219,0.721
						c0.22-1.792,0.171-1.591,0.258-2.671c0.086,0.285,0.438-0.161,0.854-1.021c0.19-0.433,0.488-0.954,0.737-1.554
						c0.247-0.604,0.518-1.269,0.8-1.959c-0.06-0.302-0.919,1.44-0.973,0.898c0,0,0.167-0.473,0.352-0.941
						c0.182-0.47,0.363-0.939,0.363-0.939c0.079-0.124,0.044,0.101-0.017,0.355c0.572-1.72,1.774-2.874,1.646-3.515l1.263-1.415
						l-0.513,0.553c-0.038-0.303,0.874-2.118,1.043-2.511c0.846-1.913,1.407-2.477,2.149-3.354
						c-0.294,0.241-1.029,0.858-0.215-0.571c0.43,0.285,2.008-2.819,2.225-2.622c0.357-0.563,1.144-1.454,1.012-1.636l0.207,0.274
						c-0.292-0.383,1.09-2.381,2.105-3.948c0.257,0.702,1.156-1.702,2.095-2.05c-0.141-0.535,1.8-2.798,1.711-3.269
						c0.833-1.177,1.064-0.831,1.386-1.045l0.269-0.634c0.576-0.479,2.229-2.611,3.296-3.812l0.606-1.413l0.475-0.333
						c0.07-0.243,0.79-1.252,0.208-0.732l0.514-0.621c-0.278-0.301,0.609-0.958,1.471-2.341c0.286-0.249,0.296-0.113,0.122,0.195
						c0.508-0.625,0.455-0.225,0.837-0.479c-0.444,0.377,1.277-2.697-0.243-1.134c-0.223,0.011,0.491-1.047,1.049-1.613l0.586-0.142
						l0.31-0.979c0.759-0.985,1.293-1.223,1.98-1.956c-0.658,0.791-0.964,2.173,0.761,0.176c-0.875,1.079-1.17,1.725-1.581,2.313
						c0.369-0.403,0.573-0.587,0.135,0.156c1.265-1.629,0.28-0.663,1.584-2.233c0.169,0.3,0.624-0.063,1.872-1.327l-1.05,0.844
						c0.011-0.073,0.048-0.16,0.102-0.251c-0.359,0.359-0.49,0.433-0.656,0.433c0.269-0.299,1.246-2.064,1.639-2.165
						c-1.776,1.166,2.153-2.89,1.036-2.138c0.092-0.237,1.053-1.299,1.271-1.295c-0.992,1.421,1.146-0.683,1.133-0.307
						c0.381-0.518-1.117,0.782-0.604,0.087c0.705-0.732,1.378-1.12,1.852-1.447l-0.259,0.343l1.215-1.003
						c0.068-0.297-1.271,0.877-0.307-0.203c0.32-0.218,1.281-1.31,1.348-1.172c-0.342,0.635,0.226,0.504-0.607,1.407
						c0.671-0.769,3.069-2.938,1.889-2.292l0.903-0.811c-0.654,0.411-2.406,1.676-0.628-0.007l0.027,0.063l1.093-1.332l0.659-0.374
						c-0.072-0.049,0.074-0.289,0.568-0.684c0.19-0.03,0.673-0.379,0.72-0.248c1.397-1.179,1.178-1.211,1.301-1.436
						c0.775-0.673,1.112-0.862,0.864-0.408c1.092-0.874,3.068-2.304,3.918-2.747c1.416-1.23-0.348,0.173,0.402-0.657
						c1.65-0.458,5.232-3.253,7.901-4.731c-0.958-0.028,0.694-0.457,0.973-1.133c-0.521,0.416,2.784-0.902,0.441,0.367l1.443-0.744
						c1.117-0.231-2.324,1.332-0.648,0.948c0.812-0.395,1.424-0.842,2.089-1.286c0.671-0.427,1.361-0.932,2.405-1.205
						c-0.532,0.584,1.488-0.704,1.137-0.152c-0.363,0.277-0.928,0.456-1.478,0.699l0.372-0.07c3.72-1.341,0.908-0.8,2.765-1.783
						c1.118-0.481,1.603-0.544,1.818-0.504c0.215,0.035,0.164,0.177,0.258,0.235c0.382-0.044,1.524-0.449,2.105-0.722
						c-1.343,0.634-2.674,0.583-2.095,0.175c1.143,0.072,3.451-1.018,4.05-1.366c-3.443,0.623-2.313,0.652-5.577,1.235
						c-0.381,0.284-0.186,0.594-2.065,1.168c1.084-0.614-0.153-0.155-0.501-0.082c0.433,0.054-1.24,0.576-1.765,0.872
						c-0.569,0.07,0.894-0.921-0.966-0.167l-0.142,0.606c-0.734,0.269,0.153-0.468-1.304,0.356c0.706-0.618-0.415-0.238,1.602-1.287
						c-1.308,0.394-2.229,0.896-3.042,1.427c-0.405,0.268-0.788,0.536-1.176,0.816c-0.376,0.302-0.762,0.604-1.197,0.9
						c0.172-0.132,0.162-0.2,0.331-0.333c-0.331,0.334-1.041,0.726-1.565,1.055c-1.264,0.586,0.844-0.729,0.467-0.67l-1.953,1.118
						c-0.047,0.007-0.062,0.005-0.066-0.004c-0.491,0.337-0.929,0.694-1.169,0.704c0.476-0.508,0.622-0.778,0.954-1.105
						c0,0-0.484,0.349-0.929,0.759c-0.452,0.396-0.903,0.792-0.903,0.792c0.133-0.277-1.789,0.837-0.439-0.184
						c0,0-0.727,0.495-1.454,0.989c-0.363,0.247-0.726,0.494-0.998,0.68c-0.275,0.182-0.442,0.326-0.442,0.326l-0.43-0.091
						c-0.645,0.55-0.624,0.615,0.21,0.047c-1.02,0.662-3.941,3.632-3.825,2.746c-0.982,0.988-1.68,1.618-2.441,2.284
						c-0.382,0.333-0.776,0.677-1.233,1.075c-0.447,0.409-0.932,0.901-1.522,1.492c1.7-1.962-2.435,1.703-0.515-0.239
						c-1.276,0.976-1.288,1.453-2.167,2.351c-0.927,0.737-0.8,0.117,0.052-0.846c0,0-0.259,0.272-0.494,0.569
						c-0.239,0.292-0.479,0.584-0.479,0.584l-0.025-0.066l-0.795,1.053c-1.104,0.852-0.441-0.025-1.486,0.952l-0.014,0.423
						l-0.803,0.567c0.341-0.172-0.191,0.486-0.881,1.262l-0.032-0.061l-0.817,0.96c0.721-1.035-0.829,0.799-0.593,0.238
						c-0.734,0.789-0.783,0.778-2.013,2.288l0.373-0.125c-1.535,2.024-0.291-0.116-1.652,1.422l0.256,0.054
						c-2.26,1.964-3.052,3.988-4.641,5.501c0.754-1.002,0.348-0.925,0.38-0.862c-1.136,1.501-3.052,3.896-4.027,5.601
						c-0.69,0.365-0.871,0.439-2.193,1.95c-0.855,1.174-0.965,1.362-1.089,1.862c-0.93,1.058-2.33,3.301-2.568,3.218
						c-0.041,0.374-0.771,1-1.088,1.726l-0.176,0.077l0.257,0.034c-1.862,1.729-2.216,3.583-4.01,5.413l0.194-0.396l-0.525,0.931
						c-0.178,0.085,0.015-0.309-0.064-0.424c0,0-0.715,1.01-1.398,2.046c-0.697,1.025-1.365,2.073-1.366,2.073l0.667-0.734
						c-0.538,0.896-0.727,1.605-1.475,2.548c0.742-1.875-0.869,1.407-1.25,1.554l0.471-0.965c-0.731,1.268-0.731,1.268-0.47,1.28
						c-0.869,1.686-1.019,0.917-1.661,2.565l0.617-1.084c0.296-0.252,0.019,0.616-0.385,1.343c-0.121,0.158-0.482,0.635-0.215,0.058
						c-0.305,0.685-0.743,1.512-1.128,2.249c-0.361,0.752-0.676,1.41-0.775,1.729c-0.41,0.706-0.447,0.4-0.314-0.025
						c-0.583,1.505-0.694,1.859-0.857,2.188c-0.142,0.339-0.333,0.657-0.768,2.238l-0.104-0.098l-0.226,1.107
						c0,0-0.201,0.354-0.369,0.727c-0.176,0.37-0.353,0.739-0.353,0.739l0.321-0.513c-0.25,1.054-0.406,1.711-0.698,2.943
						l-0.086-0.544c-0.127,0.764-0.253,1.36-0.376,1.873c-0.09,0.527-0.165,0.972-0.24,1.411c-0.19,0.87-0.222,1.774-0.069,3.293
						c-0.033,0.212-0.099-0.259-0.131-0.503c0.054,0.704,0.157,1.194,0.195,1.577c0.038,0.383,0.035,0.658,0.034,0.938
						c-0.035,0.556,0.069,1.127,0.663,2.485c-0.113-0.154-0.098,0.18-0.182,0.089c0.019,0.01,0.085,0.293,0.294,0.648
						c0.192,0.339,0.385,0.679,0.385,0.679l-0.284,0.008c0,0,0.211,0.26,0.464,0.478c0.259,0.208,0.518,0.416,0.518,0.416
						s0.084,0.234,0.169,0.468c0.041,0.122,0.093,0.232,0.138,0.311c0.042,0.082,0.071,0.136,0.071,0.136l0.509,0.344
						c0.189,0.399,0.504,0.718,0.864,1.038c0.353,0.343,0.783,0.588,1.23,0.846c0.899,0.514,1.895,0.862,2.85,1.313l-0.257-0.416
						c1.286,0.19,2.607,0.32,3.982,0.329c1.375,0.036,2.805-0.059,4.258-0.332c1.446-0.253,2.953-0.724,4.314-1.474
						c1.329-0.758,2.547-1.557,3.581-2.636l0.093,0.264c0,0,0.42-0.453,0.801-0.932c0.352-0.501,0.704-1.001,0.704-1.001
						c1.028-0.833-0.359,0.729,0.01,0.519c0.835-1.018,0.929-1.287,1.042-1.61c0.108-0.323,0.306-0.648,1.088-1.922
						c0.898-1.258-0.061,0.592-0.469,1.201c0.188-0.302,0.411-0.604,0.596-0.947c0.179-0.348,0.364-0.707,0.553-1.074
						c0.407-0.714,0.704-1.52,1.003-2.293c0.587-1.551,0.947-3.084,1.135-4.104c-0.028-0.053-0.055-0.185-0.084-0.083
						c0.146-1.711,0.339-3.959,0.5-5.842c0.116,0.056,0.099,0.514,0.088,0.973c0.067-0.659,0.221-1.561,0.144-2.137l0.169,0.711
						c0.155-1.411,0.165-4.156,0.453-4.45c-0.114,0.163-0.303,0.076-0.195-1.145c0.449-0.646,0.095-3.345,0.461-5.29
						c0.076,0.244-0.017,1.682,0.02,1.277c0.182-0.974,0.065-1.874,0.011-2.748l0.139,0.276l0.138-4.59
						c0.449-0.646,0.279-4.318,0.543-3.985c0.142-1.631-0.282,1.356-0.166-0.713c0.209-0.538,0.065-1.872,0.317-1.765l0.013,0.223
						l0.092-1.443l0.183,0.927c0.042-1.247-0.14-2.178-0.329-2.256c0.234-1.166,0.249-2.848,0.522-3.364l0.028,0.439
						c0.158-3.315,1.128-5.424,0.899-8.06c0.051-0.189,0.113-0.163,0.078,0.244l0.177-2.04l0.153,0.498c0,0-0.008-0.851-0.015-1.7
						c-0.007-0.851-0.024-1.704-0.024-1.704l0.128,0.055c0.142-2.259,0.214-5.805,0.289-8.717l0.044,0.438
						c-0.087-3.182,0.27-3.077,0.163-5.383c0.033,0.084,0.044,0.161,0.05,0.245l0.035-2.073L98.657,113
						c-0.25-1.543,0.449-4.381,0.194-3.441c-0.106-0.87-0.228-2.368-0.382-2.629c0.032-2.259,0.174-0.553,0.318-1.941
						c0.063-1.621-0.154-1.911,0.028-4.104l0.129,0.047c0.007-1.024-0.067-1.668-0.044-3.098l0.049,0.429
						c-0.187-2.343,0.432-2.9-0.002-4.747c0.168-0.973,0.205-2.828,0.46-2.723c0.016-2.904,0.082-5.166,0.161-8.052
						c0.267-0.249,0.225-0.418,0.216-0.871l-0.433-22.662l-5.335,21.438c-0.075,0.301-0.205,0.739-0.537,1.398l0.257-0.046
						c-1.294,3.913-3.399,8.217-4.718,12.556L88.76,94.6l-0.046,0.942c-0.815,2.29-1.75,4.917-2.643,7.427
						c-0.452,1.242-0.859,2.487-1.29,3.592c-0.426,1.106-0.82,2.13-1.161,3.015c-0.161,0.605-0.364,1.37-0.59,2.22
						c-0.254,0.839-0.626,1.717-1.058,2.599l0.056-0.203c-0.322,0.79-0.648,1.592-0.979,2.402c-0.169,0.404-0.338,0.812-0.509,1.222
						c-0.203,0.394-0.408,0.79-0.614,1.188c-0.836,1.589-1.695,3.209-2.658,4.807c0.038-0.246-0.212,0.038-0.052-0.354
						c-0.245,0.888-1.157,1.876-1.586,2.553l0.648-0.71c-0.382,1.021-1.376,2.214-1.805,2.582l-0.689,1.566
						c-0.079,0.084-0.2,0.211-0.242,0.209l-0.058,0.32c0,0-0.175,0.152-0.372,0.295c-0.192,0.145-0.384,0.289-0.384,0.289
						c-0.191,0.383-1.414,2.276-1.581,3.022c-0.176,0.078-1.151,1.342-0.491,0.297c0,0-0.908,1.269-1.816,2.536
						c-0.455,0.628-0.906,1.281-1.25,1.729c-0.344,0.451-0.573,0.751-0.573,0.751l0.648-0.696c0.255,0.038-0.707,1.604-1.383,2.266
						c0.615-1.082-0.194-0.28-0.646,0.023c-0.409,0.721,0.594-0.432,0.428-0.015c-0.509,0.913-1.871,2.61-2.324,2.926l0.343-0.513
						c-0.437,0.54-0.834,0.865-1.237,1.173c-0.417,0.294-0.834,0.576-1.303,1.061c-0.734,0.983-1.54,1.427-1.082,1.561
						c-1.255,1.238-0.676,0.254-1.131,0.59c-0.259,0.327-0.884,0.85-1.486,1.294c-0.62,0.418-1.23,0.731-1.411,0.741
						c-0.416,1.117-4.035,2.219-4.131,2.751c0,0-1.368,0.384-1.378,0.349c0.011,0.137-0.128,0.504-1.176,0.979
						c-1.045,0.273-0.883-0.052-1.234-0.08l-0.537,0.663c-3.022,0.675-6.554,1.16-10.215,0.968
						c-0.913-0.094-1.831-0.188-2.746-0.283c-0.484-0.029-0.864-0.128-1.251-0.215c-0.393-0.075-0.781-0.162-1.156-0.313
						c-1.519-0.488-2.943-1.273-4.143-2.277c-1.152-0.768-2.452-1.738-3.618-3c-1.176-1.242-2.264-2.696-3.11-4.214l0.248,0.302
						c0,0-0.109-0.186-0.25-0.478c-0.146-0.288-0.339-0.672-0.533-1.057c-0.171-0.394-0.343-0.788-0.471-1.083
						c-0.135-0.293-0.204-0.495-0.204-0.495s0.039,0.151,0.126,0.368c0.083,0.22,0.194,0.513,0.304,0.806
						c0.106,0.296,0.223,0.588,0.324,0.8c0.096,0.216,0.16,0.36,0.16,0.36c-0.429-0.625-0.753-1.127-1.068-1.788
						c-0.349-0.888-0.678-1.861-0.969-2.889c-0.137-0.517-0.25-1.02-0.381-1.571c-0.116-0.602-0.235-1.214-0.355-1.834
						c-0.532-2.468-1-5.066-1.578-7.545c-1.042-3.161,0.164-2.225-0.681-5.271c0.077,0.261,0.178,0.346,0.265,0.578
						c-0.559-3.326-0.864-5.137-1.346-8.497c0.567,0.36-0.134-2.195,0.192-1.906l-0.228-0.272c0.13-0.754,0.163-2.519,0.326-2.268
						l-0.294-1.488l0.229-0.125c0.033-0.981,0.085-2.528,0.134-3.959c0.061-1.43,0.31-2.729,0.57-3.221
						c0.021-0.608,0.042-1.26,0.066-1.947c0.039-0.687,0.14-1.401,0.221-2.146c0.173-1.488,0.367-3.084,0.719-4.692
						c0.161-0.806,0.324-1.622,0.487-2.439c0.171-0.815,0.412-1.617,0.614-2.418c0.212-0.799,0.423-1.591,0.629-2.368
						c0.223-0.771,0.486-1.516,0.717-2.243c0.094-0.869,0.541-2.606,1.043-3.912l0.772-1.307c0.205-0.681,0.356-1.407,0.535-2.112
						c0.195-0.699,0.447-1.365,0.784-1.943c0.025,0.022,0.025,0.08,0.004,0.17c0.529-1.349,1.15-2.575,1.513-3.898
						c0.705-1.429,1.506-2.758,1.523-2.206c-0.171-0.169,0.209-0.921,0.63-1.628c0.435-0.701,0.942-1.342,0.942-1.342
						s0.619-1.114,1.719-3.098c1.154-1.942,2.803-4.686,5.114-7.927c0.548-0.824,1.167-1.658,1.827-2.515
						c0.651-0.862,1.326-1.756,2.022-2.679c0.707-0.916,1.484-1.824,2.254-2.777c0.78-0.945,1.555-1.936,2.424-2.881
						c0.851-0.96,1.719-1.942,2.603-2.94c0.9-0.98,1.854-1.937,2.798-2.93c0.933-1.009,1.933-1.958,2.95-2.908
						c1.015-0.95,2.012-1.959,3.099-2.828c0.534-0.452,1.069-0.905,1.605-1.359c0.533-0.46,1.069-0.919,1.646-1.311
						c1.138-0.812,2.252-1.666,3.411-2.461l3.592-2.223c1.234-0.679,2.492-1.314,3.727-1.976c5.034-2.484,10.282-4.322,15.279-5.674
						c10.021-2.707,18.931-3.559,24.018-4.584c0.667-0.268,2.606-0.602,1.834-0.796c1.471-0.211,2.285,0.031,2.541-0.216
						c-2.116,0.133,0.54-0.658-1.511-0.666l1.27-0.225c0.242-0.193-1.715,0.412-1.435,0.082l-0.313,0.457
						c-1.03,0.029-1.6-0.007-1.971-0.118c-0.936,0.236-1.512,0.848-3.793,0.776l0.623-0.074c-1.842,0.158-1.151-0.183-1.541-0.222
						l0.406-0.028l-1.569-0.084c1.187,0.036,3.109-0.444,2.089-0.344c-2.213,0.053,0.579,0.057-1.067,0.236
						c-1.022,0.103-0.755-0.139-0.72-0.275l-1.84,0.18c0.048-0.2,1.22-0.098,0.455-0.232c0,0-0.575,0.103-1.149,0.206
						c-0.573,0.111-1.146,0.222-1.146,0.222c-0.485-0.433-2.495,0.486-3.601,0.187c1.648-0.339-0.168-0.145,0.074-0.339
						c0,0-1.019,0.145-2.038,0.289c-1.021,0.13-2.032,0.327-2.032,0.327c-0.396-0.003,1.043-0.329,0.43-0.201
						c-0.786-0.007-1.236,0.329-1.648,0.394c-0.187-0.035-0.946,0.086-1.649,0.19c-0.7,0.121-1.348,0.207-1.326,0.035
						c-2.786,0.37-1.074,0.599-3.649,1.031c-0.381-0.119,2.003-0.537,0.83-0.469l-2.61,0.73c0.212-0.153,0.432-0.44,1.431-0.647
						c-1.798,0.375-3.406,0.658-4.887,1.002c-1.49,0.309-2.88,0.568-4.219,0.948c-2.706,0.663-5.301,1.534-8.319,3.131
						c-0.957,0.238,0.536-0.478,1.1-0.894c-2.151,1.251-3.768,1.913-5.293,2.589c-1.487,0.741-2.985,1.323-4.738,2.546l0.049,0.205
						c-1.287,0.748-2.625,1.579-3.951,2.505c-1.264,0.992-2.546,2.047-3.837,3.127c-1.216,1.143-2.448,2.302-3.68,3.461
						c-1.209,1.176-2.363,2.394-3.562,3.54l0.646-0.477c-0.496,0.782-1.498,1.856-2.129,2.739c-0.185,0.061,0.207-0.867-0.997,0.625
						c0.313-0.25,0.901-0.81,0.813-0.565c-2.079,1.939-5.032,5.222-8.004,9.083c-3.042,3.801-5.969,8.305-8.469,12.321
						c-3.038,5.545-5.934,11.504-8.265,17.692c-2.336,6.182-4.066,12.601-4.978,18.818c0.259-1.898,0.617-1.013,0.302,0.393
						c-0.688,1.885-0.914,3.591-0.968,5.313c-0.045,0.86-0.082,1.723-0.164,2.618c-0.076,0.896-0.131,1.828-0.319,2.83
						c-0.021,7.287-0.253,13.88,1.338,20.487l-0.209,0.162c0.044,1.015,0.23,1.264,0.421,2.305l-0.069-0.017
						c0.371,2.474,1.129,5.404,1.371,6.818l0.273,0.033c0.343,1.439-0.028,0.795,0.447,2.245l-0.136-0.014
						c0,0,0.156,0.417,0.313,0.835c0.187,0.449,0.373,0.898,0.373,0.898c-0.247-0.03,0.047,1.104,0.528,2.333
						c0.475,1.238,1.143,2.575,1.344,3.191c0.965,1.845,3.147,5.101,5.269,7.468c0.114,0.296,0.821,1.178,1.828,2.136
						c0.988,0.972,2.3,1.981,3.367,2.733c0.537,0.337,1.148,0.639,1.762,0.975c0.625,0.322,1.326,0.584,2.024,0.885
						c0.723,0.254,1.485,0.484,2.265,0.701c0.4,0.078,0.805,0.158,1.212,0.238c0.408,0.078,0.831,0.167,1.192,0.185
						c0.753,0.069,1.517,0.14,2.285,0.211l1.154,0.105l1.17,0.003c0.78,0.002,1.56,0.003,2.333,0.005
						c0.774-0.034,1.542-0.125,2.299-0.184l-0.141-0.282c0,0,0.392-0.045,0.783-0.089c0.195-0.022,0.391-0.045,0.538-0.063
						c0.147-0.014,0.244-0.034,0.244-0.034c-0.012,0.068,0.203,0.062-0.028,0.139c1.263,0.089,3.575-0.76,4.822-0.997
						c-0.842-0.046-1.063,0.311-1.953,0.486c-0.653,0.06-0.688-0.042-0.346-0.183c0.17-0.073,0.438-0.146,0.766-0.231
						c0.324-0.104,0.711-0.209,1.139-0.298l-0.014,0.072l1.092-0.487c0.2,0.191,1.27-0.037,1.471,0.102
						c1.204-0.511,2.339-0.928,3.328-1.516c1.01-0.546,1.971-1.072,2.868-1.701c0.457-0.3,0.915-0.6,1.379-0.904
						c0.443-0.329,0.894-0.662,1.355-1.004c0.948-0.655,1.856-1.435,2.9-2.231c-0.21,0.578,2.751-2.558,2.28-1.524
						c2.119-2.321-0.611,0.11,0.185-1.124c0.616-0.607,1.174-1.334,1.397-1.334c-0.196,0.373,0.672-0.333,0.227,0.215l1.372-1.557
						c0.161-0.124-0.101,0.255-0.233,0.443c2.645-3.301,4.884-5.667,6.721-8.766c0.021-0.313-0.857,1.154-0.84,0.846
						c1.81-3.179,2.077-2.48,3.828-5.407l-0.217,0.702c0.509-0.976,0.587-1.511,1.709-2.955c0.392-0.129-0.641,1.429-1.008,2.245
						c0.678-1.06,2.304-3.789,1.589-3.095c0.724-1.319,1.214-1.662,1.705-2.312c-0.041-0.057-0.894,1.099-0.53,0.288
						c1.272-1.604,2.721-4.471,3.95-6.677c0.047,0.05,0.219-0.062,0.142,0.149C86.354,120.273,86.748,120.712,87.837,118.121z"/>
					<path style="fill:#292627;" d="M88.947,174.343l0.117-0.981c-0.058-0.004-0.121-0.054-0.149-0.513L88.947,174.343z"/>
					<path style="fill:#292627;" d="M92.752,127.768c-0.016-0.121-0.03-0.243-0.057-0.354
						C92.697,127.651,92.723,127.732,92.752,127.768z"/>
					<path style="fill:#292627;" d="M92.729,116.514c0.025,0.804,0.123,0.091,0.206-0.3
						C92.882,116.193,92.818,116.211,92.729,116.514z"/>
					<path style="fill:#292627;" d="M73.413,188.248c0.153-0.011,0.248-0.036,0.23-0.093
						C73.437,188.183,73.388,188.214,73.413,188.248z"/>
					<path style="fill:#292627;" d="M95.183,130.774c-0.069,0.063-0.131,0.121-0.214,0.198
						C95.018,130.943,95.092,130.873,95.183,130.774z"/>
					<path style="fill:#292627;" d="M92.316,133.625c-0.123,0.155-0.273,0.361-0.477,0.669
						C92.072,134.021,92.214,133.804,92.316,133.625z"/>
					<path style="fill:#292627;" d="M86.828,181.585c0.134-0.207,0.269-0.405,0.332-0.611
						C86.957,181.29,86.867,181.457,86.828,181.585z"/>
					<path style="fill:#292627;" d="M91.37,134.989l-0.647,0.781c0.011,0.015,0.014,0.031,0.03,0.044L91.37,134.989z"/>
					<path style="fill:#292627;" d="M96.016,129.812c-0.258,0.3-0.598,0.714-0.833,0.963
						C95.557,130.432,95.811,130.124,96.016,129.812z"/>
					<path style="fill:#292627;" d="M69.241,168.423c-0.011,0.03-0.023,0.065-0.035,0.102
						C69.014,169.281,69.155,168.817,69.241,168.423z"/>
					<polygon style="fill:#292627;" points="89.011,138.768 88.92,138.87 88.8,139.15 					"/>
					<path style="fill:#292627;" d="M98.952,126.59c-0.121,0.148-0.227,0.287-0.293,0.41c0.108-0.112,0.235-0.243,0.398-0.412
						C98.995,126.606,98.967,126.604,98.952,126.59z"/>
					<path style="fill:#292627;" d="M76.796,155.441c0.074-0.29,0.078-0.417,0.043-0.453
						C76.656,155.272,76.576,155.475,76.796,155.441z"/>
				</g>
			</g>
		</g>
	</g>
</g>
<g>
	<g>
		<g>
			<g>
				<g>
					<path style="fill:#292627;" d="M112.769,167.437c0.028,0.019,0.064,0.034,0.115,0.043
						C112.839,167.447,112.801,167.436,112.769,167.437z"/>
					<path style="fill:#292627;" d="M114.543,153.117l0.045,0.172C114.587,153.179,114.57,153.136,114.543,153.117z"/>
					<path style="fill:#292627;" d="M111.839,176.023c-0.009-0.013-0.016-0.014-0.025-0.023c-0.013,0.133-0.048,0.317-0.091,0.613
						L111.839,176.023z"/>
					<path style="fill:#292627;" d="M117.606,122.523l-0.01,0.192C117.604,122.629,117.62,122.573,117.606,122.523z"/>
					<path style="fill:#292627;" d="M115.75,140.656c-0.045-0.061-0.056-0.156-0.064-0.251
						C115.669,140.522,115.673,140.617,115.75,140.656z"/>
					<path style="fill:#292627;" d="M108.711,180.214l0.208-0.211C108.846,179.996,108.755,180.068,108.711,180.214z"/>
					<path style="fill:#292627;" d="M107.463,188.723c0.014-0.003,0.024-0.001,0.044-0.009
						C107.496,188.697,107.479,188.706,107.463,188.723z"/>
					<path style="fill:#292627;" d="M109.051,185.657c0.001-0.075-0.009-0.166-0.02-0.257
						C109.014,185.503,108.984,185.632,109.051,185.657z"/>
					<path style="fill:#292627;" d="M109.016,185.277l0.016,0.123C109.04,185.336,109.045,185.283,109.016,185.277z"/>
					<path style="fill:#292627;" d="M121.87,10.924c0.018-0.252-0.104-0.471-0.204-0.7L121.87,10.924z"/>
					<path style="fill:#292627;" d="M119.332,94.701l0.068,0.058C119.38,94.707,119.355,94.697,119.332,94.701z"/>
					<path style="fill:#292627;" d="M120.392,10.574l0.042-0.177C120.403,10.461,120.393,10.519,120.392,10.574z"/>
					<path style="fill:#292627;" d="M108.856,175.683c-0.149-0.267,0.087-0.766-0.076-0.776
						C108.788,175.176,108.636,175.543,108.856,175.683z"/>
					<path style="fill:#292627;" d="M113.279,88.552l-0.001-0.167C113.273,88.465,113.274,88.514,113.279,88.552z"/>
					<path style="fill:#292627;" d="M120.392,10.574l-0.048,0.206c0.032-0.017,0.059-0.039,0.087-0.06
						C120.407,10.673,120.394,10.624,120.392,10.574z"/>
					<path style="fill:#292627;" d="M120.701,65.75v0.009c0.01,0.021,0.018,0.037,0.027,0.06L120.701,65.75z"/>
					<path style="fill:#292627;" d="M121.04,64.228c0.013,0.108,0.025,0.213,0.04,0.33C121.105,64.385,121.08,64.293,121.04,64.228z
						"/>
					<path style="fill:#292627;" d="M121.666,10.224l-0.116-0.399C121.563,9.968,121.612,10.099,121.666,10.224z"/>
					<path style="fill:#292627;" d="M121.499,47.686c0.003,0.053,0.007,0.104,0.015,0.152
						C121.519,47.773,121.514,47.723,121.499,47.686z"/>
					<path style="fill:#292627;" d="M115.565,141.813c-0.019,0.036-0.031,0.087-0.047,0.131
						C115.557,141.962,115.585,141.955,115.565,141.813z"/>
					<polygon style="fill:#292627;" points="111.951,130.078 111.951,130.074 111.947,130.074 					"/>
					<path style="fill:#292627;" d="M112.113,130.701c0.052-0.188-0.048-0.469-0.162-0.623
						C111.937,130.27,111.958,130.452,112.113,130.701z"/>
					<path style="fill:#292627;" d="M112.126,128.776c-0.009,0.023-0.016,0.043-0.025,0.07
						C112.113,128.822,112.122,128.801,112.126,128.776z"/>
					<path style="fill:#292627;" d="M110.893,141.009c0.005,0,0.012,0.002,0.018,0.001l-0.015-0.009L110.893,141.009z"/>
					<path style="fill:#292627;" d="M111.045,138.579c0.036-0.041,0.065-0.098,0.087-0.161
						C111.097,138.456,111.064,138.51,111.045,138.579z"/>
					<polygon style="fill:#292627;" points="112.054,122.705 112.062,122.707 112.06,122.694 					"/>
					<path style="fill:#292627;" d="M112.21,99.778c-0.018,2.296,0.198,5.286-0.036,7.554c0.313,0.516,0.277,1.237,0.306,1.967
						l-0.464,0.05l0.107,0.613c-0.156,0.237-0.056-0.471-0.258-0.046l0.27,0.246c-0.168,0.037-0.211,1.545-0.474,0.511l-0.158,2.349
						c-0.049,0.519,0.362,0.327,0.211,0.895c-0.142,0.107-0.078-0.213-0.246-0.176c-0.455,1.701,0.757,2.049,0.441,3.644
						l-0.052-0.142c0.104,0.282,0.053,0.802,0.118,0.813c0.477-0.177-0.232-0.305,0.074-0.778c0.387,0.069,0.169,0.625,0.467,0.613
						c-0.165,0.366,0.041,0.603,0.042,0.933c-0.281,0.543-0.161,1.357-0.494,1.759c0.104,0.283,0.467,0.614,0.443,1.204
						c-0.333,0.401-0.285-0.119-0.437,0.448l0.22,0.107c-0.066,0.469-0.125,0.391-0.229,0.366c-0.044,0.504,0.281,0.441,0.095,1.063
						l-0.196-0.367c0.055,0.474,0.004,0.661-0.06,1.31c-0.129-0.022-0.103-0.283-0.053-0.472c-0.357,0.33,0.105,0.615,0.056,0.804
						c0.102-0.047,0.177-0.496,0.385-0.259c-0.063,0.318,0.26,0.709-0.021,0.92l-0.194-0.367c0.131,0.687,0.259,0.38,0.119,1.146
						c-0.015-0.043-0.072-0.026-0.118-0.047c0.257,0.511-0.049,1.131-0.118,1.853l-0.051-0.141c0.057,0.297,0.247,0.471,0.222,0.627
						c0.157-0.402,0.216-0.285,0.436-0.307c-0.41,0.519,0.379,0.862,0.094,1.737c-0.128-0.023-0.268-0.25-0.114-0.484
						c-0.362-0.332-0.685-0.393-0.827-0.948c0.065,0.344,0.093,0.745-0.063,0.649l0.349,0.131c-0.005,0.205-0.037,0.365-0.049,0.52
						c0.218,0.104,0.398-0.387,0.511,0.097c0.076,0.543-0.386,0.258-0.231,0.354c0.087,0.745,0.359,0.332,0.189,1.03
						c-0.024-0.072-0.076-0.214-0.037-0.273c-0.182,0.496-0.029,1.251-0.469,1.368c-0.091-0.082-0.218-0.105-0.167-0.295
						l0.064,0.012c-0.269-0.58,0.049,0.473-0.323,0.271c0.232-0.022,0.128,0.687,0.062,1.005l0.271-0.083
						c0.704,1.126-0.515-0.096-0.493,0.969c0.127,0.685,0.092-0.248,0.246,0.177c-0.079,0.451-0.326,0.603-0.263,1.275
						c-0.116,0.178-0.285,0.544-0.58,0.554c0.088,0.412-0.224,1.217,0.045,1.466c0.298-0.672-0.256-0.71,0.186-1.487l0.27,0.247
						c-0.057,0.557,0.034,1.281-0.099,1.659c0.063-0.073,0.139-0.104,0.196-0.05c0.048,0.803,0.318,1.053,0.174,1.82
						c-0.271,0.082-0.191-0.368-0.19-0.698c-0.247,0.482-0.054,0.52-0.197,1.287c-0.232,0.023,0.053-0.52-0.165-0.626l0.008,0.861
						c-0.014-0.004-0.029-0.002-0.047-0.003c0.375,0.152-0.082,0.65-0.007,1.184c-0.095,1.24,0.406,1.468,0.662,2.178
						c-0.117,0.178-0.22,0.225-0.31,0.14c0.193-0.293,0.055-0.248-0.037-0.361c0.009,0.422-0.445,0.889-0.582,0.644
						c0.062,0.673,0.22-0.225,0.309,0.191l-0.093,0.909c0.205-0.093,0.271-0.412,0.386,0.072c0.024,0.401-0.028,0.59-0.081,1.109
						c-0.091-0.082-0.311,0.142-0.27-0.247c-0.092,0.246-0.131,0.637,0.049,0.803c0.221-0.556,0.099,0.946,0.436,0.545l-0.222,0.555
						c0.014-0.13-0.115-0.153-0.063-0.343c-0.31,0.141,0.05,0.473,0.063,0.674c-0.073,0.196-0.138,0.714-0.257,0.748
						c0.069,0.186-0.028,0.621-0.187,0.692c0.039,0.271,0.192,0.035,0.283,0.12l-0.094,0.909c-0.168,0.035-0.632,0.077-0.683-0.064
						c0.127,0.356,0.477,0.159,0.423,0.678c-0.296-0.321-0.298,0.67-0.646,0.209c-0.258,0.28-0.31,1.131-0.258,1.604
						c0.231,0.309,0.18-0.495,0.438-0.446c-0.001,1.321,0.708,1.456,0.515,2.412l0.091-0.246c0.103,0.614,0.076,0.543,0.27,0.911
						c-0.309-0.191-0.914,0.618-0.915,1.611c0.155,0.097,0.348-0.529,0.592-0.349l0.001,0.661c-0.028,0.046-0.077-0.031-0.112-0.118
						c0.071,0.598-0.498,1.063-0.133,1.263l-0.514,0.561l0.218-0.222c0.153,0.095,0.154,0.758,0.207,0.9
						c0.128,0.688-0.027,0.922-0.259,1.274c0.141-0.106,0.464-0.374,0.476,0.159c-0.521-0.048-0.273,1.097-0.542,1.06
						c-0.009,0.215-0.198,0.581,0.016,0.623l-0.321-0.062c0.449,0.086,0.373,0.865,0.41,1.47c-0.605-0.187,0.001,0.66-0.578,0.879
						c0.41,0.146,0.089,1.075,0.437,1.21c-0.013,0.463-0.398,0.384-0.54,0.489l0.141,0.228c-0.212,0.216-0.304,1.077-0.475,1.579
						l0.334,0.51l-0.181,0.163c0.089,0.084,0.115,0.485,0.271,0.251l-0.041,0.257c0.402,0.056,0.085,0.371,0.22,0.904
						c-0.073,0.114-0.167,0.074-0.213-0.043c-0.022,0.259-0.221,0.13-0.366,0.259c0.116-0.174,0.656,0.992,0.888,0.312
						c0.168-0.033,0.259,0.384,0.168,0.631l-0.373,0.123l0.36,0.337c0.024,0.402-0.219,0.551-0.283,0.869
						c0.001-0.331-0.644-0.792-0.695,0.058c-0.016-0.45-0.201-0.688-0.261-0.924c-0.026,0.174-0.067,0.259-0.202-0.028
						c0.065,0.674,0.207,0.24,0.206,0.901c-0.321-0.064-0.438,0.11-0.591,0.674l0.269-0.408c0.038,0.023,0.064,0.056,0.082,0.091
						c0.046-0.161,0.101-0.202,0.228-0.227c-0.013,0.13,0.347,0.798,0.143,0.89c0.562-0.609,0.294,1.179,0.629,0.785
						c0.085,0.083,0.05,0.533-0.118,0.562c-0.18-0.559-0.416,0.36-0.631,0.247c0.068,0.208,0.29-0.389,0.38-0.108
						c-0.017,0.319-0.244,0.527-0.367,0.689l-0.044-0.139l-0.212,0.473c0.149,0.103,0.341-0.443,0.36,0.023
						c-0.084,0.111-0.064,0.579-0.19,0.547c-0.191-0.247-0.508-0.13-0.508-0.523c-0.022,0.322-0.128,1.348,0.23,0.979l-0.064,0.382
						c0.17-0.22,0.51-0.862,0.445-0.082l-0.063-0.017l0.162,0.573l-0.205,0.207c0.083,0.006,0.144,0.102,0.106,0.3
						c-0.104,0.036-0.174,0.217-0.3,0.181c-0.078,0.577,0.092,0.558,0.174,0.648c-0.03,0.327-0.117,0.436-0.281,0.252
						c-0.122,0.431-0.229,1.199-0.454,1.464c0.032,0.611,0.09-0.107,0.241,0.277c-0.654,0.393-0.619,1.868-0.793,2.818
						c0.548-0.13-0.013,0.267,0.378,0.554c-0.098-0.239-0.608,0.783-0.524-0.067l-0.083,0.51c-0.353,0.263,0.021-0.869-0.476-0.46
						c-0.127,0.552,0.298,1.067-0.092,1.646c-0.266-0.319-0.048,0.523-0.364,0.245c-0.078-0.169,0.015-0.331,0.046-0.518
						l-0.101,0.089c-0.474,1.134,0.285,0.466,0.313,1.164c-0.213,0.727-0.472,0.454-0.638,0.439
						c-0.106,0.082-0.192,0.444-0.179,0.659c-0.034-0.495,0.514-0.693,0.645-0.423c-0.496,0.16-0.439,1.017-0.372,1.276
						c0.789-0.843,0.292-0.681,1.098-1.474c-0.067-0.176-0.42-0.274-0.088-0.813c0.049,0.426,0.198,0.038,0.287-0.05
						c-0.234,0.05,0.051-0.437,0.027-0.643c0.214-0.116,0.341,0.5,0.617-0.082l-0.43-0.253c0.142-0.216,0.321,0.206,0.348-0.339
						c0.161,0.346,0.419,0.03,0.271,0.741c0.659-0.71,0.14-1.345,0.147-2.025c0.012,0.073,0.072,0.097,0.087,0.17
						c-0.087-0.171-0.013-0.417,0.01-0.615c0.21-0.403,0.131,0.392,0.283,0.312l0.154-0.701c0.019-0.011,0.028-0.012,0.038-0.01
						c-0.023-0.2-0.027-0.385,0.105-0.423c0.105,0.244,0.244,0.363,0.336,0.534l-0.163-0.816c0.139,0.116,0.409-0.551,0.404,0.001
						c0,0,0.045-0.278,0.09-0.557c0.05-0.277,0.079-0.558,0.079-0.558l0.341-0.029c-0.007-0.277-0.068-0.296-0.169,0.013
						c0.147-0.367-0.244-1.781,0.354-1.466c-0.113-0.918,0.038-1.216,0.047-2.295c0.176,0.859,0.517-0.877,0.527,0.007
						c0.214-0.485-0.123-0.643-0.122-1.048c0.191-0.354,0.487-0.146,0.55,0.277l-0.082-0.497l0.063,0.018L111.252,178
						c0.231-0.418,0.339-0.051,0.44-0.506l-0.276-0.134l0.206-0.292c-0.146,0.102-0.172-0.177-0.154-0.512l0.063,0.014l-0.006-0.41
						c0.131,0.417,0.102-0.362,0.288-0.16c0.038-0.341,0.035-0.348,0.026-0.97l-0.206,0.091c-0.113-0.819,0.297-0.007,0.36-0.657
						l-0.23,0.021c0.45-0.905-0.103-1.611,0.193-2.282c0.024,0.402,0.296,0.325,0.231,0.311c-0.04-0.604,0.091-1.572-0.141-2.215
						c0.347-0.197,0.45-0.242,0.645-0.866c0.013-0.463-0.015-0.534-0.195-0.701c0.16-0.436,0.03-1.291,0.271-1.294
						c-0.182-0.119,0.067-0.398-0.076-0.658l0.102-0.045l-0.23,0.021c0.567-0.751-0.191-1.363,0.31-2.128l0.052,0.144l-0.065-0.345
						c0.104-0.046,0.154,0.097,0.283,0.123l0.154-1.562l-0.193,0.294c0.001-0.331-0.204-0.57-0.037-0.937
						c0.296,0.653,0.051-0.52,0.321-0.6l0.065,0.344c0.012-0.461,0.012-0.461-0.221-0.441c-0.036-0.603,0.465-0.374,0.259-0.942
						l-0.039,0.39c-0.141,0.104-0.308-0.191-0.283-0.452c0.04-0.059,0.154-0.236,0.168-0.035c-0.053-0.475,0.115-1.17,0.039-1.383
						c0.089-0.248,0.246-0.153,0.296-0.011c-0.128-1.018,0.077-0.449-0.051-1.471l0.129,0.027l-0.13-0.356l0.311-0.472l-0.182,0.164
						c0.001-0.331-0.076-0.544,0.026-0.923l0.181,0.17c-0.039-0.938,0.399-1.052,0.193-1.955c0.039-0.058,0.091,0.084,0.116,0.156
						c-0.244-0.841,0.387-0.593,0.077-1.444c0.062,0.056,0.147-0.027,0.2,0.008l-0.096-0.384l0.257,0.048l-0.359-0.333l0.284-0.211
						l-0.113-0.155c0.527-0.362,0.195-0.957,0.608-1.476l-0.335,0.07c-0.575-1.434,0.616-3.131,0.428-4.821l0.257,0.049
						l-0.254-0.711c0.232-0.354,0.205,0.238,0.347,0.133c-0.088-0.747-0.359-0.335-0.37-1.197c0.208-0.426,0.18,0.167,0.257,0.38
						c-0.067-0.811-0.122-2.007,0.065-2.564c-0.034-0.016-0.077-0.054-0.094-0.026c-0.077-0.543,0.093-1.24,0.121-1.831
						c0.118,0.023,0.126,0.171,0.14,0.318c0.031-0.21,0.136-0.494,0.028-0.685l0.207,0.238c0.078-0.449-0.061-1.337,0.211-1.418
						c-0.105,0.048-0.298,0.011-0.257-0.379c0.413-0.188-0.087-1.078,0.173-1.689c0.089,0.082,0.074,0.543,0.089,0.414
						c0.129-0.307-0.036-0.604-0.138-0.889l0.153,0.097l-0.111-1.479c0.412-0.188,0.044-1.384,0.326-1.263
						c0.053-0.521-0.208,0.425-0.204-0.239c0.18-0.164-0.036-0.602,0.221-0.555l0.024,0.072l0.015-0.463l0.231,0.309
						c-0.025-0.401-0.257-0.711-0.449-0.745c0.17-0.366,0.094-0.909,0.338-1.063l0.052,0.144c-0.021-1.064,0.819-1.703,0.444-2.567
						c0.04-0.06,0.104-0.048,0.092,0.083l0.061-0.653l0.181,0.169l-0.223-1.104l0.129,0.023c0.101-0.711,0.108-1.835,0.131-2.758
						l0.052,0.142c-0.133-1.019,0.189-0.961,0.095-1.706c0.033,0.029,0.045,0.055,0.051,0.082l0.039-0.662l0.116,0.155
						c-0.246-0.509,0.457-1.376,0.201-1.09c-0.104-0.285-0.222-0.772-0.376-0.864c0.035-0.723,0.179-0.165,0.318-0.604
						c0.049-0.521-0.169-0.627-0.005-1.326l0.129,0.022c-0.001-0.331-0.081-0.544-0.069-1.005l0.053,0.142
						c-0.223-0.769,0.445-0.914-0.083-1.539c0.127-0.309,0.085-0.911,0.344-0.866c-0.106-0.945-0.136-1.679-0.178-2.614
						c0.437-0.121-0.015-0.201,0.267-0.748l-0.23,0.026c0.057-1.314,0.723-2.788,0.728-4.243l0.231-0.027l-0.232-0.305
						c0.184-1.557,0.371-3.576,0.436-4.822c-0.101-0.415-0.346-1.051-0.232-1.695l0.029,0.071c-0.077-1.136-0.116-2.334,0.074-3.559
						c0.093,0.081,0.167-0.038,0.223,0.103c-0.239-0.305,0.021-0.724,0.042-0.987l-0.188,0.301c-0.201-0.361,0.033-0.854,0.21-1.024
						l-0.22-0.566c0.024-0.036,0.063-0.091,0.1-0.096l-0.115-0.104l0.315-0.28c-0.055-0.141-0.097-0.876-0.374-1.119
						c0.103-0.048,0.207-0.562,0.242-0.159l0.188-2.02l-0.122,0.312c-0.231,0.029-0.348-0.585-0.227-0.895
						c0.164,0.42,0.323,0.048,0.5-0.12c-0.109-0.281-0.214,0.23-0.333,0.08c-0.136-0.353-0.18-1.087-0.067-1.265l0.082,0.21
						c-0.063-0.474,0.346-0.674,0.35-1.137c-0.164-0.423,0.021-0.724-0.377-0.653c-0.052-0.604,0.278-0.221,0.326-0.414
						c-0.174-0.29-0.013-1.125,0.193-1.225c-0.563-0.351,0.285-1.61-0.193-1.75l0.299-0.483c-0.131-0.021-0.418-0.128-0.454-0.53
						c0.157-0.37,0.38-0.272,0.518-0.382l-0.472-0.269c0.61-2.144,0.388-5.009,0.916-7.364c-0.057-1.062-0.224-2.404-0.102-3.636
						l0.056,0.14l0.185-1.222l-0.26,0.882c-0.045-0.27-0.13-0.483-0.111-0.741c0.26-1.34,0.581-3.128,0.407-4.798
						c-0.511-1.096,0.522-0.693,0.162-1.738c0.047,0.09,0.125,0.125,0.177,0.206c-0.138-1.115-0.208-1.721-0.486-2.844
						c0.546,0.149,0.019-0.723,0.304-0.612l-0.221-0.101c0.147-0.241,0.222-0.82,0.378-0.731l-0.258-0.501l0.231-0.033
						c0.045-0.647-0.083-2.05,0.396-2.371c-0.277-1.623-0.065-4.157,0.11-6.169c-0.176-0.292-0.166-0.882-0.166-1.343l0.295-0.479
						c-0.064-0.472-0.388-0.985-0.193-1.413c0.031,0.005,0.054,0.023,0.068,0.054c-0.035-0.478,0.129-0.924-0.104-1.379
						c0.036-0.521,0.203-1.021,0.451-0.85c-0.451-0.071,0.107-1.104,0.107-1.104s2.136-26.82-0.083-33.428
						c-0.215-0.226-0.337-0.838-0.613-0.612c-0.066-0.471,0.339-0.677,0.117-0.774c-0.174,0.635-0.574-0.211-0.877,0.406
						l-0.039-0.401c-0.157-0.087,0.16,0.549-0.126,0.443l0.415,0.123c-0.075,0.323-0.17,0.499-0.316,0.61
						c0.152,0.309,0.714,0.517,0.438,1.239l-0.018-0.202c-0.008,0.593-0.285,0.356-0.358,0.479l0.009-0.131l-0.231,0.494
						c0.156-0.375-0.161-1.008-0.148-0.68c-0.145,0.704,0.108-0.181,0.14,0.351c0.009,0.329-0.212,0.232-0.341,0.214l-0.007,0.592
						c-0.194-0.026,0.025-0.391-0.186-0.157l0.179,0.75c-0.499,0.126,0.206,0.817-0.272,1.145c-0.096-0.539-0.167,0.043-0.324-0.046
						l-0.021,1.313c-0.073,0.123-0.14-0.349-0.122-0.149c-0.146,0.243,0.104,0.409,0.097,0.542c-0.14,0.11-0.032,0.979-0.358,0.935
						c-0.253,0.884,0.4,0.386,0.183,1.21c-0.203,0.104-0.022-0.661-0.241-0.298l0.04,0.862c-0.094-0.081-0.314-0.177-0.261-0.498
						c-0.351,2.318-1.444,3.539-1.26,5.671c-0.247,0.292-0.149-0.22-0.298-0.438c0.256,1.548-0.602,2.146-0.623,3.457l0.194,0.03
						c-0.676,1.804-0.398,4.015-0.73,6.067l0.146-0.241c0.178,0.291,0.181,0.751,0.254,1.092c-0.101,0.049-0.407-0.261-0.349,0.34
						c0.074-0.12,0.156-0.371,0.248-0.292c-0.574,1.752-0.593,5.497-0.95,8.397c0.002,3.941-0.577,8.213-0.619,12.093
						c0.01-0.592,0.48-0.321,0.351,0.121c-0.867,1.183,0.046,2.117-0.563,3.339c0.166,2.268-0.628,4.255-0.093,6.381l-0.231,0.032
						c-0.119,0.31,0.037,0.401,0.046,0.731l-0.064-0.011c-0.119,0.775,0.074,1.726-0.056,2.169l0.259,0.039
						c0.002,0.463-0.211,0.232-0.083,0.712l-0.13-0.019l0.223,0.562c-0.452-0.07-0.093,1.304-0.313,1.667
						c0.056,0.601,0.203,1.744,0.073,2.647c-0.241,0.16-0.286,1.273-0.435,1.978c-0.001,1.383-0.01,3.36-0.167,5.115l0.296-0.021
						v0.46c-0.064-0.008-0.102,0.052-0.13-0.019c-0.351,0.343,0.058,1.063-0.166,1.424c0.277-0.222,0.056-0.319,0.074-0.581
						c0.156-0.372,0.426-0.001,0.258,0.501l-0.064-0.012l0.14,0.352c-0.231,0.03-0.352,0.342-0.582,0.375
						c-0.012,1.511,0.33,2.546,0.146,4.096c-0.248-0.17,0.012,1.119-0.418,0.789c0.122,0.939,0.367-0.14,0.662,0.299
						c-0.021,0.26,0.09,0.539-0.078,0.579c-0.101-0.126-0.281,0.201-0.313-0.013l0.005,0.624c-0.038,0.058-0.093-0.082-0.119-0.151
						c0.197,1.279-0.4,2.237-0.194,3.386c0.156,0.091,0.066-0.449,0.225-0.359c0.271,1.16-0.339,0.998-0.159,2.078l-0.212-0.231
						c0.137,0.351,0.32,0.511,0.114,1.07c-0.269,0.086-0.191-0.491-0.301-0.771c-0.029,0.389-0.009,1.377,0.243,1.088
						c0.063,0.471-0.179,0.63-0.262,0.878c0.063,0.012,0.195-0.427,0.304-0.147c-0.178,0.627-0.22,1.609-0.28,2.385
						c-0.064-0.01-0.166,0.039-0.194-0.031C112.76,99.014,112.178,98.917,112.21,99.778z"/>
					<path style="fill:#292627;" d="M110.829,141.32l0.063-0.312c-0.058-0.005-0.123-0.023-0.177-0.174L110.829,141.32z"/>
					<path style="fill:#292627;" d="M112.073,126.438c-0.018-0.04-0.034-0.08-0.063-0.118
						C112.017,126.397,112.044,126.425,112.073,126.438z"/>
					<path style="fill:#292627;" d="M111.854,122.79c0.039,0.262,0.124,0.036,0.199-0.085
						C112.002,122.695,111.938,122.696,111.854,122.79z"/>
					<path style="fill:#292627;" d="M110.895,149.81c-0.021-0.056-0.053-0.092-0.108-0.087
						C110.828,149.8,110.862,149.818,110.895,149.81z"/>
					<path style="fill:#292627;" d="M109.043,173.104c0.015-0.028,0.027-0.054,0.046-0.09
						C109.069,173.03,109.054,173.063,109.043,173.104z"/>
					<path style="fill:#292627;" d="M109.544,171.848c0.006-0.063,0.003-0.146-0.019-0.266
						C109.503,171.696,109.519,171.78,109.544,171.848z"/>
					<path style="fill:#292627;" d="M111.219,144.149c-0.002-0.088-0.016-0.174-0.064-0.252
						C111.15,144.031,111.183,144.102,111.219,144.149z"/>
					<path style="fill:#292627;" d="M109.486,171.309l0.051-0.322c-0.017-0.004-0.029-0.006-0.05-0.01L109.486,171.309z"/>
					<path style="fill:#292627;" d="M108.981,173.512c0.018-0.127,0.03-0.3,0.062-0.407
						C108.961,173.26,108.95,173.389,108.981,173.512z"/>
					<path style="fill:#292627;" d="M110.612,158.395c-0.004-0.011-0.002-0.023-0.004-0.036
						C110.514,158.097,110.55,158.259,110.612,158.395z"/>
					<polygon style="fill:#292627;" points="109.141,169.849 109.154,169.806 109.089,169.705 					"/>
					<path style="fill:#292627;" d="M108.78,174.906c-0.001-0.062-0.009-0.119-0.035-0.165c-0.012,0.05-0.026,0.107-0.044,0.182
						C108.736,174.908,108.76,174.904,108.78,174.906z"/>
					<path style="fill:#292627;" d="M109.862,163.242c0.091,0.1,0.154,0.14,0.203,0.147
						C110.07,163.28,110.031,163.208,109.862,163.242z"/>
				</g>
			</g>
		</g>
	</g>
</g>
<g>
	<g>
		<g>
			<g>
				<g>
					<path style="fill:#292627;" d="M124.098,129.217c-0.006,0.036-0.004,0.076,0.012,0.125
						C124.123,129.283,124.116,129.244,124.098,129.217z"/>
					<path style="fill:#292627;" d="M141.32,121.971l-0.17,0.146C141.273,122.047,141.314,122.005,141.32,121.971z"/>
					<path style="fill:#292627;" d="M114.351,134.26c0.008-0.017,0.004-0.023,0.007-0.038c-0.142,0.094-0.332,0.221-0.641,0.426
						L114.351,134.26z"/>
					<path style="fill:#292627;" d="M175.421,100.28l-0.193,0.173C175.316,100.378,175.383,100.337,175.421,100.28z"/>
					<path style="fill:#292627;" d="M155.865,114.194c0.035-0.082,0.13-0.166,0.225-0.246
						C155.955,114.026,155.857,114.104,155.865,114.194z"/>
					<path style="fill:#292627;" d="M108.102,135.837l0.354-0.09C108.404,135.694,108.268,135.714,108.102,135.837z"/>
					<path style="fill:#292627;" d="M101.04,145.094c0.016-0.001,0.026,0.003,0.05-0.004
						C101.086,145.067,101.064,145.076,101.04,145.094z"/>
					<path style="fill:#292627;" d="M104.205,141.846c0.047-0.084,0.094-0.189,0.141-0.296
						C104.266,141.658,104.157,141.793,104.205,141.846z"/>
					<path style="fill:#292627;" d="M104.408,141.404c-0.021,0.047-0.042,0.097-0.063,0.146
						C104.395,141.48,104.433,141.422,104.408,141.404z"/>
					<path style="fill:#292627;" d="M114.238,7.208c-0.33,0.019-0.602,0.171-0.889,0.301L114.238,7.208z"/>
					<path style="fill:#292627;" d="M191.264,66.477l0.069,0.077C191.312,66.483,191.287,66.47,191.264,66.477z"/>
					<path style="fill:#292627;" d="M113.944,8.727l-0.233-0.017C113.798,8.731,113.874,8.734,113.944,8.727z"/>
					<path style="fill:#292627;" d="M112.761,131.712c0.182-0.338,0.887-0.528,0.791-0.666
						C113.264,131.261,112.76,131.42,112.761,131.712z"/>
					<path style="fill:#292627;" d="M184.564,59.223l-0.041-0.203C184.537,59.118,184.55,59.178,184.564,59.223z"/>
					<path style="fill:#292627;" d="M113.944,8.727l0.271,0.02c-0.025-0.03-0.057-0.052-0.086-0.078
						C114.071,8.697,114.01,8.718,113.944,8.727z"/>
					<path style="fill:#292627;" d="M181.262,28.907l0.007,0.011c0.024,0.02,0.043,0.034,0.068,0.054L181.262,28.907z"/>
					<path style="fill:#292627;" d="M180.289,26.948c0.103,0.114,0.201,0.226,0.313,0.35
						C180.475,27.085,180.376,26.996,180.289,26.948z"/>
					<path style="fill:#292627;" d="M113.35,7.509l-0.507,0.171C113.028,7.647,113.191,7.581,113.35,7.509z"/>
					<path style="fill:#292627;" d="M162.354,12.701c0.068,0.025,0.134,0.049,0.196,0.072
						C162.472,12.731,162.407,12.708,162.354,12.701z"/>
					<path style="fill:#292627;" d="M154.523,114.959c-0.049,0.014-0.111,0.044-0.168,0.066
						C154.361,115.068,154.386,115.085,154.523,114.959z"/>
					<polygon style="fill:#292627;" points="164.124,102.766 164.127,102.763 164.125,102.76 					"/>
					<path style="fill:#292627;" d="M163.608,103.396c0.221-0.114,0.436-0.419,0.516-0.631
						C163.923,102.911,163.755,103.076,163.608,103.396z"/>
					<path style="fill:#292627;" d="M165.545,101.842c-0.029,0.013-0.053,0.023-0.087,0.038
						C165.492,101.87,165.52,101.858,165.545,101.842z"/>
					<path style="fill:#292627;" d="M152.45,110.674c0.003,0.004,0.005,0.011,0.01,0.015c0-0.008,0-0.012-0.001-0.019
						L152.45,110.674z"/>
					<path style="fill:#292627;" d="M155.011,108.93c0.064-0.005,0.141-0.027,0.219-0.062
						C155.168,108.871,155.094,108.891,155.011,108.93z"/>
					<polygon style="fill:#292627;" points="171.145,96.675 171.148,96.683 171.158,96.67 					"/>
					<path style="fill:#292627;" d="M183.855,72.762c-0.13,0.663-0.254,1.379-0.377,2.124c-0.149,0.736-0.188,1.537-0.442,2.271
						c-0.453,1.483-0.792,3.026-1.479,4.203c0.068,0.675-0.286,1.469-0.579,2.295l-0.446-0.129l-0.236,0.692
						c-0.272,0.185,0.208-0.519-0.21-0.156l0.11,0.372c-0.175-0.029-1.037,1.539-0.708,0.334c0,0-1.397,2.404-1.469,2.365
						c-0.376,0.494,0.101,0.512-0.397,1.005c-0.19,0.034,0.071-0.255-0.097-0.304c-0.742,0.732-0.907,1.343-1.061,1.965
						c-0.193,0.593-0.377,1.19-1.099,1.867l0.063-0.167c-0.126,0.333-0.555,0.805-0.511,0.855c0.512,0.116,0.043-0.435,0.642-0.709
						c0.26,0.296-0.334,0.708-0.086,0.875c-0.409,0.258-0.424,0.614-0.674,0.94c-0.667,0.327-1.257,1.15-1.843,1.304
						c-0.154,0.327-0.158,0.871-0.671,1.403c-0.586,0.145-0.102-0.291-0.707,0.112l0.066,0.243
						c-0.471,0.362-0.442,0.254-0.497,0.161c-0.484,0.405-0.191,0.576-0.886,0.986l0.188-0.455c-0.385,0.449-0.59,0.576-1.217,1.095
						c-0.069-0.111,0.182-0.319,0.386-0.446c-0.549,0.033-0.477,0.606-0.682,0.736c0.114,0.031,0.57-0.306,0.504,0.047
						c-0.33,0.234-0.455,0.809-0.862,0.772l0.213-0.444c-0.559,0.661-0.182,0.5-1.009,1.029c0.03-0.046-0.024-0.074-0.036-0.125
						c-0.313,0.607-1.115,0.894-1.85,1.435l0.101-0.155c-0.246,0.287-0.286,0.573-0.453,0.683c0.49-0.214,0.417-0.074,0.584,0.073
						c-0.765,0.124-0.609,0.984-1.668,1.485c-0.061-0.115,0.071-0.405,0.409-0.48c0.093-0.541-0.06-0.832,0.403-1.389
						c-0.302,0.327-0.687,0.673-0.693,0.478l0.1,0.369c-0.208,0.162-0.391,0.268-0.553,0.385c0.041,0.248,0.651-0.016,0.242,0.464
						c-0.493,0.5-0.514-0.08-0.507,0.113c-0.688,0.673-0.094,0.541-0.905,0.983c0.057-0.078,0.164-0.232,0.249-0.251
						c-0.616,0.268-1.27,0.998-1.677,0.763c0.022-0.136-0.038-0.251,0.185-0.366l0.031,0.058c0.402-0.675-0.439,0.422-0.483-0.023
						c0.176,0.158-0.602,0.656-0.964,0.866l0.261,0.137c-0.663,1.45-0.242-0.468-1.291,0.417c-0.603,0.648,0.309-0.13-0.016,0.33
						c-0.506,0.298-0.819,0.23-1.454,0.814c-0.255,0.052-0.732,0.214-0.934-0.004c-0.357,0.395-1.365,0.794-1.443,1.198
						c0.867-0.305,0.548-0.76,1.615-1.039l-0.075,0.402c-0.596,0.398-1.267,1.045-1.731,1.243c0.113-0.011,0.192,0.024,0.175,0.111
						c-0.775,0.682-0.858,1.078-1.735,1.547c-0.255-0.148,0.254-0.428,0.592-0.678c-0.648,0.174-0.563,0.353-1.437,0.823
						c-0.17-0.164,0.563-0.354,0.533-0.604l-0.871,0.659c-0.004-0.014-0.017-0.024-0.026-0.039c0.077,0.409-0.714,0.429-1.209,0.892
						c-1.326,0.853-1.274,1.377-1.866,2.103c-0.256,0.031-0.364-0.018-0.328-0.152c0.42-0.051,0.292-0.132,0.356-0.286
						c-0.438,0.307-1.188,0.27-1.013-0.017c-0.664,0.526,0.362,0.02-0.019,0.387c0,0-0.251,0.143-0.502,0.284
						c-0.247,0.147-0.508,0.272-0.508,0.272c0.216,0.108,0.599-0.048,0.141,0.367c-0.42,0.285-0.654,0.367-1.246,0.668
						c0.039-0.131-0.324-0.166,0.118-0.389c-0.316,0.086-0.759,0.312-0.839,0.571c0.721-0.184-0.97,0.71-0.354,0.728
						c0,0-0.18,0.046-0.36,0.092c-0.184,0.042-0.367,0.083-0.367,0.083c0.15-0.071,0.111-0.192,0.345-0.272
						c-0.317-0.169-0.498,0.343-0.714,0.483c-0.258,0.063-0.869,0.336-0.971,0.258c-0.17,0.176-0.706,0.369-0.869,0.279
						c-0.282,0.206,0.062,0.187,0.015,0.318l-1.063,0.497c-0.127-0.121-0.417-0.491-0.284-0.624
						c-0.335,0.333,0.069,0.508-0.545,0.788c0.209-0.455-0.911,0.168-0.572-0.42c-0.451-0.043-1.441,0.447-1.951,0.788
						c-0.229,0.392,0.655-0.157,0.734,0.094c-1.496,0.831-1.278,1.515-2.46,1.96l0.326-0.08c-0.641,0.479-0.574,0.41-0.888,0.811
						c0.054-0.386-1.182-0.386-2.307,0.245c-0.026,0.193,0.783-0.041,0.709,0.281l-0.746,0.421c-0.067,0.005-0.007-0.085,0.073-0.17
						c-0.637,0.44-1.467,0.254-1.497,0.69c0,0-0.228-0.021-0.455-0.04c-0.229-0.018-0.449-0.044-0.45-0.044l0.363,0.049
						c-0.034,0.2-0.746,0.582-0.878,0.716c-0.684,0.521-1.055,0.515-1.562,0.519c0.19,0.062,0.656,0.188,0.054,0.508
						c-0.198-0.482-1.399,0.396-1.489,0.14c-0.253,0.117-0.771,0.163-0.713,0.375l-0.087-0.317c0.121,0.441-0.822,0.835-1.505,1.223
						c-0.09-0.639-0.766,0.393-1.314,0.029c0.04,0.444-1.203,0.732-1.177,1.114c-0.537,0.283-0.651-0.095-0.848-0.148l-0.187,0.265
						c-0.36-0.037-1.411,0.418-2.074,0.628l-0.394,0.623l-0.287-0.04c-0.045,0.131-0.486,0.423-0.132,0.394l-0.314,0.14
						c0.168,0.369-0.375,0.313-0.886,0.812c-0.169,0.022-0.18-0.083-0.076-0.204c-0.301,0.167-0.274-0.087-0.504-0.112
						c0.259-0.028-0.711,1.241,0.18,0.942c0.136,0.113-0.268,0.481-0.592,0.584l-0.361-0.212l-0.151,0.528
						c-0.414,0.323-0.724,0.244-1.104,0.436c0.353-0.249,0.455-1.113-0.499-0.501c0.479-0.357,0.621-0.687,0.844-0.917
						c-0.206,0.114-0.325,0.147-0.093-0.182c-0.698,0.573-0.137,0.35-0.858,0.858c-0.131-0.301-0.396-0.257-1.112,0.063l0.619-0.108
						c-0.002,0.048-0.02,0.094-0.047,0.134c0.205-0.088,0.284-0.078,0.391,0.003c-0.15,0.091-0.645,0.883-0.875,0.795
						c1.008-0.068-1.054,1.187-0.412,1.131c-0.029,0.135-0.513,0.499-0.658,0.402c0.456-0.621-0.663,0.014-0.701-0.237
						c-0.169,0.233,0.612-0.136,0.383,0.177c-0.343,0.268-0.724,0.29-0.984,0.35l0.114-0.154c0,0-0.16,0.068-0.32,0.138
						c-0.156,0.076-0.312,0.152-0.312,0.152c0.012,0.198,0.682-0.188,0.243,0.267c-0.171,0.048-0.608,0.504-0.672,0.39
						c0.095-0.362-0.258-0.461,0.131-0.839c-0.337,0.296-1.426,1.21-0.785,1.09l-0.422,0.32c0.35-0.102,1.226-0.482,0.428,0.208
						l-0.033-0.057l-0.415,0.646c0,0-0.353,0.077-0.354,0.077c0.061,0.057,0.025,0.191-0.18,0.37
						c-0.116-0.026-0.332,0.116-0.402,0.004c-0.577,0.546-0.417,0.624-0.429,0.763c-0.31,0.313-0.479,0.374-0.457,0.096
						c-0.236,0.19-0.553,0.462-0.843,0.727c-0.282,0.272-0.56,0.518-0.765,0.608c-0.456,0.693,0.164-0.073-0.005,0.425
						c-0.445,0.059-0.957,0.51-1.449,1.08c-0.456,0.605-0.896,1.321-1.285,1.862c0.618,0.021-0.183,0.318,0.027,0.777
						c0.036-0.333-1.05,0.789-0.48-0.236c-0.015-0.011-0.366,0.614-0.366,0.614c-0.502,0.246,0.503-1.097-0.222-0.708
						c-0.441,0.688-0.282,1.431-0.957,2.117c-0.121-0.453-0.306,0.67-0.503,0.269c0.001-0.231,0.181-0.433,0.307-0.673l-0.15,0.102
						c-1.062,1.44,0.054,0.64-0.195,1.563c-0.465,0.964-0.641,0.611-0.816,0.586c-0.14,0.117-0.349,0.625-0.4,0.917
						c0.121-0.684,0.768-0.97,0.82-0.597c-0.575,0.226-0.776,1.389-0.767,1.706c1.09-1.147,0.515-0.924,1.579-1.951
						c-0.013-0.229-0.36-0.393,0.198-1.051c-0.135,0.539,0.188,0.069,0.324-0.022c-0.268,0.028,0.251-0.533,0.322-0.795
						c0.27-0.103,0.123,0.678,0.662,0.018l-0.316-0.402c0.246-0.238,0.217,0.316,0.515-0.34c-0.003,0.461,0.386,0.13-0.074,0.963
						c0.97-0.702,0.752-1.582,1.193-2.372c-0.032,0.089,0.013,0.137-0.018,0.226c0.017-0.226,0.238-0.488,0.38-0.711
						c0.453-0.387-0.117,0.497,0.084,0.461l0.578-0.741c0.024-0.004,0.034-0.002,0.042,0.005c0.104-0.235,0.218-0.448,0.364-0.438
						c-0.057,0.32-0.001,0.51-0.02,0.735l0.359-0.98c0.047,0.183,0.762-0.4,0.372,0.179l0.941-1.09l0.321,0.139
						c0.193-0.288,0.154-0.341-0.158-0.07c0.196-0.151,0.468-0.646,0.729-1.027c0.276-0.364,0.549-0.601,0.672-0.28
						c0.663-0.942,1.002-1.18,1.96-2.171c-0.631,0.887,1.187-0.452,0.404,0.347c0.598-0.291,0.48-0.651,0.85-1.015
						c0.464-0.189,0.489,0.201,0.162,0.615l0.381-0.494l0.031,0.059l0.301-0.476c0.56-0.186,0.293,0.194,0.789-0.101l-0.067-0.308
						l0.419-0.087c-0.197-0.024,0.048-0.269,0.38-0.529l0.029,0.059l0.386-0.34c-0.313,0.438,0.416-0.215,0.343,0.091
						c0.36-0.242,0.376-0.234,1.01-0.703l-0.225-0.094c0.778-0.693,0.195,0.227,0.906-0.202l-0.164-0.166
						c1.201-0.324,1.637-1.231,2.528-1.464c-0.416,0.299-0.173,0.466-0.195,0.403c0.612-0.463,1.737-0.991,2.316-1.598
						c0.41,0.163,0.511,0.211,1.303-0.019c0.521-0.275,0.585-0.343,0.675-0.6c0.569-0.135,1.453-0.775,1.586-0.563
						c0.041-0.228,0.484-0.179,0.704-0.457l0.103,0.061l-0.141-0.187c1.133,0.039,1.454-0.973,2.579-0.98l-0.138,0.128l0.361-0.257
						c0.104,0.063-0.034,0.191-0.001,0.318l1.877-0.768l-0.436,0.001c0.383-0.189,0.559-0.508,1.068-0.579
						c-0.614,0.645,0.631-0.264,0.859-0.076l-0.368,0.261c0.545-0.264,0.545-0.264,0.405-0.453c0.687-0.401,0.681,0.165,1.247-0.372
						l-0.483,0.216c-0.196-0.055,0.066-0.386,0.386-0.529c0.09-0.004,0.36-0.02,0.131,0.12c0.529-0.347,1.381-0.643,1.585-0.843
						c0.326-0.08,0.303,0.113,0.17,0.245c1.074-0.752,0.545-0.219,1.623-0.973l0.037,0.127l0.332-0.336l0.692-0.033l-0.279-0.051
						c0.371-0.209,0.57-0.409,1.05-0.562l-0.096,0.261c1.03-0.627,1.391-0.321,2.303-1.063c0.086-0.003-0.047,0.131-0.116,0.197
						c0.823-0.734,0.872-0.04,1.672-0.838c-0.031,0.087,0.108,0.108,0.096,0.176l0.383-0.324l0.08,0.25l0.189-0.517l0.386,0.11
						l0.116-0.195c0.684,0.226,1.188-0.448,1.996-0.43l-0.257-0.239c0.661-0.715,1.63-1.063,2.663-1.453
						c1.029-0.394,2.138-0.763,3.034-1.437l0.094,0.246l0.638-0.735c0.527-0.075-0.144,0.343,0.056,0.38
						c0.775-0.628,0.16-0.541,1.104-1.19c0.592-0.149-0.076,0.269-0.266,0.489c0.428-0.329,0.962-0.728,1.479-1.075
						c0.507-0.359,0.984-0.683,1.34-0.825c-0.004-0.04,0.01-0.104-0.03-0.095c0.526-0.486,1.369-0.899,2.013-1.342
						c0.05,0.11-0.101,0.232-0.248,0.359c0.242-0.141,0.609-0.283,0.741-0.516l-0.119,0.348c0.537-0.285,1.341-1.121,1.604-0.976
						c-0.116-0.042-0.202-0.22,0.224-0.503c0.459,0.164,1.048-0.938,1.843-1.233c-0.026,0.135-0.508,0.496-0.366,0.403
						c0.397-0.15,0.595-0.516,0.82-0.823l0.001,0.194l1.435-1.283c0.459,0.157,1.42-1.102,1.484-0.79
						c0.559-0.387-0.564,0.192,0.105-0.35c0.283,0.001,0.582-0.521,0.704-0.289l-0.057,0.078l0.475-0.368l-0.157,0.428
						c0.387-0.349,0.545-0.777,0.452-0.95c0.481-0.172,0.977-0.675,1.293-0.617l-0.11,0.156c1.056-0.891,2.261-0.757,2.891-1.807
						c0.087-0.021,0.118,0.035-0.022,0.14l0.705-0.522l-0.048,0.279l0.968-1.121l0.066,0.114c0.809-0.52,1.908-1.563,2.816-2.412
						l-0.1,0.168c0.891-1.041,1.072-0.767,1.725-1.526c-0.003,0.049-0.02,0.081-0.041,0.11c0,0,0.165-0.152,0.322-0.313
						c0.159-0.16,0.318-0.319,0.318-0.319l-0.056,0.232c0.28-0.67,1.612-1.085,1.154-0.964c0.183-0.354,0.536-0.917,0.5-1.107
						c0.685-0.7,0.29-0.052,0.801-0.405c0.513-0.496,0.406-0.768,1.134-1.415l0.085,0.101c0.279-0.358,0.395-0.633,0.792-1.124
						l-0.076,0.183c0.451-0.961,1.163-0.715,1.2-1.723c0.34-0.286,0.76-1.002,0.945-0.814c0.313-0.575,0.6-1.076,0.891-1.57
						c0.3-0.488,0.588-0.981,0.856-1.573c0.467,0.051,0.117-0.25,0.723-0.794l-0.225-0.069c0.435-0.797,1.093-1.543,1.647-2.388
						c0.538-0.854,1.083-1.746,1.466-2.687l0.234,0.038l-0.062-0.468c0.493-0.976,0.888-2.171,1.328-3.291
						c0.198-0.566,0.442-1.108,0.569-1.638c0.129-0.53,0.248-1.02,0.351-1.444c0.012-0.587-0.067-1.486,0.211-2.348l0.011,0.099
						c0.177-1.563,0.197-3.211,0.554-4.887c0.084,0.112,0.172-0.05,0.211,0.145c-0.186-0.423,0.069-0.996,0.079-1.36l-0.182,0.416
						c-0.206-0.495,0.019-1.171,0.191-1.411l-0.229-0.769c0.024-0.05,0.061-0.127,0.098-0.136l-0.118-0.137l0.311-0.401
						c-0.058-0.191-0.115-1.199-0.398-1.507c0.117-0.076,0.155-0.781,0.238-0.238l-0.103-2.758l-0.076,0.438
						c-0.225,0.066-0.43-0.744-0.355-1.178c0.225,0.543,0.328,0.021,0.479-0.235c-0.15-0.365-0.178,0.343-0.317,0.156
						c-0.188-0.458-0.338-1.436-0.254-1.695l0.111,0.27c-0.138-0.625,0.181-0.956,0.074-1.575c-0.271-0.531-0.166-0.965-0.538-0.792
						c-0.206-0.787,0.216-0.348,0.213-0.614c-0.245-0.349-0.304-1.486-0.13-1.667c-0.32-0.168-0.352-0.717-0.376-1.233
						c-0.055-0.507-0.091-0.984-0.347-1.013l0.115-0.703c-0.133,0.007-0.448-0.057-0.624-0.566c0.021-0.521,0.269-0.457,0.363-0.637
						l-0.549-0.217c-0.043-0.737-0.152-1.52-0.298-2.329c-0.153-0.806-0.419-1.609-0.649-2.436c-0.499-1.637-0.941-3.338-1.3-4.888
						c-0.6-1.287-1.44-2.865-1.963-4.425l0.122,0.148c0,0-0.115-0.395-0.23-0.789c-0.116-0.395-0.238-0.792-0.238-0.792
						s0.063,0.302,0.116,0.6c0.055,0.298,0.109,0.596,0.109,0.596c-0.18-0.312-0.365-0.537-0.481-0.861
						c-0.549-1.787-1.409-4.239-2.901-6.082c-1.256-0.985-0.129-1.123-1.293-2.093c0.113,0.072,0.203,0.063,0.313,0.124
						c-1.039-1.19-1.685-1.773-2.916-2.762c0.536-0.231-0.69-0.74-0.381-0.831l-0.253,0.057c-0.13-0.347-0.646-0.984-0.453-1.009
						l-0.685-0.291l0.12-0.204c-0.32-0.324-0.865-0.794-1.333-1.265c-0.489-0.445-0.904-0.894-0.936-1.229
						c-1.933-1.229-4.741-3.365-7.144-4.816c-0.438-0.026-1.158-0.404-1.725-0.69c0,0-0.117-0.142-0.234-0.283
						c-0.121-0.136-0.242-0.271-0.242-0.271c-0.621-0.211-1.384-0.2-1.847-0.621c0.018-0.026,0.049-0.037,0.093-0.033
						c-0.613-0.23-1.13-0.598-1.786-0.612c-0.645-0.306-1.235-0.691-0.938-0.846c-0.233,0.397-1.39-0.608-1.39-0.608
						s-0.526-0.238-1.485-0.583c-0.952-0.371-2.337-0.845-4.04-1.376c-3.407-1.036-8.122-2.093-13.142-2.686
						c-5.019-0.589-10.325-0.744-14.881-0.464c-4.558,0.259-8.363,0.905-10.455,1.682c-0.271,0.246-1.054,0.454-0.729,0.696
						c-0.604,0.132-0.919-0.241-1.019-0.008c0.844,0.083-0.206,0.6,0.628,0.814l-0.515,0.096c-0.094,0.168,0.691-0.236,0.588,0.063
						l0.111-0.43c0.427,0.03,0.665,0.1,0.825,0.229c0.382-0.191,0.593-0.79,1.56-0.601l-0.26,0.041
						c0.771-0.062,0.49,0.242,0.655,0.301l-0.17,0.007l0.662,0.172c-0.501-0.111-1.289,0.278-0.865,0.228
						c0.925,0.062-0.244-0.087,0.439-0.18c0.426-0.047,0.32,0.184,0.309,0.314l0.766-0.063c-0.017,0.196-0.508,0.021-0.186,0.203
						l0.952-0.265c0.204,0.485,1.04-0.283,1.502,0.164c-0.688,0.146,0.069,0.163-0.034,0.328l1.695-0.093
						c0.162,0.065-0.44,0.163-0.185,0.132c0.323,0.129,0.521-0.132,0.692-0.133c0.15,0.132,1.267-0.035,1.227,0.293
						c1.151,0.193,0.477-0.423,1.552-0.246c0.143,0.199-0.851,0.051-0.374,0.254l1.109-0.078c-0.1,0.097-0.215,0.322-0.631,0.282
						c3.006,0.247,4.575,1.349,7.289,1.209c0.368,0.26-0.282,0.139-0.561,0.283c1.975-0.2,2.716,0.675,4.364,0.797l0.046-0.192
						c2.241,0.813,5.035,0.77,7.547,1.477l-0.282-0.186c0.382-0.124,0.96-0.062,1.392-0.058c0.047,0.11-0.377,0.351,0.374,0.416
						c-0.139-0.098-0.438-0.231-0.327-0.306c2.104,0.865,6.68,1.813,9.985,3.25c2.312,0.727,4.634,1.728,6.807,2.92
						c2.177,1.191,4.215,2.54,6.094,3.875c-0.565-0.417-0.045-0.624,0.313-0.206c0.654,1.513,2.066,1.473,2.775,2.898
						c2.129,1.674,3.1,3.918,4.971,5.602l-0.164,0.167c0.111,0.366,0.291,0.367,0.515,0.684l-0.061,0.025
						c0.199,0.413,0.504,0.816,0.761,1.195c0.242,0.387,0.46,0.734,0.534,0.992l0.246-0.091c0.276,0.474-0.046,0.341,0.35,0.77
						l-0.124,0.043l0.491,0.489c-0.446,0.15,0.617,1.39,0.582,1.941c0.342,0.671,1.035,1.938,1.357,3.038
						c-0.143,0.282,0.358,1.588,0.565,2.459c0.604,1.617,1.389,3.955,1.969,6.071l0.276-0.117l0.15,0.551
						c-0.064,0.009-0.08,0.093-0.13,0.017c-0.223,0.514,0.403,1.253,0.309,1.75c0.192-0.342-0.052-0.398-0.12-0.715
						c0.027-0.49,0.407-0.125,0.412,0.526l-0.065,0.004l0.25,0.383c-0.213,0.101-0.226,0.507-0.437,0.607
						c0.24,0.903,0.546,1.643,0.805,2.4c0.213,0.761,0.407,1.538,0.504,2.496c-0.285-0.156,0.281,1.354-0.22,1.036
						c0.347,1.113,0.326-0.237,0.723,0.241c0.043,0.32,0.22,0.641,0.064,0.719c-0.13-0.136-0.228,0.292-0.311,0.038
						c0.015,0,0.142,0.756,0.125,0.757c-0.03,0.077-0.104-0.084-0.139-0.165c0.365,1.528-0.097,2.765,0.267,4.134
						c0.168,0.097,0.004-0.553,0.174-0.458c0.227,0.695,0.16,1.009,0.058,1.305c-0.092,0.298-0.195,0.581-0.094,1.23l-0.216-0.27
						c0.144,0.416,0.331,0.606,0.139,1.29c-0.267,0.111-0.204-0.589-0.319-0.92c-0.021,0.468,0.024,1.658,0.27,1.306
						c0.074,0.571-0.163,0.765-0.239,1.063c0.063,0.016,0.184-0.516,0.3-0.177c-0.159,0.762-0.358,1.92-0.474,2.846
						c-0.063-0.017-0.168,0.035-0.19-0.05C184.473,71.902,183.907,71.742,183.855,72.762z"/>
					<path style="fill:#292627;" d="M152.094,110.859l0.356-0.186c-0.031-0.049-0.053-0.115,0.065-0.27L152.094,110.859z"/>
					<path style="fill:#292627;" d="M167.747,99.879c0.025-0.046,0.053-0.091,0.068-0.143
						C167.746,99.805,167.738,99.848,167.747,99.879z"/>
					<path style="fill:#292627;" d="M170.922,96.612c-0.206,0.253,0.058,0.117,0.223,0.063
						C171.115,96.631,171.066,96.589,170.922,96.612z"/>
					<path style="fill:#292627;" d="M143.124,116.76c0.052-0.054,0.075-0.104,0.04-0.148
						C143.101,116.696,143.098,116.737,143.124,116.76z"/>
					<path style="fill:#292627;" d="M115.69,129.875c0.041-0.009,0.077-0.017,0.128-0.028
						C115.788,129.843,115.744,129.854,115.69,129.875z"/>
					<path style="fill:#292627;" d="M117.39,129.377c0.073-0.041,0.163-0.103,0.285-0.206
						C117.534,129.234,117.449,129.308,117.39,129.377z"/>
					<path style="fill:#292627;" d="M149.413,113.244c0.091-0.064,0.173-0.136,0.225-0.231
						C149.495,113.105,149.441,113.181,149.413,113.244z"/>
					<path style="fill:#292627;" d="M117.956,128.944l0.396-0.175c-0.006-0.017-0.008-0.03-0.018-0.049L117.956,128.944z"/>
					<path style="fill:#292627;" d="M115.201,130.125c0.147-0.087,0.35-0.196,0.489-0.25
						C115.467,129.921,115.314,130.003,115.201,130.125z"/>
					<path style="fill:#292627;" d="M133.297,121.948c0.011-0.011,0.025-0.017,0.038-0.026
						C133.581,121.676,133.417,121.81,133.297,121.948z"/>
					<polygon style="fill:#292627;" points="119.422,127.671 119.479,127.653 119.558,127.53 					"/>
					<path style="fill:#292627;" d="M113.552,131.046c0.066-0.05,0.125-0.1,0.158-0.156c-0.062,0.029-0.134,0.063-0.227,0.106
						C113.521,131.013,113.54,131.027,113.552,131.046z"/>
					<path style="fill:#292627;" d="M127.453,124.223c-0.07,0.137-0.085,0.216-0.07,0.263
						C127.512,124.427,127.576,124.351,127.453,124.223z"/>
				</g>
			</g>
		</g>
	</g>
</g>
</svg>
