<svg xmlns="http://www.w3.org/2000/svg" viewBox="0 0 185.583 84.496">
  <path fill="#171314" d="M24.558 2.163c-7.868.005-15.267.11-19.736 7.48C-1.28 19.706.608 34.408.176 45.633-.246 56.556-.44 69.895 6.1 79.27c1.884 2.698 5.212 4.19 8.394 4.582 2.568.315 5.13.327 7.714.315 2.424-.01 1.375-.567 3.503-1.61.58-.282.08-1.145-.5-.862-2.85 1.397-5.07 1.534-8.28 1.398-6.45-.27-10.16-3.46-12.61-9.312C.48 64.61.86 53.84 1.24 44.1c.382-10.047-.328-20.62 2.8-30.3C7.25 3.868 15.54 3.17 24.557 3.165c.644 0 .644-1 0-1z"/>
  <path fill="#171314" d="M43.438 4.155C26.78 3.083 23.88 22.305 23.055 35.005c-.5 7.686-.61 15.568-.383 23.268.224 7.588 1.434 18.446 8.282 23.207 7.582 5.27 16.754 2.975 22.348-3.842 4.076-4.968 5.472-11.33 6.123-17.55 1.48-14.152 1.775-29.13-1.01-43.134-.894-4.49-2.39-10.582-6.375-13.428-1.66-1.186-3.44-1.61-5.462-1.348-2.858.374-3.19 1.035-4.03 3.53-.076.23.058.434.23.565.468.354 1.248.287 1.745.363.63.097.9-.866.266-.964-3.33-.512 2.59-2.89 4.69-2.356 2.57.654 4.19 3.243 5.3 5.44 3.32 6.56 3.85 14.72 4.29 21.918.46 7.377.33 14.797-.09 22.172-.34 5.996-.74 11.998-2.83 17.673-2.21 5.99-6.72 11.15-13.07 12.66-6.94 1.65-13.14-2.54-16.14-8.47-4.31-8.53-3.3-18.93-3.24-28.18.1-13.69-.51-42.69 19.71-41.39.64.04.64-.96 0-1zm20.006-.492c-.022 26.337-.977 52.664-1 79 0 .645 1 .645 1 0 .023-26.336.978-52.663 1-79 0-.645-1-.645-1 0z"/>
  <path fill="#171314" d="M63.462 3.545c2.516 13.47 7.006 26.462 9.816 39.866 2.763 13.18 5.647 26.28 9.684 39.14.174.56.943.43.982-.13.964-13.66.272-27.36.184-41.04-.08-12.57-1.685-25.13-.958-37.7.037-.64-.963-.64-1 0-.693 12 .87 23.96.954 35.95.093 13.16.665 26.34.034 39.5-.58 1.47-.498 1.97.247 1.51-.53-1.69-1.024-3.39-1.52-5.1-1.02-3.51-1.937-7.06-2.834-10.61-1.66-6.59-3.24-13.25-4.45-19.94C72.06 30.9 67.06 17.38 64.43 3.3c-.12-.63-1.08-.36-.96.268zm20.476-.47h31c.645 0 .645-1 0-1h-31c-.645 0-.645 1 0 1z"/>
  <path fill="#171314" d="M99.106 2.663c0 15.14.414 30.266.513 45.4.04 6.37.18 12.735.12 19.104-.03 3.16-.16 6.314-.36 9.467-.1 1.453-.25 2.9-.41 4.346-.19 1.75.46 2.41.1 1.05-.17-.624-1.13-.36-.97.266.29 1.142-.22.808.63 1.72.23.256.78.155.83-.22 1.78-11.793 1.14-23.85 1.03-35.732-.15-15.136-.52-30.26-.52-45.4 0-.646-1-.646-1 0zm5.147 81.474c3.24-14.038 6.807-28.046 9.626-42.174 2.5-12.542 5.47-25.026 6.31-37.825-.92.12-.96.732-.11 1.84.39 1.687.74 3.385 1.09 5.082.7 3.438 1.29 6.9 1.86 10.363 1.15 7.008 2.08 14.054 3.06 21.087 1.89 13.53 3.95 27.1 8.18 40.128.16.51 1.06.45.98-.133-1.17-8.7-2.29-17.397-5.08-25.758-2.21-6.594-6.51-15.157-14.29-16.163-5.73-.74-14.55 3.314-9.26 9.865 2.57 3.18 7.52 2.81 10.93 1.62 5.69-1.98 9.8-8.37 13.54-12.72.42-.49-.29-1.2-.71-.71-4.978 5.79-10.786 14.7-19.57 13.07-3.388-.63-5.89-4.15-4.14-7.38 1.87-3.44 7.555-3.26 10.715-2.38 10.307 2.87 13.23 18.44 14.9 27.28.42 2.21.754 4.43 1.07 6.65.19 1.31.36 2.62.53 3.94.06.47.12.94.183 1.41.01 1.02.225.88.65-.42-2.6-8.02-4.193-16.36-5.59-24.66-3.02-17.94-4.58-36.1-8.905-53.8-.14-.57-.96-.42-.985.13-.62 13.26-3.722 26.223-6.353 39.19-2.864 14.12-6.384 28.13-9.624 42.172-.145.626.82.893.964.264zm47.287-81.63c-3.725-.827-8.237-2.223-11.602.415-3.096 2.427-4.27 6.12-4.986 9.855-1.758 9.177.01 18.736.015 27.987.006 11.536-1.51 23.87 1.166 35.196 1.05 4.443 4.397 6.53 8.574 7.647 4.21 1.126 7.893-.715 10.672-3.57.45-.46-.26-1.17-.71-.706-3.9 4.01-8.78 4.29-13.97 1.67-5.05-2.55-4.4-10.82-4.72-15.51-.59-8.61-.02-17.24-.02-25.86-.01-6.71-.82-13.38-.66-20.1.1-4.08.59-8.26 2.25-12.02 2.63-5.96 8.26-5.22 13.71-4.01.62.14.89-.82.26-.96zm-1.027-1.077c11.54-.94 23.037-.05 34.587 0 .646.002.645-.998 0-1-11.55-.05-23.048-.94-34.587 0-.638.05-.644 1.05 0 1z"/>
  <path fill="#171314" d="M166.806 1.852c.044 14.808 1.042 29.597.996 44.406-.037 12.124-.953 24.297.004 36.404.05.638 1.05.644 1 0-.925-11.698-.16-23.492-.014-35.207.19-15.206-.94-30.4-.986-45.604-.002-.64-1.002-.64-1 .01z"/>
</svg>
