<?xml version="1.0" encoding="utf-8"?>
<!-- Generator: Adobe Illustrator 16.0.0, SVG Export Plug-In . SVG Version: 6.00 Build 0)  -->
<!DOCTYPE svg PUBLIC "-//W3C//DTD SVG 1.1//EN" "http://www.w3.org/Graphics/SVG/1.1/DTD/svg11.dtd">
<svg version="1.1" id="Ebene_1" xmlns="http://www.w3.org/2000/svg" xmlns:xlink="http://www.w3.org/1999/xlink" x="0px" y="0px"
	 width="112.624px" height="112.149px" viewBox="0 0 112.624 112.149" style="enable-background:new 0 0 112.624 112.149;"
	 xml:space="preserve">
<g>
	<path d="M56.368,112.149c0,0-1.299-0.047-3.736-0.135c-0.609-0.025-1.29-0.038-2.037-0.082c-0.744-0.103-1.555-0.214-2.432-0.335
		c-0.879-0.122-1.823-0.252-2.831-0.392c-0.995-0.203-2.037-0.489-3.148-0.753c-2.249-0.443-4.603-1.382-7.207-2.29
		c-2.507-1.131-5.269-2.297-7.958-4.022c-5.452-3.282-11.093-7.985-15.807-14.311c-0.297-0.393-0.596-0.787-0.897-1.184
		c-0.306-0.394-0.606-0.793-0.855-1.231c-0.528-0.855-1.061-1.721-1.599-2.593c-0.269-0.437-0.539-0.876-0.811-1.316
		c-0.258-0.448-0.465-0.927-0.702-1.392c-0.46-0.939-0.923-1.886-1.391-2.841c-0.513-0.937-0.807-1.976-1.208-2.979
		c-0.376-1.015-0.755-2.037-1.137-3.067c-0.281-1.063-0.564-2.134-0.849-3.212c-0.278-1.08-0.612-2.158-0.743-3.285
		c-0.341-2.237-0.807-4.494-0.84-6.824C0.123,58.729,0.032,57.615,0,56.364c0.051-1.159,0.103-2.325,0.154-3.497l0.077-1.763
		c0.032-0.59,0.157-1.193,0.232-1.791c0.179-1.199,0.359-2.405,0.541-3.616c0.203-1.206,0.574-2.37,0.855-3.565
		c0.313-1.186,0.561-2.398,1.034-3.546c0.423-1.164,0.848-2.332,1.274-3.505c0.445-1.165,1.053-2.267,1.576-3.41l0.817-1.704
		c0.267-0.572,0.636-1.09,0.95-1.639c0.656-1.084,1.313-2.171,1.973-3.262c0.758-1.024,1.519-2.052,2.282-3.082
		c0.391-0.508,0.75-1.043,1.168-1.53l1.295-1.433c0.883-0.938,1.691-1.955,2.644-2.832c0.957-0.874,1.916-1.749,2.877-2.626
		C27.666,6.835,37.599,2.11,48.102,0.653c2.605-0.517,5.266-0.469,7.902-0.637l0.248-0.012C56.314,0.003,56.284-0.001,56.424,0
		l0.122,0.007l0.486,0.025l0.972,0.051l1.944,0.103l1.942,0.102c0.651,0.058,1.313,0.188,1.969,0.28l3.935,0.612
		c1.272,0.33,2.543,0.659,3.813,0.988c0.63,0.179,1.278,0.298,1.892,0.526l1.841,0.677l1.837,0.677
		c0.61,0.229,1.232,0.429,1.808,0.738c1.171,0.567,2.34,1.133,3.506,1.698c0.29,0.144,0.586,0.277,0.871,0.429l0.828,0.505
		l1.653,1.008c2.262,1.253,4.228,2.921,6.284,4.424c0.968,0.828,1.888,1.707,2.829,2.553l1.395,1.284l1.269,1.4
		c0.834,0.94,1.706,1.843,2.499,2.806c0.745,1.001,1.487,1.998,2.227,2.991c0.779,0.966,1.39,2.039,2.024,3.089
		c0.615,1.061,1.311,2.072,1.851,3.16c1.022,2.205,2.197,4.32,2.901,6.604c0.389,1.125,0.829,2.227,1.169,3.352
		c0.286,1.141,0.57,2.276,0.853,3.404c0.141,0.564,0.281,1.126,0.421,1.687c0.085,0.571,0.169,1.141,0.253,1.708
		c0.166,1.135,0.33,2.263,0.493,3.384c0.158,1.12,0.13,2.251,0.203,3.363c0.033,1.125,0.133,2.197,0.108,3.342
		c-0.122,2.171-0.13,4.295-0.485,6.427c-0.471,4.26-1.581,8.224-2.867,11.946c-2.723,7.406-6.722,13.561-10.994,18.29
		c-4.305,4.719-8.777,8.116-12.713,10.423c-0.945,0.643-1.936,1.089-2.827,1.575c-0.91,0.45-1.723,0.954-2.553,1.271
		c-1.642,0.666-2.998,1.329-4.163,1.696c-2.315,0.766-3.551,1.174-3.551,1.174s1.222-0.443,3.513-1.275
		c1.15-0.399,2.485-1.102,4.099-1.811c0.816-0.337,1.61-0.867,2.504-1.336c0.876-0.503,1.849-0.966,2.774-1.625
		c3.856-2.374,8.214-5.839,12.36-10.585c4.108-4.764,7.897-10.895,10.489-18.173c1.21-3.652,2.25-7.583,2.648-11.697
		c0.319-2.028,0.304-4.191,0.396-6.356c0.008-1.024-0.104-2.137-0.151-3.212c-0.086-1.083-0.071-2.185-0.239-3.275
		c-0.174-1.089-0.35-2.185-0.525-3.288c-0.089-0.551-0.178-1.104-0.267-1.659c-0.144-0.543-0.288-1.088-0.433-1.635
		c-0.288-1.093-0.579-2.192-0.871-3.297c-0.345-1.089-0.788-2.153-1.18-3.24c-0.715-2.205-1.879-4.245-2.869-6.382
		c-0.527-1.054-1.209-2.03-1.809-3.056c-0.62-1.016-1.214-2.055-1.976-2.987c-0.721-0.959-1.444-1.922-2.17-2.89
		c-0.772-0.929-1.623-1.799-2.435-2.707l-1.233-1.353l-1.358-1.236c-0.915-0.816-1.809-1.665-2.749-2.462
		c-2.001-1.443-3.905-3.055-6.103-4.254L83.28,9.021l-0.803-0.486c-0.276-0.146-0.563-0.273-0.845-0.411
		c-1.13-0.541-2.263-1.084-3.397-1.627c-0.557-0.297-1.159-0.486-1.751-0.705l-1.778-0.646l-1.781-0.648
		c-0.593-0.219-1.221-0.329-1.83-0.5c-1.227-0.313-2.456-0.626-3.687-0.94l-3.737-0.565c-0.627-0.085-1.239-0.211-1.878-0.265
		L59.85,2.135l-1.944-0.094l-0.973-0.047l-0.486-0.023l-0.122-0.006c0.059,0.003-0.052,0.004-0.07,0.007l-0.239,0.013
		c-2.544,0.177-5.113,0.14-7.625,0.646C38.255,3.988,28.645,8.508,20.958,14.981c-0.933,0.844-1.865,1.687-2.794,2.528
		c-0.927,0.844-1.71,1.828-2.57,2.73l-1.261,1.38c-0.408,0.469-0.756,0.987-1.136,1.477c-0.743,0.994-1.484,1.985-2.224,2.973
		c-0.643,1.054-1.284,2.104-1.923,3.151c-0.306,0.53-0.668,1.03-0.928,1.583l-0.797,1.647c-0.51,1.105-1.107,2.169-1.542,3.296
		c-0.418,1.135-0.834,2.265-1.249,3.391c-0.466,1.11-0.708,2.285-1.016,3.433c-0.277,1.154-0.646,2.292-0.844,3.445
		c-0.18,1.156-0.36,2.307-0.538,3.451c-0.081,0.576-0.21,1.134-0.25,1.721L1.785,52.95c-0.067,1.171-0.133,2.336-0.199,3.495
		c0.021,1.066,0.092,2.257,0.135,3.37c0,2.27,0.428,4.47,0.729,6.654c0.111,1.101,0.425,2.154,0.683,3.21
		c0.264,1.056,0.525,2.104,0.785,3.144c0.36,1.01,0.717,2.013,1.071,3.007c0.379,0.984,0.65,2.006,1.141,2.925
		c0.445,0.939,0.886,1.871,1.323,2.794c0.226,0.458,0.421,0.93,0.668,1.371c0.26,0.435,0.519,0.867,0.777,1.297
		c0.516,0.861,1.026,1.715,1.532,2.56c0.237,0.434,0.526,0.829,0.822,1.217c0.289,0.393,0.577,0.783,0.864,1.171
		c4.555,6.243,9.986,10.986,15.294,14.347c2.617,1.762,5.319,2.97,7.779,4.146c2.555,0.951,4.873,1.936,7.094,2.423
		c1.097,0.285,2.128,0.592,3.112,0.815c0.996,0.166,1.929,0.322,2.797,0.467c0.87,0.146,1.675,0.281,2.413,0.404
		c0.745,0.066,1.426,0.098,2.034,0.142C55.071,112.065,56.368,112.149,56.368,112.149z"/>
</g>
<g>
	<path style="fill:none;" d="M66.136,111.293"/>
</g>
<g>
	<path d="M59.729,52.518c-1.21,0.135-2.419,0.208-3.629,0.306c-1.21,0.103-2.42,0.15-3.629,0.221
		c-2.42,0.111-4.839,0.191-7.259,0.231l0.858-0.858c0.01,1.417,0.057,2.833,0.036,4.25c0,1.417-0.037,2.833-0.097,4.25l-0.217,4.25
		c-0.067,1.417-0.166,2.833-0.207,4.25l-0.374-0.374c2.42,0.091,4.839,0.083,7.259,0.034c2.419-0.054,4.839-0.179,7.259-0.291
		l0.594-0.028l0.036,0.658c0.098,1.776,0.16,3.553,0.211,5.329c0.067,1.775,0.088,3.552,0.123,5.328l0.098,5.329
		c-0.003,1.775,0.029,3.552-0.008,5.328c-0.029,1.776-0.042,3.553-0.103,5.329c-0.042,1.775-0.108,3.552-0.18,5.328l-0.276,5.329
		c-0.04,0.888-0.119,1.775-0.18,2.664c-0.063,0.888-0.129,1.776-0.215,2.664h-0.2c-0.086-0.888-0.152-1.776-0.215-2.664
		c-0.061-0.889-0.14-1.776-0.18-2.664l-0.276-5.329c-0.072-1.776-0.138-3.553-0.18-5.328c-0.06-1.776-0.073-3.553-0.103-5.329
		c-0.037-1.776-0.004-3.553-0.008-5.328l0.098-5.329c0.034-1.776,0.055-3.553,0.123-5.328c0.051-1.776,0.113-3.553,0.211-5.329
		l0.63,0.631c-2.42-0.112-4.839-0.238-7.259-0.292c-2.42-0.048-4.839-0.057-7.259,0.034l-0.362,0.014l-0.011-0.387
		c-0.041-1.417-0.139-2.833-0.207-4.25l-0.217-4.25c-0.061-1.417-0.097-2.833-0.097-4.25c-0.021-1.417,0.026-2.833,0.036-4.25
		l0.006-0.873l0.852,0.015c2.42,0.04,4.839,0.12,7.259,0.231c1.209,0.071,2.419,0.118,3.629,0.221
		c1.21,0.097,2.419,0.17,3.629,0.306V52.518z"/>
</g>
<g>
	<path d="M94.777,33.251c-0.164-1.278-0.24-2.556-0.362-3.833c-0.09-1.278-0.173-2.556-0.228-3.833
		c-0.128-2.556-0.177-5.111-0.207-7.667l0.849,0.895c-1.295-0.062-2.59-0.121-3.889-0.206c-1.297-0.08-2.595-0.239-3.893-0.315
		l-3.899-0.25l-1.953-0.079l-1.947,0.062c-1.297,0.061-2.595,0.132-3.889,0.233c-1.29,0.125-2.582,0.341-3.822,0.609
		c-1.239,0.286-2.439,0.671-3.397,1.339c-0.971,0.643-1.743,1.551-2.445,2.586c-0.71,1.024-1.357,2.141-2.003,3.264l-0.242,0.421
		l-0.03,0.053l-0.015,0.026c-0.036,0.066,0.041-0.075,0.03-0.056l-0.006,0.014l-0.051,0.111l-0.103,0.222l-0.411,0.888
		c-0.317,0.6-0.459,1.169-0.631,1.735l-0.278,0.844l-0.212,0.916c-0.142,0.611-0.292,1.218-0.383,1.847
		c-0.242,1.239-0.415,2.502-0.529,3.77c-0.156,1.267-0.182,2.511-0.226,3.836c-0.063,1.304-0.099,2.607-0.189,3.911l-0.24,3.912
		c-0.117,1.304-0.199,2.608-0.346,3.912h-0.2c-0.147-1.304-0.229-2.608-0.346-3.912l-0.24-3.912
		c-0.09-1.304-0.126-2.607-0.189-3.911c-0.051-1.282-0.1-2.649-0.021-3.981c0.075-1.333,0.21-2.663,0.422-3.991
		c0.083-0.665,0.259-1.322,0.413-1.981l0.236-0.988l0.341-1.011c0.239-0.672,0.471-1.355,0.791-1.9l0.447-0.87l0.112-0.218
		l0.056-0.108l0.069-0.122l0.033-0.052l0.263-0.416c0.702-1.108,1.407-2.225,2.232-3.311c0.813-1.075,1.833-2.143,3.122-2.825
		c1.281-0.695,2.666-0.944,3.983-1.107c2.655-0.333,5.251-0.242,7.874-0.382c1.307-0.087,2.613-0.14,3.919-0.171l3.924-0.213
		c1.309-0.062,2.617-0.093,3.927-0.108c1.309-0.019,2.618,0.028,3.929,0.094l0.858,0.043l-0.01,0.852
		c-0.03,2.556-0.079,5.111-0.207,7.667c-0.055,1.278-0.138,2.556-0.228,3.833c-0.122,1.277-0.198,2.555-0.362,3.833H94.777z"/>
</g>
<g>
	<path d="M76.89,108.196c-0.111-1.632-0.161-3.263-0.234-4.894c-0.079-1.631-0.104-3.262-0.151-4.893
		c-0.064-3.261-0.098-6.521-0.094-9.781c0.012-3.26,0.017-6.52,0.146-9.777c0.043-1.63,0.155-3.258,0.23-4.888l0.256-4.886
		l0.027-0.525l0.485,0.031c2.442,0.155,4.885,0.289,7.329,0.354c2.443,0.084,4.889,0.113,7.334,0.123l-0.364,0.323
		c0.119-1.418,0.196-2.841,0.297-4.261l0.274-4.264l0.273-4.264l0.316-4.26l0.861,0.95c-2.75,0.067-5.5,0.083-8.25,0.126
		c-2.75,0.036-5.5,0.085-8.25,0.076l-1.104-0.004l0.038-1.102c0.06-1.737,0.147-3.462,0.277-5.192
		c0.124-1.729,0.242-3.458,0.441-5.19c0.108-0.868,0.179-1.727,0.33-2.605l0.203-1.309c0.086-0.448,0.227-0.92,0.342-1.375
		l0.045-0.172l0.023-0.085l0.012-0.043l0.006-0.021l0.046-0.107l0.005-0.009l0.155-0.284c0.113-0.193,0.173-0.363,0.381-0.602
		c0.177-0.215,0.363-0.455,0.55-0.632l0.555-0.475c0.385-0.283,0.775-0.55,1.184-0.768c0.411-0.228,0.814-0.409,1.274-0.589
		l0.13-0.05l0.111,0.001l6.245,0.085c2.083,0.065,4.165,0.097,6.248,0.194l0.006,0.2c-2.076,0.205-4.153,0.343-6.23,0.515
		l-6.232,0.406l0.239-0.049c-0.331,0.162-0.703,0.363-1.03,0.581c-0.343,0.208-0.651,0.451-0.949,0.694l-0.406,0.39
		c-0.118,0.128-0.183,0.243-0.286,0.354c-0.1,0.073-0.19,0.316-0.283,0.501l-0.139,0.292l-0.005,0.009l-0.002,0.004
		c-0.01,0.023,0.078-0.182,0.041-0.093l-0.004,0.018l-0.007,0.036l-0.013,0.072l-0.027,0.144c-0.068,0.388-0.154,0.75-0.218,1.15
		l-0.143,1.256c-0.109,0.829-0.146,1.694-0.216,2.542l-0.163,2.564l-0.137,2.572l-0.227,5.147l-1.066-1.105
		c2.75-0.009,5.5,0.04,8.25,0.076c2.75,0.043,5.5,0.059,8.25,0.126l0.975,0.023l-0.113,0.926l-0.517,4.24l-0.56,4.236l-0.559,4.236
		c-0.178,1.413-0.378,2.823-0.536,4.238l-0.038,0.336l-0.326-0.014c-2.443-0.101-4.888-0.183-7.333-0.21
		c-2.444-0.047-4.891-0.023-7.338,0.021l0.513-0.494l0.117,4.892c0.028,1.631,0.096,3.262,0.092,4.892
		c0.037,3.261-0.051,6.52-0.131,9.778c-0.089,3.259-0.214,6.517-0.371,9.774c-0.095,1.629-0.165,3.258-0.29,4.886
		c-0.119,1.629-0.216,3.258-0.373,4.885L76.89,108.196z"/>
</g>
</svg>
