<?xml version="1.0" encoding="utf-8"?>
<!-- Generator: Adobe Illustrator 16.0.0, SVG Export Plug-In . SVG Version: 6.00 Build 0)  -->
<!DOCTYPE svg PUBLIC "-//W3C//DTD SVG 1.1//EN" "http://www.w3.org/Graphics/SVG/1.1/DTD/svg11.dtd">
<svg version="1.1" id="Ebene_1" xmlns="http://www.w3.org/2000/svg" xmlns:xlink="http://www.w3.org/1999/xlink" x="0px" y="0px"
	 width="60px" height="60.001px" viewBox="0 0 60 60.001" style="enable-background:new 0 0 60 60.001;" xml:space="preserve">
<circle style="fill:#010202;" cx="30" cy="30.001" r="30.001"/>
<g>
	<path style="fill:#FFFFFF;" d="M21.278,49.614V48.32c1.767-0.281,3.117-0.588,4.053-0.918c0.935-0.331,1.403-0.637,1.403-0.917
		V29.453c0-1.022-0.026-1.85-0.079-2.482c-0.052-0.632-0.248-1.123-0.584-1.474c-0.338-0.351-0.876-0.606-1.617-0.767
		c-0.741-0.161-1.8-0.29-3.176-0.391v-1.203c0.805-0.121,1.656-0.266,2.552-0.437c0.897-0.17,1.787-0.361,2.67-0.572
		s1.727-0.436,2.533-0.677c0.805-0.24,1.545-0.481,2.222-0.722h1.325v25.758c0,0.24,0.435,0.537,1.305,0.888
		c0.872,0.351,2.254,0.666,4.151,0.947v1.294H21.278z M33.748,11.67c0,0.562-0.117,1.094-0.351,1.595
		c-0.232,0.501-0.552,0.938-0.954,1.309s-0.876,0.667-1.422,0.887c-0.546,0.221-1.144,0.331-1.793,0.331
		c-1.169,0-2.007-0.25-2.513-0.752c-0.508-0.501-0.76-1.213-0.76-2.137c0-0.561,0.116-1.092,0.351-1.594
		c0.234-0.501,0.558-0.937,0.974-1.309c0.416-0.371,0.89-0.662,1.422-0.872c0.532-0.211,1.111-0.316,1.734-0.316
		C32.644,8.812,33.748,9.765,33.748,11.67z"/>
</g>
</svg>
