<?xml version="1.0" encoding="utf-8"?>
<!-- Generator: Adobe Illustrator 16.0.0, SVG Export Plug-In . SVG Version: 6.00 Build 0)  -->
<!DOCTYPE svg PUBLIC "-//W3C//DTD SVG 1.1//EN" "http://www.w3.org/Graphics/SVG/1.1/DTD/svg11.dtd">
<svg version="1.1" id="Ebene_1" xmlns="http://www.w3.org/2000/svg" xmlns:xlink="http://www.w3.org/1999/xlink" x="0px" y="0px"
	 width="113.167px" height="113.167px" viewBox="0 0 113.167 113.167" style="enable-background:new 0 0 113.167 113.167;"
	 xml:space="preserve">
<circle style="fill:none;stroke:#000000;stroke-width:2;stroke-miterlimit:10;" cx="56.583" cy="56.583" r="55.583"/>
<path style="fill:none;stroke:#000000;stroke-width:2;stroke-miterlimit:10;" d="M96.667,83.291c0,7.313-5.452,13.242-12.178,13.242
	H28.844c-6.725,0-12.177-5.93-12.177-13.242V29.774c0-7.313,5.452-13.241,12.177-13.241h55.645c6.726,0,12.178,5.928,12.178,13.241
	V83.291z"/>
<ellipse style="fill:none;stroke:#000000;stroke-width:2;stroke-miterlimit:10;" cx="56.749" cy="55.123" rx="21.161" ry="21"/>
<path style="fill:none;stroke:#000000;stroke-width:1.7;stroke-miterlimit:10;" d="M89.925,35.331c0,0.772-0.627,1.398-1.398,1.398
	H73.5c-0.771,0-1.397-0.626-1.397-1.398V22.167c0-0.772,0.626-1.398,1.397-1.398h15.027c0.771,0,1.398,0.626,1.398,1.398V35.331z"/>
</svg>
