<?xml version="1.0" encoding="utf-8"?>
<!-- Generator: Adobe Illustrator 16.0.0, SVG Export Plug-In . SVG Version: 6.00 Build 0)  -->
<!DOCTYPE svg PUBLIC "-//W3C//DTD SVG 1.1//EN" "http://www.w3.org/Graphics/SVG/1.1/DTD/svg11.dtd">
<svg version="1.1" id="Ebene_1" xmlns="http://www.w3.org/2000/svg" xmlns:xlink="http://www.w3.org/1999/xlink" x="0px" y="0px"
	 width="111.813px" height="113.017px" viewBox="0 0 111.813 113.017" style="enable-background:new 0 0 111.813 113.017;"
	 xml:space="preserve">
<g>
	<path d="M111.813,56.614c0,0-0.064,1.362-0.187,3.917c-0.047,0.637-0.027,1.354-0.14,2.134c-0.116,0.78-0.244,1.63-0.382,2.55
		c-0.155,0.916-0.248,1.916-0.466,2.958c-0.256,1.035-0.527,2.134-0.814,3.296c-1.279,4.587-3.185,10.183-6.855,15.816
		c-3.594,5.632-8.663,11.481-15.521,16.194c-6.845,4.682-15.457,8.108-24.929,9.181c-0.586,0.112-1.185,0.114-1.783,0.146
		c-0.599,0.028-1.199,0.056-1.801,0.084c-0.602,0.027-1.206,0.056-1.812,0.084l-0.91,0.041c-0.386-0.001-0.623-0.028-0.942-0.041
		c-2.404-0.175-4.821-0.189-7.312-0.706c-4.992-0.666-9.836-2.311-14.562-4.376c-1.155-0.575-2.315-1.153-3.479-1.733
		c-1.156-0.593-2.225-1.355-3.346-2.028l-1.666-1.043l-1.576-1.187c-1.038-0.809-2.131-1.557-3.132-2.423
		c-4.045-3.438-7.552-7.533-10.627-11.968c-2.998-4.501-5.298-9.48-6.99-14.681C0.959,67.595,0.186,62.116,0,56.609l0.156-4.116
		c0.046-0.683,0.007-1.359,0.123-2.046l0.287-2.059l0.289-2.06L1,45.298l0.242-1.005l0.981-4.015
		c1.64-5.254,3.899-10.305,6.874-14.888c3.06-4.514,6.644-8.625,10.723-12.104c1.012-0.875,2.117-1.631,3.167-2.447
		c0.533-0.397,1.056-0.808,1.597-1.192l1.692-1.04c1.138-0.67,2.224-1.429,3.396-2.018c1.18-0.575,2.356-1.148,3.526-1.719
		c4.773-2.055,9.711-3.633,14.699-4.226c2.469-0.483,4.959-0.463,7.403-0.61C55.627,0.024,55.859-0.004,56.266,0l0.896,0.047
		c0.597,0.031,1.192,0.062,1.785,0.093c0.593,0.031,1.185,0.062,1.773,0.093c0.59,0.035,1.173,0.039,1.772,0.155
		c1.191,0.183,2.373,0.364,3.546,0.544c0.584,0.102,1.179,0.157,1.747,0.297c0.565,0.146,1.129,0.292,1.69,0.437
		c1.122,0.291,2.235,0.58,3.341,0.866c1.081,0.362,2.132,0.792,3.185,1.18c2.135,0.708,4.069,1.787,6.015,2.729
		c0.99,0.441,1.88,1.044,2.783,1.6c0.899,0.56,1.79,1.115,2.671,1.664c6.863,4.717,11.922,10.583,15.516,16.216
		c3.67,5.637,5.576,11.235,6.852,15.824c0.287,1.162,0.558,2.262,0.813,3.297c0.217,1.042,0.31,2.041,0.464,2.957
		c0.136,0.919,0.263,1.77,0.378,2.548c0.111,0.779,0.091,1.5,0.138,2.138c0.119,2.56,0.183,3.924,0.183,3.924V56.614z
		 M111.614,56.609c0,0-0.074-1.359-0.213-3.908c-0.051-0.635-0.036-1.352-0.152-2.127c-0.122-0.775-0.254-1.621-0.397-2.534
		c-0.155-0.911-0.266-1.902-0.505-2.934c-0.273-1.023-0.565-2.111-0.873-3.261c-1.323-4.547-3.468-9.999-7.243-15.428
		c-3.712-5.44-8.926-10.915-15.686-15.328c-6.747-4.372-15.139-7.564-24.189-8.665c-0.554-0.112-1.151-0.115-1.739-0.147
		c-0.589-0.029-1.18-0.058-1.773-0.086s-1.188-0.058-1.785-0.087L56.161,2.06L55.329,2.1c-2.355,0.155-4.756,0.136-7.131,0.615
		c-4.803,0.584-9.534,2.142-14.16,4.049c-1.133,0.539-2.271,1.081-3.414,1.624c-1.136,0.556-2.187,1.281-3.292,1.916l-1.644,0.986
		c-0.524,0.366-1.032,0.759-1.55,1.138c-1.02,0.78-2.096,1.498-3.082,2.333c-3.977,3.321-7.46,7.279-10.494,11.604
		c-2.953,4.393-5.225,9.259-6.907,14.347l-1.05,3.886l-0.261,0.974l-0.163,0.989l-0.328,1.98l-0.33,1.983
		c-0.132,0.656-0.11,1.354-0.173,2.029l-0.256,4.056c0.07,5.401,0.707,10.808,2.202,16.006c1.63,5.142,3.862,10.079,6.791,14.554
		c0.73,1.116,1.57,2.155,2.361,3.223c0.41,0.523,0.781,1.077,1.221,1.572l1.344,1.463l1.34,1.459l0.668,0.729
		c0.235,0.229,0.487,0.443,0.729,0.665c0.978,0.879,1.953,1.756,2.925,2.63c0.997,0.844,2.084,1.57,3.116,2.357
		c0.524,0.383,1.037,0.78,1.571,1.144l1.669,0.983c1.122,0.633,2.189,1.354,3.341,1.906c1.158,0.538,2.312,1.075,3.46,1.609
		c4.672,1.896,9.498,3.389,14.296,3.899c2.354,0.444,4.829,0.391,7.224,0.519c0.281,0.01,0.644,0.037,0.857,0.032l0.883-0.049
		c0.588-0.032,1.174-0.064,1.758-0.097c0.584-0.031,1.166-0.063,1.746-0.095c0.58-0.035,1.161-0.04,1.729-0.156
		c9.172-1.153,17.461-4.441,24.238-8.802c6.766-4.417,11.969-9.908,15.68-15.35c3.775-5.433,5.92-10.886,7.24-15.436
		c0.308-1.149,0.599-2.238,0.872-3.262c0.238-1.032,0.348-2.021,0.502-2.932c0.143-0.913,0.274-1.758,0.395-2.532
		c0.116-0.775,0.101-1.495,0.15-2.131c0.136-2.554,0.209-3.916,0.209-3.916V56.609z"/>
</g>
<g>
	<path d="M96.313,83.318c0,0-0.013,0.294-0.037,0.857c-0.004,0.281-0.027,0.632-0.096,1.049c-0.052,0.419-0.117,0.902-0.26,1.434
		c-0.234,1.073-0.678,2.376-1.477,3.761c-0.801,1.373-1.938,2.872-3.613,4.097c-1.669,1.201-3.854,2.175-6.383,2.3
		c-2.476,0.092-5.119,0.111-7.963,0.176c-5.679,0.107-12.085,0.229-19.074,0.361c-6.989,0.112-14.561,0.115-22.568,0.061
		c-2.002-0.01-4.032-0.02-6.086-0.029c-0.604,0.01-1.052-0.059-1.588-0.085c-0.545-0.091-1.142-0.166-1.671-0.319
		c-1.077-0.281-2.112-0.718-3.078-1.277c-1.934-1.121-3.536-2.785-4.701-4.701c-1.129-1.941-1.83-4.148-1.985-6.41
		c0.055-8.75,0.112-17.792,0.17-26.98c-0.021-4.586-0.043-9.209-0.064-13.851c-0.058-4.641-0.116-9.3-0.174-13.959
		c0.037-0.642,0-1.158,0.094-1.792l0.116-0.919c0.054-0.301,0.127-0.593,0.191-0.891c0.107-0.6,0.338-1.166,0.512-1.749
		c0.248-0.554,0.44-1.138,0.753-1.663c1.118-2.168,2.842-4.031,4.951-5.315c1.067-0.621,2.223-1.086,3.424-1.39
		c1.187-0.267,2.507-0.354,3.622-0.337c2.309-0.022,4.612-0.044,6.905-0.066c9.173-0.053,18.2-0.104,26.937-0.155
		c4.368-0.038,8.663-0.019,12.867-0.01c2.103,0.004,4.182,0.009,6.236,0.013l1.536,0.003c0.626,0.01,1.042,0.045,1.587,0.082
		c1.159,0.166,2.233,0.398,3.234,0.832c2.031,0.803,3.784,2.137,5.123,3.747c1.351,1.602,2.323,3.468,2.85,5.414
		c0.107,0.492,0.231,0.979,0.317,1.469c0.058,0.495,0.145,0.984,0.172,1.476c0.053,1.007,0.039,1.925,0.022,2.826
		c-0.023,1.818-0.046,3.602-0.068,5.349c-0.14,6.989-0.268,13.396-0.381,19.074c-0.1,5.679-0.234,10.629-0.263,14.706
		c-0.032,4.077-0.058,7.28-0.074,9.465C96.319,82.151,96.313,83.318,96.313,83.318z M96.114,83.314c0,0-0.006-1.163-0.016-3.347
		c-0.017-2.185-0.042-5.388-0.074-9.465c-0.028-4.076-0.163-9.027-0.263-14.706c-0.113-5.678-0.241-12.085-0.381-19.074
		c-0.022-1.747-0.045-3.531-0.068-5.349c-0.005-0.917-0.021-1.833-0.087-2.675c-0.035-0.431-0.125-0.858-0.183-1.289
		c-0.088-0.426-0.209-0.847-0.31-1.273c-1.015-3.32-3.416-6.478-6.862-7.801c-0.84-0.368-1.759-0.541-2.602-0.676
		c-0.466-0.031-1.066-0.071-1.46-0.072l-1.536,0.003c-2.055,0.004-4.134,0.009-6.236,0.013c-4.204,0.009-8.499,0.027-12.867-0.01
		c-8.736-0.05-17.764-0.102-26.937-0.155c-2.293-0.022-4.596-0.044-6.905-0.066c-1.194-0.036-2.193,0.025-3.274,0.232
		c-1.049,0.247-2.067,0.632-3.019,1.16c-1.886,1.081-3.491,2.697-4.563,4.639c-0.3,0.468-0.486,0.996-0.73,1.495
		c-0.171,0.528-0.403,1.039-0.515,1.587c-0.065,0.271-0.143,0.541-0.199,0.812l-0.127,0.811c-0.104,0.517-0.091,1.173-0.141,1.692
		c-0.058,4.659-0.116,9.319-0.174,13.959c-0.021,4.641-0.042,9.264-0.064,13.851c-0.015,4.586,0.045,9.137,0.063,13.632
		c0.021,2.248,0.042,4.482,0.063,6.7c0.018,1.109,0.035,2.214,0.052,3.315c0.016,1.1,0.021,2.21,0.106,3.242
		c0.208,2.094,0.924,4.097,2,5.831c1.113,1.709,2.599,3.155,4.336,4.092c0.868,0.467,1.786,0.821,2.729,1.036
		c0.472,0.121,0.913,0.156,1.385,0.23c0.497,0.012,1.076,0.059,1.5,0.044c2.054-0.01,4.084-0.02,6.086-0.029
		c8.008-0.055,15.579-0.052,22.568,0.061c6.989,0.133,13.395,0.254,19.074,0.361c2.835,0.045,5.507,0.128,7.943,0.132
		c2.412-0.013,4.556-0.885,6.198-2.027c1.647-1.156,2.814-2.587,3.604-3.936c0.793-1.354,1.237-2.633,1.475-3.688
		c0.145-0.524,0.211-0.996,0.264-1.404c0.071-0.405,0.097-0.754,0.103-1.037C96.1,83.603,96.114,83.314,96.114,83.314z"/>
</g>
<g>
	<path d="M77.558,55.154c0,0-0.022,0.517-0.064,1.486c0.001,0.485-0.082,1.081-0.192,1.783c-0.061,0.349-0.089,0.732-0.169,1.13
		c-0.093,0.396-0.19,0.816-0.294,1.26c-0.48,1.749-1.133,3.916-2.505,6.107c-1.34,2.187-3.232,4.509-5.875,6.369
		c-2.629,1.857-5.993,3.191-9.678,3.589c-0.458,0.061-0.927,0.044-1.394,0.068c-0.481,0.001-0.909,0.063-1.441,0.012
		c-0.914-0.083-1.813-0.106-2.799-0.324c-1.954-0.297-3.797-0.964-5.61-1.79c-1.806-0.848-3.459-2.021-5.027-3.305
		c-1.524-1.345-2.892-2.881-4.073-4.579c-1.146-1.721-2.058-3.609-2.741-5.593c-0.659-2.009-1.002-4.069-1.106-6.247
		c-0.024-2.024,0.194-4.251,0.748-6.301c0.615-2.044,1.483-4.011,2.622-5.805c1.178-1.766,2.583-3.359,4.165-4.723
		c1.616-1.316,3.351-2.466,5.213-3.294c1.861-0.81,3.793-1.425,5.742-1.66c0.965-0.188,1.938-0.187,2.894-0.243
		c0.143-0.002,0.188-0.014,0.41-0.009l0.34,0.021l0.677,0.041c0.456,0.038,0.882,0.03,1.354,0.104
		c3.797,0.475,7.088,1.836,9.732,3.717c2.638,1.879,4.526,4.207,5.863,6.399c1.372,2.195,2.025,4.364,2.503,6.114
		c0.103,0.445,0.2,0.866,0.292,1.262c0.079,0.398,0.107,0.78,0.166,1.128c0.108,0.7,0.19,1.295,0.188,1.785
		c0.04,0.974,0.061,1.493,0.061,1.493V55.154z M77.358,55.149c0,0-0.032-0.514-0.091-1.477c-0.007-0.484-0.1-1.071-0.221-1.76
		c-0.062-0.344-0.106-0.718-0.207-1.104c-0.11-0.385-0.229-0.793-0.353-1.225c-0.525-1.708-1.416-3.729-2.892-5.716
		c-1.458-1.99-3.485-3.949-6.04-5.494c-2.538-1.523-5.666-2.681-8.94-3.042C55.158,35,51.591,35.46,48.169,36.894
		c-1.708,0.708-3.308,1.717-4.816,2.88c-1.479,1.207-2.783,2.647-3.933,4.224c-1.117,1.604-1.996,3.384-2.652,5.26
		c-0.635,1.905-0.966,3.805-1.085,5.918c-0.009,1.959,0.196,4.027,0.726,5.973c0.588,1.936,1.424,3.794,2.533,5.472
		c1.147,1.645,2.488,3.142,4.024,4.369c1.556,1.195,3.238,2.181,5.002,2.869c1.76,0.656,3.585,1.173,5.346,1.314
		c0.852,0.145,1.809,0.104,2.714,0.135c0.816-0.013,1.726-0.084,2.558-0.173c3.388-0.438,6.441-1.624,8.996-3.169
		c2.55-1.565,4.573-3.529,6.029-5.524c1.476-1.99,2.367-4.012,2.889-5.723c0.124-0.432,0.241-0.841,0.351-1.226
		c0.101-0.387,0.146-0.759,0.205-1.103c0.118-0.687,0.211-1.273,0.216-1.762c0.057-0.968,0.087-1.484,0.087-1.484V55.149z"/>
</g>
<g>
	<path d="M90.457,29.175c0,0-0.012,0.829,0.115,2.293c0.018,0.733,0.154,1.644-0.151,2.751c-0.162,0.546-0.473,1.128-0.955,1.605
		c-0.236,0.24-0.521,0.426-0.806,0.632c-0.293,0.156-0.605,0.339-0.93,0.457c-1.295,0.533-2.74,0.667-4.212,0.659
		c-0.71-0.02-1.439-0.04-2.185-0.061c-0.752-0.022-1.552-0.042-2.392-0.176c-0.832-0.126-1.738-0.5-2.348-1.177
		c-0.602-0.676-0.942-1.496-1.143-2.316c-0.416-1.643-0.577-3.337-0.718-5.021c-0.106-1.664-0.217-3.453,0.368-5.222
		c0.273-0.88,0.832-1.794,1.663-2.423c0.836-0.634,1.819-0.884,2.674-1.001c0.866-0.125,1.676-0.11,2.426-0.104
		c0.739,0.002,1.462,0.003,2.166,0.005c1.378,0.006,2.977-0.116,4.388,0.737c0.669,0.423,1.185,1.038,1.426,1.646
		c0.281,0.598,0.415,1.178,0.486,1.709c0.163,1.065,0.133,1.965,0.153,2.703C90.467,28.337,90.457,29.175,90.457,29.175z
		 M90.258,29.176c0,0-0.007-0.209-0.019-0.6c-0.026-0.388-0.024-0.962-0.133-1.68c-0.096-0.713-0.262-1.594-0.639-2.492
		c-0.351-0.9-0.969-1.804-1.829-2.098c-0.859-0.316-2.099-0.229-3.551-0.146c-1.436,0.128-3.064-0.025-4.42,0.074
		c-1.408,0.076-2.36,0.625-2.911,1.989c-0.539,1.333-0.775,2.942-0.927,4.598c-0.104,1.644-0.203,3.318,0.21,4.862
		c0.183,0.766,0.521,1.501,1.058,1.967c0.523,0.489,1.23,0.619,1.943,0.612c0.719-0.004,1.46-0.133,2.209-0.237
		c0.769-0.114,1.544-0.156,2.225-0.206c1.388-0.059,2.673-0.183,3.766-0.416c1.105-0.232,1.927-0.718,2.388-1.51
		c0.455-0.793,0.55-1.715,0.594-2.425c0.045-0.725,0.041-1.302,0.039-1.693C90.259,29.385,90.258,29.176,90.258,29.176z"/>
</g>
</svg>
