<?xml version="1.0" encoding="utf-8"?>
<!-- Generator: Adobe Illustrator 16.0.0, SVG Export Plug-In . SVG Version: 6.00 Build 0)  -->
<!DOCTYPE svg PUBLIC "-//W3C//DTD SVG 1.1//EN" "http://www.w3.org/Graphics/SVG/1.1/DTD/svg11.dtd">
<svg version="1.1" id="Ebene_1" xmlns="http://www.w3.org/2000/svg" xmlns:xlink="http://www.w3.org/1999/xlink" x="0px" y="0px"
	 width="100px" height="100px" viewBox="0 0 100 100" style="enable-background:new 0 0 100 100;" xml:space="preserve">
<g>
	<g>
		<path style="fill:#171314;" d="M10.303,3.602c5.766-1.362,12.622-0.189,18.524-0.189c6.868,0,13.737-0.047,20.604,0.116
			c14.509,0.346,28.978-0.681,43.464-0.35c1.613,0.037,1.609-2.463,0-2.5c-14.49-0.331-28.951,0.743-43.464,0.35
			c-7.48-0.202-14.968-0.116-22.45-0.116c-5.647,0-11.811-1.028-17.342,0.278C8.069,1.561,8.735,3.972,10.303,3.602L10.303,3.602z"
			/>
	</g>
</g>
<g>
	<g>
		<path style="fill:#171314;" d="M8.391,51.209c28.708,0.297,57.377-1.594,86.083-1.639c1.611-0.002,1.611-2.502,0-2.5
			c-28.705,0.044-57.375,1.935-86.083,1.638C6.778,48.692,6.78,51.191,8.391,51.209L8.391,51.209z"/>
	</g>
</g>
<g>
	<g>
		<path style="fill:#171314;" d="M7.572,98.471c14.153,0.975,28.649,0.129,42.849,0.239c14.951,0.115,29.915-0.472,44.871-0.473
			c1.612,0,1.612-2.5,0-2.5c-14.3,0.001-28.594,0.471-42.89,0.48c-7.266,0.005-14.531-0.195-21.796-0.242
			c-7.685-0.05-15.356,0.524-23.034-0.005C5.962,95.859,5.973,98.36,7.572,98.471L7.572,98.471z"/>
	</g>
</g>
</svg>
