<?xml version="1.0" encoding="utf-8"?>
<!-- Generator: Adobe Illustrator 16.0.0, SVG Export Plug-In . SVG Version: 6.00 Build 0)  -->
<!DOCTYPE svg PUBLIC "-//W3C//DTD SVG 1.1//EN" "http://www.w3.org/Graphics/SVG/1.1/DTD/svg11.dtd">
<svg version="1.1" id="Ebene_1" xmlns="http://www.w3.org/2000/svg" xmlns:xlink="http://www.w3.org/1999/xlink" x="0px" y="0px"
	 width="95.303px" height="94.776px" viewBox="2.252 2.722 95.303 94.776" enable-background="new 2.252 2.722 95.303 94.776"
	 xml:space="preserve">
<path fill="#171314" d="M97.556,5.184c0,1.359-1.103,2.461-2.462,2.461H4.714c-1.359,0-2.461-1.102-2.461-2.461l0,0
	c0-1.36,1.102-2.462,2.461-2.462h90.38C96.453,2.722,97.556,3.824,97.556,5.184L97.556,5.184z"/>
<path fill="#171314" d="M97.556,95.037c0,1.359-1.103,2.461-2.462,2.461H4.714c-1.359,0-2.461-1.102-2.461-2.461l0,0
	c0-1.36,1.102-2.463,2.461-2.463h90.38C96.453,92.574,97.556,93.677,97.556,95.037L97.556,95.037z"/>
<path fill="#171314" d="M97.556,50.11c0,1.359-1.103,2.461-2.462,2.461H4.714c-1.359,0-2.461-1.102-2.461-2.461l0,0
	c0-1.36,1.102-2.463,2.461-2.463h90.38C96.453,47.647,97.556,48.75,97.556,50.11L97.556,50.11z"/>
</svg>
