<?xml version="1.0" encoding="utf-8"?>
<!-- Generator: Adobe Illustrator 16.0.0, SVG Export Plug-In . SVG Version: 6.00 Build 0)  -->
<!DOCTYPE svg PUBLIC "-//W3C//DTD SVG 1.1//EN" "http://www.w3.org/Graphics/SVG/1.1/DTD/svg11.dtd">
<svg version="1.1" id="Ebene_1" xmlns="http://www.w3.org/2000/svg" xmlns:xlink="http://www.w3.org/1999/xlink" x="0px" y="0px"
	 width="285.084px" height="184.067px" viewBox="0 0 285.084 184.067" style="enable-background:new 0 0 285.084 184.067;"
	 xml:space="preserve">
<g>
	<g>
		<path style="fill:#171314;" d="M4.376,181.255c0.405-27.344,0.318-54.694,0.328-82.04c0.012-32.676,0.492-65.367-2.2-97.965
			C1.728,1.46,0.951,1.67,0.175,1.881C13.024,30.28,20.928,60.652,32.058,89.727c0.437,1.14,2.01,1.236,2.411,0
			C44.246,59.608,59.65,31.683,69.459,1.583c-0.819-0.111-1.637-0.222-2.456-0.333c1.645,24.741,0.771,49.83,0.866,74.607
			c0.117,30.429,0.055,60.862,0.425,91.29c0.037,3.035,0.077,6.071,0.171,9.105c0.032,1.013-0.224,2.992,0.572,3.803
			c0.299,0.305,0.803,0.46,1.216,0.321c0.004-0.001,0.008-0.002,0.013-0.004c1.521-0.507,0.869-2.922-0.665-2.41
			c1.713-0.571,1.532,2.088,1.414-0.412c-0.065-1.365-0.091-2.733-0.121-4.1c-0.099-4.61-0.137-9.222-0.177-13.832
			c-0.125-14.66-0.166-29.321-0.215-43.982c-0.107-32.093-0.088-64.191-0.525-96.283c-0.082-6.028-0.075-12.086-0.475-18.104
			c-0.094-1.408-2.009-1.701-2.456-0.333c-9.809,30.1-25.213,58.025-34.991,88.144c0.804,0,1.607,0,2.411,0
			C23.26,59.782,15.274,29.221,2.333,0.619C1.825-0.505-0.096,0.041,0.004,1.25c2.638,31.939,2.254,63.978,2.203,95.994
			c-0.045,28.004,0.084,56.01-0.331,84.011C1.852,182.868,4.352,182.865,4.376,181.255L4.376,181.255z"/>
	</g>
</g>
<g>
	<g>
		<path style="fill:#171314;" d="M85.755,76.893c5.241-0.59,10.587,0.084,15.829,0.369c10.543,0.572,21.077,0.215,31.591-0.704
			c1.593-0.139,1.607-2.641,0-2.5c-10.182,0.89-20.363,1.228-30.575,0.755c-5.58-0.258-11.266-1.048-16.845-0.42
			C84.172,74.571,84.155,77.073,85.755,76.893L85.755,76.893z"/>
	</g>
</g>
<g>
	<g>
		<path style="fill:#171314;" d="M132.754,2.5c0.984,0,1.969,0,2.953,0c1.612,0,1.612-2.5,0-2.5c-18.011,0-35.946,1.933-53.953,2
			c-0.625,0.002-1.324,0.569-1.25,1.25c4.018,37.171,3.77,74.666,5.41,111.981c0.511,11.63,1.028,23.345,2.178,34.925
			c0.574,5.778,0.582,11.639,0.593,17.439c0.005,2.807-0.041,5.614-0.148,8.419c-0.046,1.196,0.212,3.538-0.431,4.609
			c-0.49,0.815,0.14,1.882,1.079,1.881c14.525-0.019,29.062-0.451,43.579-0.902c6.379-0.198,12.773-0.369,19.14-0.849
			c2.179-0.164,7.638,0.882,6.719-2.858c-0.385-1.565-2.796-0.901-2.411,0.664c-0.34-1.384-7.812-0.08-8.664-0.035
			c-6.739,0.358-13.487,0.548-20.232,0.74c-12.703,0.362-25.421,0.724-38.13,0.74c0.36,0.627,0.72,1.254,1.079,1.881
			c1.479-2.459,0.83-7.096,0.884-9.794c0.121-6.093,0.018-12.2-0.296-18.285c-0.616-11.933-1.739-23.843-2.31-35.783
			C86.714,79.778,87.123,41.354,83.004,3.25c-0.417,0.417-0.833,0.833-1.25,1.25c18.007-0.067,35.942-2,53.953-2
			c1.612,0,1.612-2.5,0-2.5c-0.984,0-1.969,0-2.953,0C131.142,0,131.142,2.5,132.754,2.5L132.754,2.5z"/>
	</g>
</g>
<g>
	<g>
		<path style="fill:#171314;" d="M210.544,1.869c2.043,31.174,3.636,62.389,5.063,93.598c0.706,15.439,1.283,30.887,1.633,46.34
			c0.307,13.575,0.884,27.409-0.472,40.947c0.818-0.11,1.637-0.222,2.455-0.332c-9.719-30.114-21.159-59.685-29.508-90.232
			c-8.449-30.917-20.517-60.446-31.093-90.653c-0.441-1.258-2.577-1.15-2.456,0.333c2.689,32.887,2.495,65.937,4.398,98.868
			c1.549,26.809,5.324,53.646,5.429,80.518c0.006,1.612,2.506,1.612,2.5,0c-0.103-26.349-3.694-52.696-5.337-78.975
			c-2.09-33.44-1.758-67.007-4.49-100.411c-0.818,0.111-1.637,0.222-2.456,0.333c10.381,29.648,22.498,58.644,30.659,89.031
			c8.359,31.125,20.053,61.208,29.943,91.853c0.451,1.4,2.317,1.047,2.455-0.332c1.313-13.114,0.77-26.497,0.5-39.648
			c-0.32-15.557-0.917-31.108-1.616-46.651c-1.418-31.538-3.043-63.083-5.107-94.585C212.939,0.269,210.438,0.259,210.544,1.869
			L210.544,1.869z"/>
	</g>
</g>
<g>
	<g>
		<path style="fill:#171314;" d="M225.927,1.869c-1.92,30.223-1.445,60.544,0.024,90.776c0.728,14.976,1.758,29.936,2.948,44.881
			c0.865,10.872,1.384,21.174,5.626,31.339c2.641,6.325,7.203,14.686,14.94,15.139c8.738,0.512,19.101-2.042,25.653-7.994
			c6.3-5.723,7.271-17.54,8.399-25.406c1.912-13.313,1.873-26.855,0.948-40.245c-1.73-25.04-1.559-50.228-2.723-75.303
			c-0.483-10.411-0.467-20.697-0.455-31.1c0.002-1.612-2.498-1.612-2.5,0c-0.014,12.08,0.115,24.026,0.69,36.114
			c0.713,14.96,1.107,29.922,1.465,44.894c0.307,12.861,1.361,25.693,1.612,38.548c0.246,12.557-0.664,25.247-3.492,37.503
			c-1.093,4.734-2.26,9.634-5.713,13.228c-4.06,4.224-10.49,5.794-16.062,6.701c-5.214,0.85-10.014,1.26-14.039-2.619
			c-3.969-3.824-6.273-9.571-8.05-14.658c-4.03-11.537-3.716-24.616-4.614-36.68c-3.095-41.582-4.807-83.462-2.16-125.117
			C228.529,0.258,226.028,0.269,225.927,1.869L225.927,1.869z"/>
	</g>
</g>
</svg>
