<?xml version="1.0" encoding="utf-8"?>
<!-- Generator: Adobe Illustrator 16.0.0, SVG Export Plug-In . SVG Version: 6.00 Build 0)  -->
<!DOCTYPE svg PUBLIC "-//W3C//DTD SVG 1.1//EN" "http://www.w3.org/Graphics/SVG/1.1/DTD/svg11.dtd">
<svg version="1.1" id="Ebene_1" xmlns="http://www.w3.org/2000/svg" xmlns:xlink="http://www.w3.org/1999/xlink" x="0px" y="0px"
	 width="304.46px" height="300.54px" viewBox="71.64 -484.83 304.46 300.54" enable-background="new 71.64 -484.83 304.46 300.54"
	 xml:space="preserve">
<path fill="none" stroke="#000000" stroke-width="0.6" stroke-miterlimit="10" d="M74.33-330.53c4.48,74.28-8.32,190.13,1.28,82.9
	c9.61-107.23,16.65-203.93,14.73-104.67c-1.92,99.26-11.53,208.12,0.32,105.66c11.85-102.46,21.46-205.56,17.61-102.46
	c-3.84,103.1-14.93,242.06,0.86,111.43c15.79-130.64,15.15-195.31,22.84-133.84c7.68,61.48-19.85,215.81,0,113.99
	c19.85-101.82,24.98-216.45,27.54-117.83c2.56,98.62-34.58,198.52-9.61,113.99c24.97-84.53,35.22-197.24,29.46-97.98
	c-5.76,99.26-40.98,205.56-10.25,110.78c30.74-94.78,35.86-197.24,33.94-106.3s-42.27,214.53-10.25,109.5
	c32.02-105.02,41.62-192.11,37.14-121.67s-42.26,178.02-17.29,105.66c24.97-72.36,40.98-212.6,32.02-107.58
	s-35.22,218.37-13.45,117.83c21.77-100.54,38.42-292.01,25.62-142.8c-12.81,149.21-37.68,228.4-8.33,164.74
	c23.69-51.39,46.11-376.06,40.34-207c-5.76,169.06-46.11,283.05-21.13,208.76c24.97-74.28,56.99-291.37,43.55-169.7
	C297.82-275.46,249.15-116,282.45-217.18c33.3-101.18,60.84-270.88,53.79-199.16c-7.04,71.72-56.99,317.63-22.41,180.59
	c34.58-137.04,54.43-306.74,39.7-164.58c-14.73,142.16-39.7,195.96-15.37,174.18c24.33-21.77,3.84-71.72,37.78-51.23"/>
</svg>
