<?xml version="1.0" encoding="utf-8"?>
<!-- Generator: Adobe Illustrator 16.0.0, SVG Export Plug-In . SVG Version: 6.00 Build 0)  -->
<!DOCTYPE svg PUBLIC "-//W3C//DTD SVG 1.1//EN" "http://www.w3.org/Graphics/SVG/1.1/DTD/svg11.dtd">
<svg version="1.1" id="Ebene_1" xmlns="http://www.w3.org/2000/svg" xmlns:xlink="http://www.w3.org/1999/xlink" x="0px" y="0px"
	 width="563px" height="215px" viewBox="0 0 563 215" enable-background="new 0 0 563 215" xml:space="preserve">
<g>
	<g>
		<path d="M77.191,74.174c-0.082-0.141,0.093,0.191,0.186,0.172c0.095,0.001,0.05-0.001,0.071-0.003L77.4,74.368l-0.144,0.093
			l-0.298,0.223l-0.591,0.486l-1.159,1.019c-0.765,0.69-1.52,1.394-2.27,2.103c-1.5,1.418-2.979,2.86-4.448,4.313
			c-2.936,2.906-5.826,5.859-8.681,8.846c-5.708,5.975-11.276,12.083-16.678,18.331c-5.399,6.25-10.635,12.64-15.593,19.233
			c-4.944,6.598-9.648,13.391-13.669,20.552c-1.998,3.582-3.826,7.262-5.245,11.072c-1.393,3.792-2.458,7.792-2.233,11.69
			c0.121,1.933,0.624,3.81,1.624,5.377c0.988,1.575,2.465,2.805,4.167,3.676c1.707,0.874,3.615,1.419,5.569,1.762l0.183,0.032
			l0.092,0.016c-0.112-0.016-0.003-0.001-0.016-0.003l0.048,0.005l0.385,0.041l0.771,0.083l1.542,0.164
			c1.026,0.104,1.973,0.025,2.961,0.052c3.975-0.103,7.998-0.847,11.907-1.902c3.918-1.065,7.762-2.458,11.519-4.069
			c3.76-1.608,7.438-3.412,11.077-5.333l2.74-1.449l1.403-0.727l1.299-0.72l1.357-0.75l0.675-0.376l0.564-0.404l1.135-0.795
			l0.441-0.422l0.225-0.206c0.044-0.048,0.003-0.012,0.033-0.007l2.826,0.379l-0.145,0.594c-2.175,8.935-4.642,17.75-7.914,26.403
			c-0.831,2.159-1.723,4.304-2.757,6.415c-1.06,2.104-2.162,4.201-3.871,6.153c-0.229,0.24-0.449,0.482-0.69,0.717l-0.819,0.676
			c-0.311,0.211-0.664,0.404-1.001,0.593c-0.255,0.119-0.287,0.125-0.463,0.199c-0.213,0.072-0.42,0.154-0.645,0.201
			c-0.428,0.083-0.961,0.244-1.838-0.071c-0.424-0.167-0.867-0.521-1.092-0.903c-0.252-0.388-0.335-0.738-0.387-1.031
			c-0.132-1.136,0.1-1.764,0.272-2.428c0.393-1.276,0.912-2.36,1.459-3.431c0.55-1.063,1.142-2.084,1.759-3.083
			c2.476-3.984,5.3-7.674,8.355-11.181c3.068-3.492,6.375-6.798,10.091-9.711c0.93-0.727,1.888-1.426,2.879-2.088
			c0.942-0.629,1.894-1.273,2.766-1.901c1.8-1.296,3.529-2.69,5.191-4.158c1.663-1.473,3.238-3.032,4.811-4.661
			c0.792-0.814,1.58-1.646,2.466-2.491c0.456-0.422,0.913-0.849,1.5-1.27c0.581-0.408,1.284-0.86,2.299-1.068
			c1.018-0.23,2.224,0.055,2.968,0.507c0.375,0.221,0.715,0.458,0.999,0.701c0.16,0.122,0.274,0.244,0.409,0.366l0.194,0.185
			c-0.054-0.063,0.184,0.19,0.183,0.193l0.069,0.081l0.558,0.648c0.084,0.084,0.203,0.261,0.317,0.435l0.332,0.518
			c0.237,0.349,0.39,0.701,0.529,1.056c0.154,0.352,0.287,0.711,0.357,1.099c0.377,1.52,0.205,3.107-0.225,4.435
			c-0.427,1.343-1.068,2.498-1.745,3.546c-0.674,1.043-1.429,2.003-2.041,2.855l-0.114,0.158c-0.094,0.144,0.064-0.108,0.027-0.047
			c0.003-0.005-0.084,0.141-0.008,0.012c0.06-0.461,0.498-0.224-0.035-1.866c-0.563-1.068-1.933-1.046-1.783-1.009
			c-0.255,0.019-0.335,0.052-0.332,0.046c-0.031,0.006-0.085,0.029-0.063,0.019c0.036-0.014,0.293-0.137,0.497-0.251
			c0.442-0.243,0.917-0.527,1.388-0.814c1.895-1.163,3.805-2.415,5.709-3.656c3.814-2.492,7.628-5.013,11.522-7.459
			c1.954-1.221,3.913-2.429,5.988-3.573c0.521-0.286,1.051-0.566,1.609-0.839c0.57-0.272,1.119-0.539,1.879-0.786
			c0.173-0.059,0.438-0.126,0.646-0.17l0.419-0.084l0.838-0.169l1.695-0.328c1.122-0.211,2.148-0.441,3.118-0.709
			c0.898-0.318,1.766-0.626,2.349-1.125c0.346-0.199,0.575-0.516,0.841-0.792l0.101-0.104c-0.012,0.022,0.098-0.121-0.014,0.036
			l0.061-0.088l0.121-0.177c0.04-0.059,0.014-0.039,0.026-0.061c0.003-0.003,0.032-0.063,0.066-0.143
			c0.035-0.064,0.059-0.149,0.09-0.227c0.233-0.65,0.328-1.569,0.259-2.419c-0.032-0.423-0.107-0.843-0.204-1.159
			c-0.048-0.143-0.105-0.275-0.117-0.29c0,0.008,0.01,0.03,0.094,0.12c0.028,0.024,0.131,0.134,0.211,0.174
			c0.107,0.077,0.272,0.165,0.448,0.212c0.208,0.077,0.438,0.079,0.645,0.077c0.107-0.006,0.213-0.025,0.314-0.056
			c0.078-0.017,0.148-0.036,0.219-0.066c0.162-0.077,0.227-0.114,0.288-0.154c0.031-0.021,0.066-0.055,0.086-0.072l0.032-0.021
			c0.08-0.095-0.014,0.03-0.075,0.143l-0.057,0.118l-0.029,0.059c0.033-0.084-0.115,0.27,0.065-0.173l-0.138,0.405l-0.138,0.405
			c0.031,0.008,0.055-0.002,0.062-0.009c0.016,0.021,0.039,0.415,0.554,0.812c0.495,0.413,1.296,0.778,2.157,1.03
			c1.762,0.5,3.806,0.577,5.793,0.304c0.5-0.059,0.997-0.137,1.49-0.253l1.635-0.355c1.247-0.263,2.372-0.449,3.539-0.626
			c4.594-0.698,9.166-1.103,13.412-1.944c1.04-0.213,2.073-0.471,2.871-0.781c0.363-0.136,0.749-0.359,0.693-0.342
			c-0.04,0.023-0.088,0.073-0.123,0.148c-0.122,0.136-0.131,0.258-0.21,0.475c-0.029,0.105-0.04,0.217-0.031,0.324
			c0.003,0.1-0.009,0.173,0.009,0.261c0.005,0.074,0.064,0.188,0.063,0.213c0.004,0.034,0.014,0.067,0.03,0.096
			c0.061,0.082,0.029,0.054,0.016,0.042c-0.005-0.006-0.009-0.014-0.011-0.023c0.128,0.132-0.007-0.007,0.002,0.002l-0.075-0.077
			c-0.091-0.092-0.215-0.228-0.281-0.284l-0.175-0.152c-0.297-0.247-0.652-0.51-1.028-0.733c-0.759-0.452-1.626-0.821-2.525-1.082
			c-0.895-0.26-1.839-0.418-2.678-0.43c-0.412-0.012-0.809,0.024-1.041,0.081c-0.126,0.023-0.173,0.06-0.146,0.037
			c0.049-0.026,0.247-0.137,0.437-0.5c0.198-0.384,0.189-0.803,0.143-0.937c-0.005-0.031-0.015-0.062-0.031-0.089
			c0-0.009,0.005-0.008,0.002-0.011l-0.004-0.001c0.019,0.039-0.252-0.414-0.106-0.177l0.12,0.177l0.239,0.354
			c0.072,0.095,0.062,0.013,0.083,0.036c0.015,0.001,0.008,0.005,0.021,0.027l0.191,0.128c0.506,0.363,1.358,0.699,2.287,0.94
			c3.862,0.965,8.553,0.831,13.373,1.626c0.629,0.102,1.36,0.272,2.174,0.581c0.23,0.105,0.458,0.218,0.683,0.337
			c0.216,0.104,0.508,0.338,0.743,0.523c0.237,0.167,0.5,0.5,0.717,0.792c0.235,0.29,0.374,0.655,0.509,1.014
			c0.438,1.443,0.125,2.523-0.103,3.261c-0.258,0.777-0.565,1.399-0.879,1.981c-0.654,1.183-1.266,2.095-1.851,3.06l-1.798,2.914
			c-2.439,3.911-4.98,7.82-8.119,11.47c-1.604,1.806-3.287,3.602-5.617,5.053l-0.922,0.51l-0.231,0.125
			c-0.078,0.038,0.009,0.003-0.203,0.101l-0.099,0.042l-0.241,0.098c-0.177,0.064-0.349,0.12-0.539,0.169
			c-0.123,0.026-0.248,0.047-0.373,0.063c-0.139,0.013-0.199,0.034-0.483,0.022c-0.241-0.014-0.464-0.045-0.708-0.115
			c-0.376-0.12-0.763-0.347-1.05-0.618c-0.279-0.276-0.519-0.658-0.652-1.034c-0.087-0.273-0.116-0.481-0.136-0.732
			c-0.018-0.289,0.004-0.346,0.016-0.493c0.014-0.126,0.036-0.267,0.061-0.377c0.187-0.729,0.367-0.997,0.544-1.366
			c0.697-1.263,1.392-2.177,2.111-3.147c2.874-3.751,5.921-7.164,9.017-10.575c3.109-3.386,6.29-6.694,9.531-9.946
			c3.245-3.248,6.549-6.439,9.972-9.529c1.7-1.538,3.482-3.077,5.238-4.514l5.221-4.39l5.228-4.438
			c0.884-0.739,1.775-1.476,2.721-2.197c0.978-0.711,1.866-1.454,3.342-2.033c0.407-0.126,0.842-0.259,1.436-0.234
			c0.586,0.017,1.246,0.273,1.679,0.631c0.454,0.358,0.694,0.729,0.908,1.07l0.142,0.252l0.077,0.147l0.046,0.097l0.185,0.386
			c0.543,1.174,0.937,2.328,1.202,3.58c0.237,1.25,0.425,2.564,0.021,4.097c-0.211,0.76-0.728,1.621-1.531,2.152
			c-0.826,0.565-1.697,0.605-2.45,0.615c-1.234-0.061-2.387-0.199-3.592-0.423c-0.6-0.117-1.2-0.253-1.824-0.458
			c-0.313-0.104-0.633-0.227-0.971-0.393c-0.337-0.184-0.716-0.371-1.131-0.888c-0.202-0.285-0.407-0.697-0.387-1.177
			c-0.006-0.242,0.058-0.422,0.118-0.627c0.066-0.163,0.148-0.316,0.233-0.449c0.345-0.489,0.662-0.686,0.968-0.908
			c0.601-0.393,1.188-0.649,1.734-0.878c1.042-0.428,2.033-0.888,3.063-1.38c4.105-1.927,8.148-4.079,12.5-5.754
			c1.103-0.402,2.206-0.796,3.485-0.966c0.323-0.038,0.659-0.064,1.047-0.015c0.091,0.005,0.19,0.022,0.299,0.054l0.156,0.042
			c0.088,0.034,0.023-0.013,0.235,0.088l0.376,0.205c0.289,0.188,0.723,0.576,0.864,0.874c0.227,0.315,0.319,0.657,0.431,0.987
			c0.315,1.333,0.142,2.571-0.158,3.743c-0.148,0.589-0.355,1.159-0.609,1.718c-0.263,0.558-0.542,1.103-1.104,1.625
			c-0.249,0.184-0.088,0.083-0.337,0.205c-0.284,0.116-0.584,0.038-0.764-0.092c-0.354-0.29-0.345-0.49-0.428-0.69
			c-0.094-0.375-0.092-0.691-0.087-1.011c0.026-0.63,0.135-1.227,0.294-1.809c0.326-1.159,0.851-2.249,1.544-3.22
			c1.373-1.969,3.561-3.283,5.856-3.706l0.106,0.488c-2.167,0.524-4.095,1.844-5.251,3.702c-0.585,0.917-1.01,1.938-1.247,2.99
			c-0.119,0.524-0.191,1.06-0.19,1.571c0.004,0.249,0.024,0.509,0.081,0.686c0.011,0.062,0.1,0.16-0.013,0.041
			c-0.062-0.051-0.214-0.101-0.36-0.032c-0.119,0.078,0.17-0.105,0.021-0.018c0.266-0.268,0.542-0.753,0.729-1.236
			c0.197-0.487,0.361-1.001,0.468-1.523c0.231-1.034,0.292-2.139,0.034-3.027c-0.084-0.2-0.147-0.423-0.274-0.561
			c-0.054-0.079-0.109-0.173-0.156-0.189c-0.069-0.038-0.027-0.081-0.164-0.146l-0.384-0.189c0.152,0.062,0.012,0.014,0.032,0.026
			l-0.051-0.01c-0.028-0.011-0.069-0.017-0.122-0.015c-0.178-0.017-0.418,0.004-0.658,0.045c-0.98,0.169-2.035,0.575-3.052,1.001
			c-4.103,1.776-8.043,4.089-12.112,6.207c-1.012,0.522-2.077,1.055-3.131,1.525c-0.499,0.224-0.951,0.452-1.298,0.695
			c-0.154,0.107-0.307,0.256-0.281,0.246c0.013-0.011,0.029-0.036,0.037-0.07c0.037-0.065,0.027-0.111,0.044-0.208
			c-0.007-0.188-0.061-0.336-0.113-0.385c-0.057-0.069,0.066,0.047,0.236,0.117c0.177,0.079,0.391,0.157,0.622,0.226
			c0.464,0.137,0.981,0.241,1.504,0.326c1.042,0.164,2.164,0.264,3.208,0.282c0.368-0.027,0.702-0.064,0.816-0.194
			c0.133-0.118,0.262-0.269,0.352-0.609c0.169-0.688,0.074-1.712-0.16-2.677c-0.232-0.975-0.614-1.982-1.057-2.865l-0.196-0.38
			l-0.049-0.095c-0.022-0.044,0.002,0.007-0.025-0.041l-0.072-0.118c-0.091-0.138-0.184-0.245-0.19-0.229
			c-0.014,0.005,0.09,0.052,0.105,0.046l-0.237,0.072c-0.655,0.265-1.583,0.961-2.409,1.631c-0.849,0.688-1.695,1.43-2.539,2.18
			l-5.072,4.575l-5.121,4.575c-1.724,1.513-3.379,2.976-5.027,4.537c-3.288,3.094-6.484,6.311-9.62,9.583
			c-3.135,3.274-6.208,6.614-9.206,10.007c-2.988,3.385-5.971,6.835-8.596,10.369c-0.633,0.865-1.286,1.801-1.676,2.546
			c-0.078,0.139-0.163,0.383-0.107,0.211c0.011-0.041,0.026-0.11,0.03-0.166c0.005-0.076,0.005-0.063,0.004-0.281
			c-0.01-0.181-0.037-0.315-0.106-0.521c-0.096-0.316-0.302-0.634-0.542-0.852c-0.225-0.235-0.549-0.427-0.863-0.512
			c-0.175-0.058-0.326-0.086-0.496-0.091l-0.271,0.007c-0.054,0.005-0.108,0.015-0.161,0.03c-0.053,0.009-0.09,0.019-0.131,0.041
			c-0.018,0.012,0.107-0.046,0.154-0.065l0.098-0.042c-0.149,0.063,0-0.007-0.016-0.003l0.142-0.084l0.57-0.326
			c1.549-0.976,3.05-2.539,4.431-4.162c2.772-3.313,5.174-7.112,7.551-10.941l1.781-2.918c0.596-0.987,1.24-1.983,1.682-2.8
			c0.228-0.42,0.414-0.833,0.513-1.138c0.136-0.332,0.017-0.438,0.121-0.086c0.019,0.1,0.104,0.171,0.129,0.256
			c0.03,0.079,0.158,0.146,0.144,0.165c0,0.025,0.09,0.045,0.044,0.034c-0.032-0.008-0.059-0.021-0.084-0.042
			c-0.257-0.082-0.634-0.2-1.133-0.272c-0.944-0.158-2.12-0.276-3.208-0.385c-1.08-0.106-2.208-0.182-3.359-0.271
			c-2.303-0.188-4.675-0.361-7.211-0.99c-1.268-0.339-2.607-0.765-3.98-1.704c-0.538-0.247-1.777-1.637-1.847-1.87l-0.121-0.177
			c0.105,0.179-0.208-0.332-0.213-0.361l-0.092-0.196l-0.172-0.401c-0.054-0.165-0.102-0.333-0.144-0.502
			c-0.169-0.682-0.183-1.708,0.292-2.602c0.459-0.872,1.112-1.356,1.651-1.668c0.532-0.288,1.023-0.452,1.454-0.553
			c0.877-0.208,1.629-0.243,2.355-0.235c1.443,0.036,2.764,0.285,4.056,0.666c1.287,0.386,2.536,0.917,3.732,1.642
			c0.601,0.366,1.168,0.778,1.742,1.269l0.458,0.423c0.144,0.138,0.209,0.215,0.318,0.326l0.22,0.237l0.249,0.316
			c0.161,0.215,0.315,0.405,0.479,0.756c0.153,0.312,0.298,0.616,0.375,1.108c0.036,0.229,0.073,0.442,0.067,0.683
			c-0.013,0.248-0.044,0.501-0.095,0.747c-0.093,0.509-0.313,0.859-0.537,1.258c-0.212,0.295-0.451,0.561-0.688,0.788
			c-0.909,0.787-1.596,1.019-2.281,1.313c-1.335,0.502-2.533,0.765-3.726,1.008c-4.717,0.893-9.256,1.246-13.686,1.894
			c-1.089,0.155-2.216,0.34-3.203,0.54l-1.711,0.359c-0.62,0.139-1.249,0.233-1.884,0.301c-2.531,0.301-5.139,0.222-7.77-0.548
			c-1.311-0.414-2.648-0.966-3.908-2.025c-1.24-1.032-2.439-2.874-2.155-5.151c0.037-0.291,0.089-0.585,0.152-0.86l0.143-0.403
			l0.143-0.403c0.205-0.511,0.095-0.218,0.159-0.366l0.067-0.132l0.136-0.263c0.227-0.377,0.428-0.748,0.922-1.239l0.182-0.173
			c0.074-0.063,0.171-0.135,0.259-0.198c0.176-0.125,0.356-0.246,0.656-0.366c0.138-0.056,0.272-0.105,0.418-0.146
			c0.171-0.039,0.349-0.066,0.526-0.08c0.35-0.039,0.719,0.023,1.066,0.117c0.307,0.096,0.604,0.248,0.83,0.399
			c0.187,0.134,0.415,0.318,0.534,0.453c0.282,0.297,0.451,0.557,0.6,0.807c0.272,0.481,0.412,0.887,0.539,1.287
			c0.226,0.778,0.327,1.493,0.375,2.207c0.079,1.421-0.032,2.824-0.567,4.326c-0.072,0.188-0.139,0.374-0.233,0.565
			c-0.082,0.181-0.177,0.378-0.322,0.619l-0.19,0.308l-0.123,0.175l-0.062,0.088c-0.158,0.211-0.098,0.119-0.158,0.193l-0.191,0.209
			c-0.512,0.558-1.019,1.124-1.655,1.527c-1.211,0.933-2.546,1.384-3.795,1.796c-1.232,0.33-2.437,0.576-3.559,0.774l-1.668,0.302
			l-0.84,0.159l-0.42,0.08c-0.069,0.018-0.083,0.015-0.181,0.047c-0.328,0.097-0.818,0.31-1.277,0.527
			c-0.469,0.222-0.951,0.468-1.433,0.726c-1.934,1.035-3.875,2.197-5.804,3.372c-3.86,2.361-7.689,4.826-11.543,7.279
			c-1.933,1.227-3.853,2.455-5.86,3.655c-0.507,0.3-1.014,0.597-1.575,0.896c-0.3,0.153-0.549,0.295-1.046,0.485
			c-0.043,0.018-0.168,0.057-0.267,0.083c-0.064,0.018-0.214,0.066-0.541,0.088c0.085,0.05-1.378,0.059-1.968-1.069
			c-0.571-1.71-0.084-1.541-0.007-2.069c0.106-0.193,0.062-0.106,0.1-0.172c-0.001-0.001,0.203-0.308,0.15-0.223l0.138-0.188
			c0.733-0.989,1.4-1.817,1.974-2.685c1.159-1.709,1.841-3.473,1.485-4.852c-0.019-0.181-0.088-0.353-0.166-0.524
			c-0.064-0.179-0.131-0.354-0.226-0.474l-0.117-0.21c-0.034-0.07-0.059-0.14-0.174-0.263l-0.551-0.654l-0.069-0.082
			c-0.045-0.054,0.138,0.153,0.033,0.041l-0.115-0.11c-0.076-0.07-0.155-0.159-0.225-0.208c-0.148-0.132-0.279-0.215-0.392-0.292
			c-0.24-0.123-0.22-0.097-0.324-0.089c-0.252,0-1.143,0.612-1.877,1.328c-0.772,0.722-1.563,1.538-2.369,2.351
			c-1.61,1.637-3.295,3.275-5.063,4.811c-1.771,1.536-3.613,2.991-5.528,4.343c-0.986,0.695-1.931,1.32-2.892,1.949
			c-0.911,0.596-1.803,1.234-2.677,1.904c-3.495,2.685-6.705,5.825-9.686,9.156c-2.969,3.341-5.741,6.898-8.116,10.645
			c-1.159,1.855-2.305,3.841-2.912,5.686c-0.072,0.225-0.122,0.435-0.158,0.622c-0.032,0.174-0.028,0.331-0.03,0.313
			c-0.005-0.014-0.012-0.08-0.103-0.232c-0.087-0.127-0.28-0.316-0.449-0.363c-0.339-0.098-0.273-0.022-0.155-0.071
			c0.056-0.004,0.113-0.037,0.173-0.046l0.19-0.076l0.099-0.041c0.076-0.033,0.011-0.001,0.035-0.018
			c0.152-0.102,0.307-0.175,0.471-0.276l0.503-0.409l0.498-0.512c1.324-1.468,2.425-3.426,3.419-5.379
			c0.992-1.978,1.875-4.041,2.702-6.132c3.266-8.388,5.816-17.161,8.037-25.93l2.681,0.974c-0.128,0.208-0.307,0.466-0.438,0.606
			l-0.34,0.325l-0.69,0.639l-1.411,0.976l-0.709,0.481l-0.683,0.373l-1.364,0.737l-1.422,0.768l-1.356,0.687l-2.757,1.425
			c-3.692,1.905-7.462,3.711-11.322,5.319c-3.857,1.611-7.821,3.008-11.894,4.074c-4.077,1.056-8.251,1.778-12.549,1.838
			c-1.076-0.037-2.206,0.012-3.235-0.106l-1.54-0.184l-0.77-0.092l-0.385-0.046l-0.16-0.021l-0.099-0.019l-0.198-0.037
			c-2.108-0.399-4.217-1.018-6.184-2.055c-1.958-1.029-3.763-2.551-4.954-4.508c-1.207-1.947-1.758-4.206-1.866-6.389
			c-0.187-4.406,1.025-8.567,2.508-12.483c1.519-3.924,3.432-7.649,5.505-11.26c4.171-7.214,8.994-13.99,14.047-20.56
			c5.066-6.563,10.399-12.907,15.89-19.104c5.494-6.195,11.149-12.242,16.94-18.155c2.897-2.955,5.828-5.876,8.806-8.75
			c1.49-1.437,2.99-2.862,4.512-4.266c0.761-0.702,1.528-1.398,2.306-2.083l1.183-1.014l0.613-0.492l0.325-0.236l0.184-0.115
			c0.036-0.019,0.073-0.039,0.127-0.059c0.052-0.009,0.038-0.028,0.166-0.02c0.131-0.023,0.319,0.349,0.236,0.239L77.191,74.174z"/>
	</g>
</g>
<g>
	<g>
		<path d="M249.395,45.876c0,0,0.565-0.409,1.623-1.176c1.075-0.746,2.695-1.819,4.801-3.067c1.049-0.634,2.245-1.276,3.532-2.004
			c1.319-0.663,2.717-1.445,4.267-2.163c3.061-1.521,6.618-3.025,10.566-4.507c3.95-1.48,8.354-2.8,13.153-3.711
			c1.192-0.264,2.427-0.415,3.68-0.56c0.627-0.064,1.252-0.175,1.893-0.201c0.642-0.025,1.288-0.049,1.937-0.074
			c2.596-0.121,5.294,0.144,8.012,0.732l0.255,0.048l0.064,0.012c0.006-0.001,0.178,0.053,0.133,0.039l0.117,0.037l0.469,0.147
			l0.941,0.295c0.632,0.206,1.245,0.355,1.931,0.688c0.667,0.297,1.349,0.581,2.008,0.906c0.625,0.383,1.253,0.767,1.882,1.151
			c0.604,0.436,1.17,0.953,1.754,1.437c0.541,0.542,1.037,1.154,1.535,1.754c0.855,1.317,1.619,2.77,1.905,4.348
			c0.219,0.778,0.235,1.568,0.308,2.36c0.017,0.394-0.016,0.783-0.024,1.176c-0.005,0.395-0.035,0.784-0.101,1.165
			c-0.173,1.552-0.609,3.03-1.17,4.458c-0.136,0.359-0.288,0.713-0.461,1.062c-0.158,0.351-0.34,0.701-0.541,1.049l-0.146,0.262
			c0.059-0.083-0.12,0.188-0.116,0.178l-0.039,0.052l-0.078,0.104l-0.311,0.419c-0.187,0.271-0.465,0.58-0.718,0.877l-0.777,0.894
			l-0.728,0.786c-0.484,0.52-0.967,1.047-1.458,1.547c-3.897,4.073-7.902,7.973-11.857,11.818
			c-3.963,3.837-7.924,7.54-11.949,10.981c-1.002,0.857-2.042,1.69-3.065,2.516c-1.079,0.829-2.033,1.604-3.543,2.458
			c-1.143,0.535-2.251,1.076-3.387,1.588c-1.169,0.485-2.324,0.963-3.463,1.435c-4.539,1.867-8.729,3.46-12.692,4.895
			c-3.93,1.463-7.58,2.683-10.804,3.783c-3.242,1.065-6.073,1.968-8.426,2.664c-1.181,0.335-2.235,0.635-3.153,0.896
			c-0.911,0.263-1.698,0.477-2.365,0.603c-1.298,0.277-1.991,0.425-1.991,0.425l-0.095-0.491c0,0,0.638-0.269,1.833-0.773
			c1.178-0.469,2.923-1.352,5.138-2.336c2.213-1.027,4.9-2.273,7.982-3.704c3.084-1.419,6.565-3.02,10.361-4.766
			c3.777-1.731,7.87-3.607,12.198-5.591c1.053-0.495,2.12-0.996,3.201-1.503c1.091-0.528,2.204-1.112,3.324-1.675
			c0.661-0.418,1.708-1.225,2.656-1.969c0.969-0.793,1.95-1.585,2.929-2.432c3.95-3.32,8.021-6.847,12.134-10.445
			c4.107-3.604,8.216-7.36,12.19-11.188c0.501-0.478,0.977-0.964,1.459-1.448l0.718-0.724l0.621-0.659
			c0.208-0.224,0.416-0.415,0.635-0.711l0.325-0.409l0.081-0.103l0.041-0.051c0.033-0.043-0.125,0.189-0.045,0.068l0.113-0.191
			c0.156-0.249,0.305-0.51,0.44-0.79c0.147-0.269,0.279-0.548,0.397-0.836c0.49-1.135,0.889-2.329,1.057-3.523
			c0.066-0.299,0.098-0.597,0.108-0.893c0.014-0.296,0.056-0.596,0.052-0.889c-0.046-0.58-0.02-1.176-0.169-1.729
			c-0.154-1.15-0.681-2.167-1.247-3.154c-0.364-0.446-0.706-0.912-1.099-1.341c-0.452-0.383-0.865-0.803-1.336-1.17l-1.517-1
			c-0.53-0.28-1.074-0.524-1.606-0.793c-0.495-0.286-1.166-0.482-1.779-0.704l-0.931-0.326l-0.464-0.163l-0.116-0.041
			c-0.084-0.026,0.05,0.012,0.015,0.005l-0.056-0.012l-0.225-0.049c-4.749-1.263-9.775-1.004-14.403-0.37
			c-4.651,0.677-9.017,1.778-12.957,3.065c-3.94,1.289-7.518,2.622-10.606,3.995c-1.564,0.644-2.977,1.357-4.313,1.958
			c-1.305,0.659-2.524,1.233-3.592,1.809c-2.153,1.134-3.783,2.1-4.891,2.789c-1.096,0.713-1.68,1.093-1.68,1.093L249.395,45.876z"
			/>
	</g>
</g>
<g>
	<g>
		<path d="M283.742,48.042c0,0-1.674,5.787-4.316,14.423c-0.658,2.16-1.371,4.5-2.125,6.976c-0.774,2.468-1.591,5.072-2.435,7.765
			c-1.715,5.378-3.544,11.115-5.374,16.853c-0.906,2.873-1.813,5.746-2.705,8.574c-0.874,2.836-1.763,5.616-2.716,8.275
			c-0.972,2.652-1.947,5.202-2.984,7.582c-0.508,1.193-1.002,2.354-1.48,3.476c-0.511,1.111-1.005,2.185-1.479,3.215
			c-0.942,2.062-1.88,3.925-2.739,5.568c-0.434,0.817-0.84,1.583-1.215,2.291c-0.409,0.697-0.785,1.338-1.125,1.916
			c-0.336,0.578-0.656,1.083-0.928,1.525c-0.295,0.443-0.575,0.813-0.795,1.104c-0.438,0.576-0.671,0.884-0.671,0.884l-0.415-0.279
			c0,0,0.112-0.36,0.323-1.036c0.104-0.328,0.233-0.733,0.385-1.209c0.133-0.496,0.286-1.065,0.457-1.704
			c0.352-1.268,0.778-2.808,1.268-4.574c0.232-0.89,0.533-1.812,0.812-2.802c0.278-0.992,0.568-2.035,0.905-3.109
			c0.647-2.158,1.365-4.493,2.163-6.949c0.775-2.462,1.666-5.035,2.625-7.683c0.99-2.635,2.068-5.341,3.202-8.077
			c1.138-2.734,2.226-5.538,3.344-8.331c2.181-5.607,4.362-11.214,6.407-16.471c1.02-2.63,2.006-5.172,2.94-7.583
			c0.948-2.407,1.845-4.682,2.672-6.782c3.315-8.401,5.525-14.001,5.525-14.001L283.742,48.042z"/>
	</g>
</g>
<g>
	<g>
		<path d="M279.037,133.632c0,0,0.436-0.546,1.281-1.604c0.404-0.54,0.989-1.161,1.53-1.991c0.556-0.821,1.2-1.771,1.928-2.848
			c2.799-4.403,6.166-11.326,9.443-20.521c0.396-1.135,0.723-2.331,0.965-3.57c0.223-1.229,0.407-2.554,0.283-3.79
			c-0.017-0.145-0.045-0.304-0.082-0.392c-0.008-0.034-0.016-0.041-0.018-0.042c-0.006-0.022-0.007-0.004,0.055,0.048
			c0.009,0.013,0.211,0.098,0.297,0.039c0.045,0.013,0.123-0.083,0.099-0.049c-0.062,0.075-0.202,0.454-0.269,0.744
			c-0.156,0.633-0.256,1.315-0.337,2.003c-0.161,1.381-0.238,2.815-0.25,4.272c-0.016,1.432,0.081,2.926,0.446,4.324
			c0.217,0.677,0.471,1.356,0.902,1.875c0.427,0.516,1,0.861,1.682,1.015c1.382,0.307,2.993-0.004,4.597-0.271
			c1.538-0.325,3.117-0.81,4.628-1.489c6.082-2.717,11.197-8.246,14.346-15.037c0.427-0.835,0.753-1.724,1.127-2.597
			c0.317-0.748,0.412-1.687,0.313-2.479c0.485-1.47-1.461,0.774-2.181,2.353c-0.818,1.655-1.452,3.604-1.979,5.537
			c-0.528,1.951-0.969,3.959-1.35,6.002c-0.188,1.021-0.366,2.051-0.526,3.087l-0.22,1.548c-0.046,0.025,0.044-0.248-0.065-0.375
			c-0.337-0.438-0.349-0.292-0.344-0.33c0,0,0.089,0.018,0.188,0.018c0.193,0.013,0.441,0,0.68-0.015
			c1.99-0.18,4.091-0.7,6.117-1.319c2.034-0.633,4.047-1.419,5.924-2.433c0.936-0.509,1.836-1.077,2.648-1.727
			c0.181-0.161,0.429-0.348,0.557-0.487l0.6-0.592c0.383-0.405,0.657-0.745,0.969-1.17c0.624-0.829,1.082-1.773,1.475-2.763
			c0.398-1.003,0.647-2.043,1.05-3.238c0.122-0.312,0.231-0.621,0.45-0.978c0.075-0.164,0.249-0.361,0.414-0.538
			c0.14-0.184,0.404-0.335,0.655-0.466c0.503-0.237,1.083-0.24,1.464-0.157l0.319,0.056c0.372,0.135,0.217,0.087,0.352,0.14
			c0.14,0.067,0.248,0.098,0.414,0.194c0.373,0.252,0.828,0.599,1,0.868l0.344,0.432l0.264,0.442
			c0.187,0.297,0.319,0.596,0.446,0.895c0.142,0.3,0.243,0.601,0.343,0.901c0.777,2.41,1.041,4.829,1.076,7.303
			c0.006,0.62-0.017,1.246-0.069,1.888c-0.053,0.643-0.196,1.355-0.349,1.928c-0.297,1.185-0.62,2.339-0.948,3.503
			c-1.323,4.641-2.748,9.305-4.271,14.011c-0.766,2.352-1.556,4.712-2.397,7.079c-0.867,2.374-1.679,4.719-2.876,7.141
			c-0.162,0.309-0.324,0.614-0.57,0.968c-0.145,0.186-0.23,0.357-0.624,0.663c-0.042-0.044-0.632,0.761-1.879-0.053
			c-0.71-0.956-0.371-0.883-0.487-1.143c-0.007-0.587,0.064-0.87,0.119-1.236c0.061-0.342,0.128-0.669,0.201-0.992
			c0.29-1.285,0.627-2.522,0.976-3.763c0.701-2.476,1.459-4.934,2.242-7.396c1.569-4.923,3.243-9.857,5.002-14.811
			c1.763-4.952,3.606-9.922,5.604-14.889c1.001-2.482,2.039-4.964,3.17-7.436c0.567-1.235,1.156-2.468,1.807-3.697
			c0.325-0.615,0.667-1.229,1.046-1.844c0.393-0.62,0.771-1.227,1.395-1.894c0.156-0.165,0.346-0.343,0.599-0.527
			c0.26-0.168,0.583-0.422,1.29-0.485c0.206-0.087,1.04,0.184,0.949,0.171l0.233,0.097c0.185,0.083,0.548,0.28,0.744,0.427
			c0.855,0.615,1.403,1.44,1.753,2.199c0.704,1.543,0.912,2.985,1.152,4.342c0.113,0.678,0.216,1.336,0.34,1.949
			c0.122,0.6,0.281,1.188,0.457,1.526c0.083,0.176,0.165,0.247,0.144,0.221c-0.007-0.011-0.04-0.025-0.064-0.035
			c0.01,0.012-0.523-0.082-0.164-0.046c0.057-0.009,0.235,0.011,0.186-0.023c-0.007-0.045-0.036-0.053-0.02-0.049l0.392-0.158
			c0.253-0.088,0.555-0.255,0.831-0.377c2.293-1.15,4.605-2.605,6.859-4.082c2.26-1.487,4.491-3.047,6.694-4.653
			c4.408-3.212,8.699-6.629,12.839-10.222c4.111-3.615,8.109-7.401,11.627-11.534c1.749-2.067,3.382-4.224,4.703-6.485
			c0.301-0.578,0.617-1.127,0.91-1.727l0.896-1.875c0.581-1.23,1.146-2.5,1.697-3.761c2.203-5.062,4.173-10.25,5.967-15.489
			c1.75-5.233,3.43-10.582,4.488-15.841c0.114-0.644,0.231-1.301,0.286-1.891c0.019-0.154,0.032-0.298,0.034-0.425
			c0.006-0.13,0.019-0.28,0.009-0.356l-0.002-0.14c-0.003-0.025-0.008,0.007-0.002,0.007c0-0.053,0.007,0.061,0.106,0.278
			c0.127,0.209,0.382,0.479,0.171,0.246c-0.213-0.222-0.534-0.621-0.604-0.594c-0.058-0.034-0.11-0.074-0.159-0.122l-0.262-0.133
			c-0.35-0.212-0.715-0.244-1.043-0.292c-0.317,0.05-0.615,0.073-0.898,0.273c-0.07,0.049-0.143,0.093-0.219,0.134
			c-0.079,0.046,0.324-0.317,0.069-0.064c-0.022,0.038,0.112-0.086,0.134-0.141c-0.044,0.088-0.211,0.417-0.324,0.688
			c-0.506,1.166-0.984,2.474-1.446,3.754c-3.632,10.398-6.744,21.057-9.611,31.617c-1.418,5.29-2.752,10.577-3.931,15.853
			c-1.153,5.267-2.252,10.562-2.772,15.708c-0.122,1.277-0.2,2.55-0.169,3.722c0.01,0.586,0.064,1.144,0.149,1.576
			c0.039,0.222,0.098,0.391,0.129,0.471c0.012,0.005,0.031,0.089,0,0.006c-0.041-0.053,0.029,0.025-0.118-0.122l0.173,0.181
			l0.695,0.726c0.237,0.251,0.402,0.357,0.602,0.547c0.183,0.177,0.385,0.34,0.606,0.491c0.213,0.151,0.421,0.334,0.636,0.44
			c0.856,0.536,1.665,0.795,2.449,0.798c1.55,0.061,3.509-1.121,5.327-2.716c1.005-0.862,2.009-1.722,3.01-2.581
			c0.99-0.847,1.97-1.686,2.899-2.533c1.86-1.686,3.614-3.435,4.864-5.288c0.641-0.918,1.128-1.863,1.394-2.766
			c0.083-0.227,0.145-0.451,0.167-0.668l0.061-0.329c0.006-0.024,0.031-0.178,0.024-0.095l0.018-0.241
			c0.019-0.308,0.058-0.675,0.06-0.933l0.002-0.741c-0.019-1.053-0.22-2.102-0.504-2.759c-0.068-0.129-0.141-0.269-0.155-0.273
			c-0.023-0.056,0.023,0.043,0.068,0.053c0.01-0.009,0.08,0.062,0.153,0.102c0.08,0.047,0.136,0.053,0.249,0.094
			c0.268,0.105,0.552,0.087,0.856,0.042c0.329-0.114,0.449-0.144,0.606-0.291c0.092-0.067,0.123-0.089,0.148-0.151
			c-0.003,0.028-0.013,0.048-0.034,0.065c0.097-0.227-0.027,0.063-0.029,0.07c-0.043,0.094-0.054,0.133-0.044,0.125
			c0,0.011-0.003,0.021-0.009,0.03l-0.038,0.149c-0.053,0.2-0.101,0.449-0.142,0.704c-0.082,0.514-0.135,1.075-0.17,1.641
			c-0.065,1.137-0.051,2.307,0.033,3.448c0.087,1.139,0.25,2.264,0.513,3.25c0.13,0.487,0.296,0.935,0.459,1.251
			c0.143,0.314,0.363,0.463,0.115,0.286c-0.121-0.046-0.341-0.123-0.473-0.079c-0.025,0-0.04-0.005-0.059,0.001
			c0.139-0.053-0.274,0.105-0.126,0.047l0.436-0.167c0.346-0.117,0.459-0.21,0.623-0.295c0.143-0.063,0.36-0.198,0.58-0.34
			c0.859-0.541,1.729-1.23,2.548-2c3.312-3.072,6.066-6.95,8.178-10.958c0.271-0.501,0.522-1.01,0.757-1.524l0.362-0.767
			l0.323-0.771l0.338-0.818l0.262-0.737c0.19-0.481,0.319-1.002,0.476-1.506c0.257-0.999,0.439-2.011,0.423-2.835
			c0.02-0.424-0.089-0.758-0.111-0.853c-0.001,0.003-0.01-0.051,0.039,0.046c0.024,0.034,0.045,0.047,0.086,0.082
			c0.066,0.08,0.152,0.148,0.246,0.197c0.054,0.016,0.306,0.179,0.493,0.2c0.171,0.024,0.468,0.073,0.751,0.008
			c0.283-0.079,0.495-0.152,0.701-0.304c0.219-0.185,0.299-0.269,0.388-0.387c0.027,0.021,0.237-0.512,0.167-0.323
			c-0.047,0.118-0.001,0.036,0.015-0.021c0.021-0.089,0.014-0.075,0.007-0.015l-0.018,0.121c-0.021,0.197-0.039,0.427-0.043,0.671
			c-0.012,0.486,0,1.003,0.037,1.517c0.075,1.029,0.226,2.061,0.469,3.023c0.235,0.964,0.579,1.864,0.998,2.569
			c0.43,0.706,0.902,1.135,1.348,1.281c0.432,0.18,1.079,0.134,1.852-0.134c0.026-0.006,0.143-0.049,0.095-0.025l0.194-0.081
			l0.388-0.16l0.774-0.32c0.508-0.215,1.046-0.422,1.526-0.643c1.867-0.863,3.732-1.83,5.342-2.978l1.158-0.902
			c0.352-0.333,0.721-0.644,1.063-0.987c0.328-0.365,0.676-0.686,0.99-1.081l0.479-0.574l0.314-0.37
			c0.022-0.028,0.112-0.126,0.237-0.247c0.114-0.106,0.218-0.212,0.35-0.307c0.133-0.096,0.252-0.183,0.406-0.271
			c0.18-0.093,0.348-0.176,0.553-0.244c0.429-0.14,0.971-0.184,1.434-0.077c0.951,0.227,1.381,0.688,1.694,0.984
			c0.599,0.636,0.868,1.106,1.171,1.524c0.283,0.407,0.542,0.758,0.746,0.954c0.216,0.215,0.296,0.217,0.236,0.205
			c-0.022,0.006-0.027,0.003,0.018-0.001c0.014-0.005,0.027-0.009,0.042-0.011c0.033-0.005-0.248,0.103-0.04,0.013l0.352-0.172
			l0.702-0.343c0.25-0.113,0.345-0.238,0.527-0.352c0.61-0.39,1.4-1.049,2.137-1.655c1.469-1.3,2.889-2.697,4.311-4.1
			c0.718-0.709,1.426-1.415,2.187-2.129c0.744-0.687,1.254-1.235,2-2.034c0.36-0.38,0.804-0.814,1.372-1.214
			c0.561-0.414,1.36-0.726,2.098-0.823c1.521-0.174,2.671,0.229,3.668,0.601c0.264,0.091,0.495,0.202,0.735,0.307l0.358,0.159
			c0.011,0.005,0.228,0.1,0.069,0.032l0.166,0.065l0.326,0.126c0.058,0.007,0.113,0.018,0.168,0.032
			c0.08,0.034,0.298,0.055,0.464,0.083c0.724,0.093,1.56,0.054,2.392-0.046c1.678-0.203,3.385-0.67,5.036-1.211
			c3.313-1.1,6.451-2.568,9.412-4.125c5.918-3.152,11.134-6.754,15.727-10.353c4.578-3.6,8.64-7.243,12.481-10.288
			c0.954-0.773,1.881-1.525,2.784-2.256c0.926-0.705,1.825-1.389,2.696-2.052c1.713-1.36,3.444-2.489,5.02-3.574
			c0.773-0.563,1.583-1.016,2.352-1.461c0.768-0.446,1.503-0.874,2.207-1.283c1.464-0.717,2.822-1.316,4.029-1.854
			c1.255-0.423,2.363-0.797,3.319-1.12c0.959-0.307,1.8-0.443,2.459-0.615c1.326-0.309,2.01-0.468,2.01-0.468l0.104,0.489
			c0,0-0.669,0.189-1.965,0.556c-0.642,0.2-1.463,0.372-2.391,0.718c-0.921,0.359-1.989,0.776-3.197,1.247
			c-1.159,0.582-2.449,1.237-3.849,1.987c-0.673,0.426-1.377,0.872-2.112,1.337c-0.735,0.462-1.506,0.932-2.25,1.517
			c-1.512,1.128-3.164,2.292-4.813,3.707c-0.837,0.688-1.7,1.397-2.589,2.127c-0.868,0.759-1.761,1.54-2.678,2.341
			c-3.715,3.169-7.573,6.931-12.14,10.776c-4.585,3.792-9.804,7.612-15.83,11.032c-3.022,1.692-6.232,3.307-9.76,4.586
			c-1.77,0.628-3.606,1.196-5.618,1.5c-1.009,0.145-2.056,0.241-3.21,0.13c-0.299-0.04-0.556-0.051-0.932-0.149l-0.522-0.134
			l-0.341-0.122l-0.167-0.061l-0.259-0.106l-0.298-0.123c-0.198-0.081-0.399-0.172-0.591-0.229
			c-0.776-0.292-1.546-0.429-1.958-0.346c-0.212,0.05-0.352,0.083-0.572,0.257c-0.22,0.169-0.484,0.417-0.786,0.757
			c-0.571,0.651-1.388,1.562-2.088,2.235c-0.668,0.662-1.355,1.381-2.045,2.102c-1.39,1.459-2.842,2.933-4.427,4.375
			c-0.842,0.705-1.604,1.411-2.741,2.147c-0.254,0.164-0.552,0.394-0.776,0.497l-0.696,0.354l-0.349,0.177
			c0.089-0.036-0.302,0.147-0.398,0.17l-0.333,0.102c-0.46,0.118-0.995,0.182-1.537,0.103c-1.111-0.139-1.955-0.757-2.484-1.271
			c-0.556-0.536-0.916-1.049-1.248-1.502c-0.313-0.441-0.621-0.87-0.764-1.001c-0.058-0.078-0.06,0.031,0.364,0.145
			c0.202,0.041,0.471,0.034,0.645-0.035c0.08-0.025,0.131-0.042,0.188-0.08c0.039-0.021,0.054-0.024,0.076-0.045
			c0.019-0.021,0.037-0.022,0.049-0.042c0.025-0.031,0.02-0.036-0.042,0.042l-0.203,0.245l-0.543,0.671
			c-0.351,0.452-0.782,0.879-1.173,1.32c-0.414,0.428-0.864,0.828-1.299,1.243l-1.398,1.126c-1.926,1.415-3.969,2.512-6.119,3.54
			c-0.525,0.249-1.025,0.449-1.541,0.676l-0.769,0.332l-0.385,0.167l-0.193,0.083l-0.303,0.11c-1.31,0.485-3.028,0.807-4.75,0.21
			c-0.833-0.285-1.615-0.748-2.212-1.305c-0.603-0.552-1.094-1.163-1.478-1.783c-0.766-1.244-1.233-2.513-1.568-3.77
			c-0.338-1.261-0.54-2.518-0.653-3.797c-0.056-0.64-0.083-1.285-0.076-1.96c0.002-0.336,0.02-0.688,0.055-1.07l0.039-0.312
			c0.011-0.085,0.027-0.214,0.083-0.445c0.047-0.199,0.119-0.425,0.128-0.442c-0.035,0.044,0.258-0.608,0.372-0.705
			c0.257-0.426,0.962-1.048,1.773-1.179c0.428-0.082,0.872-0.073,1.18,0.021c0.319,0.077,0.733,0.241,0.891,0.369
			c0.209,0.138,0.41,0.296,0.592,0.466c0.137,0.144,0.241,0.279,0.354,0.428c0.248,0.317,0.336,0.544,0.466,0.808
			c0.137,0.275,0.186,0.483,0.258,0.717c0.073,0.234,0.129,0.461,0.154,0.66l0.095,0.626l0.029,0.579
			c0.045,1.531-0.21,2.86-0.516,4.157c-0.18,0.631-0.333,1.265-0.565,1.896l-0.327,0.947l-0.332,0.839l-0.356,0.885l-0.39,0.861
			c-0.254,0.579-0.525,1.148-0.816,1.709c-1.136,2.258-2.449,4.438-3.939,6.527c-1.497,2.083-3.141,4.096-5.112,5.919
			c-0.976,0.919-2.039,1.79-3.273,2.576c-0.301,0.194-0.608,0.392-1.027,0.596c-0.388,0.199-0.818,0.411-1.063,0.491l-0.435,0.168
			c0.007-0.002-0.566,0.177-0.577,0.164c-0.172,0.036-0.338,0.071-0.517,0.092c-0.748,0.066-1.614-0.058-2.284-0.419
			c-0.36-0.165-0.606-0.37-0.892-0.58c-0.216-0.202-0.466-0.43-0.63-0.638c-0.355-0.426-0.615-0.845-0.819-1.239
			c-0.412-0.795-0.662-1.537-0.863-2.258c-0.388-1.438-0.578-2.813-0.692-4.188c-0.106-1.374-0.13-2.737-0.057-4.132
			c0.041-0.7,0.103-1.405,0.216-2.146c0.059-0.373,0.126-0.75,0.232-1.167l0.081-0.313l0.139-0.424
			c0.056-0.161,0.099-0.271,0.123-0.322c0.064-0.138-0.012-0.001,0.167-0.365c0.142-0.257,0.294-0.511,0.454-0.757
			c0.239-0.295,0.472-0.571,0.802-0.846c0.436-0.298,0.797-0.568,1.458-0.701c0.615-0.16,1.215-0.091,1.798,0.066
			c0.266,0.081,0.455,0.186,0.679,0.301c0.214,0.115,0.432,0.25,0.55,0.362c0.274,0.231,0.587,0.517,0.737,0.735
			c0.399,0.487,0.619,0.922,0.839,1.363c0.737,1.698,0.928,3.236,0.989,4.749c0.01,0.39,0,0.794-0.004,1.19
			c-0.009,0.386-0.041,0.661-0.06,0.997l-0.017,0.241c-0.021,0.243-0.034,0.247-0.052,0.382l-0.105,0.625
			c-0.06,0.426-0.164,0.825-0.294,1.21c-0.467,1.579-1.209,2.956-2.042,4.171c-1.661,2.461-3.655,4.412-5.656,6.253
			c-1.005,0.921-2.032,1.777-3.045,2.636c-1.001,0.848-2.005,1.697-3.01,2.548c-1.093,0.924-2.277,1.834-3.705,2.593
			c-1.411,0.751-3.161,1.343-5.045,1.308c-3.882-0.054-6.768-2.647-8.58-4.619l-0.173-0.183c-0.243-0.283-0.271-0.343-0.408-0.532
			c-0.248-0.343-0.331-0.586-0.471-0.879c-0.221-0.54-0.344-1.021-0.425-1.458c-0.167-0.885-0.218-1.672-0.231-2.43
			c-0.028-1.517,0.076-2.936,0.217-4.341c0.604-5.588,1.76-10.935,3-16.303c1.256-5.356,2.662-10.685,4.15-16.01
			c3.014-10.647,6.234-21.269,10.059-31.86c0.498-1.332,0.985-2.639,1.603-4.024c0.167-0.366,0.301-0.667,0.6-1.186
			c0.119-0.199,0.334-0.479,0.422-0.576c-0.147,0.113,0.381-0.369,0.461-0.402l0.667-0.421c0.427-0.302,0.972-0.44,1.481-0.61
			c0.515-0.16,1.068-0.157,1.602-0.204c1.056,0.065,2.09,0.306,2.954,0.799c0.22,0.122,0.435,0.234,0.653,0.372
			c0.225,0.168,0.447,0.344,0.663,0.526c0.515,0.419,0.603,0.601,0.873,0.88c-0.083-0.111,0.275,0.296,0.459,0.675
			c0.184,0.372,0.246,0.65,0.259,0.773c0.031,0.172,0.064,0.376,0.075,0.524l0.011,0.383c0.011,0.273-0.008,0.471-0.021,0.689
			c-0.011,0.222-0.031,0.425-0.056,0.618c-0.085,0.799-0.224,1.517-0.362,2.245c-1.21,5.683-2.964,11.004-4.809,16.35
			c-1.872,5.322-3.918,10.578-6.215,15.739c-0.578,1.292-1.159,2.568-1.78,3.857l-0.924,1.894c-0.324,0.651-0.705,1.312-1.057,1.965
			c-1.516,2.544-3.289,4.828-5.151,6.995c-3.742,4.32-7.875,8.159-12.111,11.823c-4.261,3.635-8.65,7.07-13.164,10.302
			c-2.257,1.616-4.542,3.186-6.871,4.69c-2.342,1.502-4.673,2.957-7.266,4.232c-0.347,0.153-0.645,0.316-1.034,0.458l-0.559,0.216
			c-0.312,0.097-0.67,0.176-1.006,0.22c-0.21,0.031-0.208,0.012-0.32,0.02c0.191,0.03-0.519-0.019-0.666-0.088
			c-0.353-0.101-0.689-0.279-0.971-0.489c-0.57-0.433-0.884-0.941-1.099-1.373c-0.427-0.885-0.575-1.636-0.727-2.362
			c-0.139-0.72-0.239-1.404-0.344-2.065c-0.206-1.308-0.431-2.578-0.858-3.504c-0.208-0.468-0.461-0.785-0.706-0.965
			c-0.078-0.048-0.01-0.02-0.126-0.087l-0.233-0.099c-0.244-0.084,0.422,0.145,0.459,0.07c0.365-0.043,0.38-0.124,0.369-0.099
			c-0.02,0.015-0.083,0.062-0.157,0.142c-0.307,0.313-0.672,0.84-0.998,1.356c-0.331,0.528-0.649,1.087-0.958,1.658
			c-0.617,1.142-1.196,2.328-1.757,3.522c-1.119,2.393-2.164,4.832-3.174,7.277c-2.016,4.894-3.89,9.819-5.684,14.727
			c-1.79,4.909-3.497,9.805-5.095,14.678c-0.797,2.437-1.569,4.869-2.277,7.292c-0.351,1.21-0.692,2.424-0.97,3.61
			c-0.069,0.295-0.132,0.589-0.184,0.869c-0.051,0.257-0.091,0.602-0.087,0.647c-0.1-0.106,0.234,0.14-0.37-0.692
			c-1.12-0.71-1.527-0.02-1.458-0.15c-0.139,0.119-0.034,0.031,0.006-0.038c0.118-0.163,0.261-0.412,0.392-0.661
			c1.061-2.093,1.934-4.488,2.791-6.791c0.85-2.327,1.653-4.663,2.433-6.992c1.557-4.659,3.036-9.292,4.396-13.877
			c0.337-1.145,0.671-2.292,0.966-3.418c0.16-0.58,0.252-1.037,0.309-1.578c0.049-0.542,0.077-1.102,0.078-1.667
			c0-2.252-0.246-4.57-0.886-6.611c-0.081-0.254-0.162-0.508-0.27-0.735c-0.097-0.238-0.197-0.473-0.322-0.669
			c-0.201-0.454-0.58-0.744-0.636-0.874c-0.076-0.057-0.248-0.119-0.367-0.178c0.002-0.005-0.284-0.114-0.045-0.035l-0.109-0.012
			c-0.177-0.043-0.208-0.018-0.222-0.018c0.007-0.048-0.257,0.272-0.418,0.761c-0.345,0.977-0.651,2.164-1.106,3.277
			c-0.456,1.119-1.013,2.23-1.76,3.205c-0.354,0.483-0.811,1.011-1.206,1.414l-0.606,0.585c-0.265,0.263-0.474,0.407-0.714,0.614
			c-0.947,0.741-1.949,1.353-2.97,1.894c-2.045,1.075-4.165,1.871-6.3,2.51c-2.149,0.624-4.271,1.141-6.547,1.324
			c-0.295,0.014-0.582,0.03-0.921,0.006c-0.167-0.011-0.344-0.026-0.601-0.099c-0.121-0.081-0.264,0.029-0.695-0.508
			c-0.219-0.205-0.128-0.644-0.153-0.74l0.246-1.603c0.175-1.055,0.368-2.1,0.571-3.137c0.411-2.075,0.882-4.117,1.449-6.121
			c0.583-2.013,1.208-3.945,2.194-5.878c0.487-0.916,1.043-1.807,1.803-2.613c0.192-0.204,0.408-0.405,0.675-0.596
			c0.266-0.173,0.602-0.412,1.195-0.383c0.289,0.011,0.592,0.163,0.785,0.338c0.198,0.179,0.312,0.368,0.396,0.538
			c0.164,0.346,0.221,0.649,0.263,0.942c0.122,1.146-0.012,2.212-0.438,3.25c-0.396,0.902-0.747,1.817-1.198,2.68
			c-3.344,7.002-8.737,12.735-15.183,15.53c-1.606,0.698-3.251,1.189-4.942,1.523c-1.625,0.238-3.286,0.592-5.044,0.2
			c-0.871-0.198-1.716-0.712-2.273-1.416c-0.566-0.704-0.846-1.509-1.085-2.288c-0.391-1.58-0.463-3.119-0.433-4.629
			c0.029-1.489,0.123-2.942,0.305-4.367c0.094-0.713,0.202-1.417,0.385-2.125c0.121-0.368,0.146-0.68,0.506-1.149
			c0.02-0.044,0.191-0.162,0.302-0.201c0.162-0.061,0.468,0.005,0.531,0.093c0.135,0.102,0.183,0.188,0.211,0.246
			c0.042,0.072,0.073,0.141,0.086,0.19c0.082,0.23,0.102,0.411,0.126,0.601c0.125,1.461-0.094,2.781-0.337,4.075
			c-0.267,1.285-0.617,2.513-1.041,3.683c-3.396,9.201-6.864,16.139-9.74,20.553c-0.753,1.085-1.417,2.043-1.992,2.87
			c-0.562,0.838-1.145,1.442-1.558,1.981c-0.856,1.048-1.299,1.589-1.299,1.589L279.037,133.632z"/>
	</g>
</g>
<g>
	<g>
		<path d="M314.046,71.896c0,0,0.353-0.227,0.969-0.625c0.618-0.391,1.502-0.948,2.562-1.618c1.049-0.664,2.273-1.439,3.585-2.269
			c1.304-0.849,2.725-1.683,4.116-2.572c0.697-0.442,1.383-0.906,2.039-1.394c0.656-0.487,1.309-0.949,1.984-1.311
			c1.356-0.709,2.732-1.137,3.961-1.436c0.599-0.158,1.171-0.271,1.699-0.347c0.538-0.076,0.988-0.133,1.362-0.172
			c0.764-0.081,1.29-0.077,1.29-0.077l0.305,0.396c0,0-0.165,0.459-0.607,1.177c-0.116,0.178-0.243,0.375-0.382,0.589
			c-0.148,0.186-0.308,0.388-0.479,0.603c-0.346,0.426-0.759,0.879-1.235,1.34c-0.473,0.456-1.005,0.897-1.591,1.336
			c-0.581,0.446-1.221,0.875-1.924,1.216c-1.413,0.686-3.091,1.072-4.652,1.667c-1.566,0.59-3.136,1.167-4.635,1.644
			c-1.479,0.51-2.915,0.906-4.114,1.27c-1.209,0.351-2.221,0.595-2.935,0.771c-0.713,0.172-1.121,0.271-1.121,0.271L314.046,71.896z
			"/>
	</g>
</g>
</svg>
