<svg xmlns="http://www.w3.org/2000/svg" viewBox="0 0 153.268 68.368">
  <path fill="#171314" d="M20.117 1.04C13.477-.08 5.91.212 1.637 6.157c-3.055 4.25-1.646 10.894 2.68 13.698 3.944 2.558 10.395 3.015 13.256 6.776 3.728 4.9 2.88 13.39 2.824 19.19-.053 5.35-.61 13.05-4.056 17.41-3.17 4.02-9.82 3.61-14.38 3.62-.64 0-.64 1 0 1 6.63-.01 13.79-.14 16.96-6.93 3.79-8.12 3.13-20.24 1.73-28.73-.4-2.46-1.45-6.05-3.62-7.62-3.98-2.88-9.13-3.13-13.09-6.27C-.12 15.07.45 8.96 3.5 5.4 7.39.858 14.54 1.106 19.85 2c.633.107.903-.856.268-.963z"/>
  <path fill="#171314" d="M17.31 4.846c6.91-1.456 14.884-.344 21.924-.344.645 0 .645-1 0-1-7.152 0-15.167-1.1-22.19.38-.63.133-.362 1.097.267.964z"/>
  <path fill="#171314" d="M27.706 3.95c.077 10.25 1.14 20.43 1.056 30.696-.09 10.9-.363 21.792-.363 32.695 0 .65 1 .65 1 0 0-10.9.22-21.79.36-32.69.13-10.27-.98-20.44-1.06-30.69-.01-.64-1.01-.64-1 0zm14.12-1.478c8.406-.594 16.883-1.08 25.31-1.084.646 0 .646-1 0-1-8.427.005-16.903.49-25.31 1.084-.64.045-.643 1.046 0 1z"/>
  <path fill="#171314" d="M55 1.406c.072 11.235 1.302 22.41 1.768 33.627.45 10.84.09 21.744.763 32.566.04.64 1.04.64 1 0-.67-10.82-.39-21.73-.76-32.57-.39-11.22-1.7-22.39-1.77-33.63 0-.65-1-.65-1 0zm72.474 1.354c8.406-.595 16.883-1.08 25.31-1.086.646 0 .646-1 0-1-8.427.005-16.903.49-25.31 1.085-.64.04-.644 1.04 0 1z"/>
  <path fill="#171314" d="M140.647 1.693c.07 11.235 1.3 22.41 1.767 33.627.45 10.84.098 21.744.763 32.566.04.64 1.04.645 1 0-.665-10.817-.39-21.728-.763-32.566-.387-11.224-1.695-22.388-1.767-33.627-.003-.645-1.003-.645-1 0zM64.557 1.6c.193 11.208.52 22.406 1.19 33.598.33 5.5.607 11 .803 16.507.087 2.458.133 4.916.17 7.374.02 1.43.872 6.81-.21 7.97-.437.47.268 1.18.708.7 1.534-1.65.517-6.74.5-8.68-.05-6.16-.34-12.31-.662-18.46-.684-13.02-1.273-26-1.5-39.03-.01-.65-1.01-.65-1 0z"/>
  <path fill="#171314" d="M65.056 2.1c6.283.57 12.505.027 18.803 0 .64-.004.64-1.004 0-1-6.3.027-12.52.57-18.81 0-.65-.06-.64.94 0 1zm-.362 23.14c5.813-.034 11.61-.438 17.416-.716.642-.03.645-1.03 0-1-5.805.278-11.603.682-17.416.716-.644.004-.645 1.004 0 1zm2.17 42.666c6.266.074 12.528-.708 18.793-.386.645.033.642-.967 0-1-6.265-.322-12.527.46-18.793.386-.645-.008-.644.992 0 1zM99.498 1.4c.195 11.208.522 22.406 1.192 33.598.33 5.5.607 11 .802 16.507.087 2.457.134 4.916.17 7.374.02 1.43.872 6.81-.21 7.97-.437.47.27 1.18.708.7 1.533-1.65.518-6.74.5-8.68-.05-6.16-.338-12.31-.66-18.46-.685-13.02-1.274-26-1.502-39.03-.012-.65-1.012-.65-1 0z"/>
  <path fill="#171314" d="M99.998 1.9c6.283.567 12.505.027 18.803 0 .65-.004.65-1.004 0-1-6.29.027-12.52.567-18.8 0-.64-.06-.63.94 0 1zm-.36 23.14c5.813-.034 11.61-.438 17.416-.717.642-.03.645-1.03 0-1-5.805.28-11.603.683-17.416.717-.645.003-.646 1.003 0 1zm2.17 42.667c6.266.074 12.53-.708 18.793-.386.65.04.65-.96 0-1-6.26-.32-12.52.46-18.79.39-.64-.01-.64.99 0 1zM85.174 1.147c.034 12.048.654 24.076 1.25 36.106.314 6.366.595 12.733.778 19.105.096 3.307-.783 8.09.57 11.21.257.59 1.118.082.864-.504-.566-1.305-.3-3.59-.315-4.932-.03-3.205-.13-6.408-.23-9.61-.18-5.726-.47-11.45-.75-17.17-.57-11.396-1.13-22.792-1.16-34.205 0-.645-1-.645-1 0z"/>
  <path fill="#171314" d="M85.243 1.76c3.94 8.347 4.98 17.568 7.956 26.24.19.556.92.42.98-.133C95.16 18.99 98.07 10.482 99 1.6h-1c.04 11.055.465 22.12.19 33.174-.146 5.895-.025 11.8.108 17.695.097 4.29-.623 9.83.466 13.98.117.44.895.51.965 0 .06-.51.06-.65-.34-.99-.49-.41-1.2.29-.71.7.7.58.78-7.35.77-7.81-.09-2.62-.15-5.25-.21-7.87-.14-5.89-.16-11.77-.02-17.66.26-10.41-.2-20.84-.24-31.25 0-.66-.94-.63-1 0-.48 4.63-1.51 9.13-2.55 13.66-.65 2.825-2.72 8.326-1.84 10.865-2.83-8.245-3.76-16.92-7.51-24.874-.28-.58-1.14-.07-.86.508zm37.165-.59c.005 11.895.095 23.788.188 35.68.047 5.947.092 11.892.127 17.838.02 3.313.032 6.625.043 9.938 0 .38-.335 1.854.22 2.413.453.45 1.16-.25.706-.71-.022-.02-.045-.05-.067-.07-.454-.46-1.16.25-.707.7l.067.06c.454.46 1.16-.25.707-.71-.674-.69.057-6.55.052-7.67-.012-2.65-.028-5.3-.045-7.94l-.12-15.85c-.09-11.24-.17-22.47-.17-33.7-.01-.65-1.01-.65-1.01 0z"/>
  <path fill="#171314" d="M122.408 1.17c.55 9.828 2.548 19.7 3.718 29.475 1.44 12.042 1.374 25.182 4.978 36.828.173.557.94.423.982-.133.823-10.682.062-21.38-.094-32.06-.08-5.598.045-11.206.08-16.805.02-3.104.032-6.208.037-9.312 0-2.054-.91-6.605.09-8.412.31-.56-.56-1.07-.87-.5-1.38 2.51-.23 7.91-.23 10.77-.01 6.24-.07 12.48-.11 18.72-.06 11.6.56 23.14.26 34.75-.45 1.44-.34 1.83.32 1.19-.5-1.59-.69-3.32-.97-4.96-.61-3.66-.99-7.36-1.42-11.05-.73-6.33-1.35-12.67-2.08-19-1.13-9.76-3.17-19.67-3.72-29.47-.037-.64-1.037-.64-1 0zM31.346 67.498c.59-1.77 1.896-3.438 2.7-5.13 1.033-2.18 1.648-4.57 2.336-6.875 1.948-6.53 3.66-13.057 5.078-19.725 2.348-11.04 3.354-22.32 4.653-33.51h-1c.155 10.875.788 21.73.912 32.602.12 10.48-.214 21.894 2.165 32.164.128.553.994.428.982-.133-.107-5.03-.544-10.05-.672-15.08-.11-4.3-.323-8.86-2.166-12.84-1.52-3.28-8.074-10.81-11.444-4.92-2.085 3.65-1.92 9.69 3.308 10.28 7.884.9 11.25-4.32 14.597-10.57.305-.57-.56-1.07-.863-.5-2.402 4.49-4.56 8.71-9.826 9.96-2.767.66-6.233.35-7.385-2.96-.28-1.32-.22-2.63.19-3.92 1.68-6.97 7.74-1.48 9.34.78 3.28 4.62 3.17 11.126 3.3 16.5.06 2.23.22 4.46.35 6.69.12 1.978 1.34 9.01.51 2.138-1.25-10.367-1.19-20.84-1.44-31.26-.22-9.63-.71-19.26-.85-28.9-.01-.66-.92-.623-1 0-1.36 11.726-2.54 23.51-5 35.078-1.28 6.047-2.85 11.99-4.69 17.895-.83 2.67-1.59 5.28-2.79 7.82-.67 1.414-1.74 2.705-2.24 4.19-.2.613.76.873.97.265z"/>
</svg>
