<?xml version="1.0" encoding="utf-8"?>
<!-- Generator: Adobe Illustrator 16.0.0, SVG Export Plug-In . SVG Version: 6.00 Build 0)  -->
<!DOCTYPE svg PUBLIC "-//W3C//DTD SVG 1.1//EN" "http://www.w3.org/Graphics/SVG/1.1/DTD/svg11.dtd">
<svg version="1.1" id="Ebene_1" xmlns="http://www.w3.org/2000/svg" xmlns:xlink="http://www.w3.org/1999/xlink" x="0px" y="0px"
	 width="111.813px" height="113.017px" viewBox="0 0 111.813 113.017" style="enable-background:new 0 0 111.813 113.017;"
	 xml:space="preserve">
<g>
	<path d="M111.813,56.614c0,0-0.064,1.362-0.187,3.917c-0.047,0.637-0.027,1.354-0.14,2.134c-0.116,0.78-0.244,1.63-0.382,2.55
		c-0.155,0.916-0.248,1.916-0.466,2.958c-0.256,1.035-0.527,2.134-0.814,3.296c-1.279,4.587-3.185,10.183-6.855,15.816
		c-3.594,5.632-8.663,11.481-15.521,16.194c-6.845,4.682-15.457,8.108-24.929,9.181c-0.586,0.112-1.185,0.114-1.783,0.146
		c-0.599,0.028-1.199,0.056-1.801,0.084c-0.602,0.027-1.206,0.056-1.812,0.084l-0.91,0.041c-0.386-0.001-0.623-0.028-0.942-0.041
		c-2.404-0.175-4.821-0.189-7.312-0.706c-4.992-0.666-9.836-2.311-14.562-4.376c-1.155-0.575-2.315-1.153-3.479-1.733
		c-1.156-0.593-2.225-1.355-3.346-2.028l-1.666-1.043l-1.576-1.187c-1.038-0.809-2.131-1.557-3.132-2.423
		c-4.045-3.438-7.552-7.533-10.627-11.968c-2.998-4.501-5.298-9.48-6.99-14.681C0.959,67.595,0.186,62.116,0,56.609l0.156-4.116
		c0.046-0.683,0.007-1.359,0.123-2.046l0.287-2.059l0.289-2.06L1,45.298l0.242-1.005l0.981-4.015
		c1.64-5.254,3.899-10.305,6.874-14.888c3.06-4.514,6.644-8.625,10.723-12.104c1.012-0.875,2.117-1.631,3.167-2.447
		c0.533-0.397,1.056-0.808,1.597-1.192l1.692-1.04c1.138-0.67,2.224-1.429,3.396-2.018c1.18-0.575,2.356-1.148,3.526-1.719
		c4.773-2.055,9.711-3.633,14.699-4.226c2.469-0.483,4.959-0.463,7.403-0.61C55.627,0.024,55.859-0.004,56.266,0l0.896,0.047
		c0.597,0.031,1.192,0.062,1.785,0.093c0.593,0.031,1.185,0.062,1.773,0.093c0.59,0.035,1.173,0.039,1.772,0.155
		c1.191,0.183,2.373,0.364,3.546,0.544c0.584,0.102,1.179,0.157,1.747,0.297c0.565,0.146,1.129,0.292,1.69,0.437
		c1.122,0.291,2.235,0.58,3.341,0.866c1.081,0.362,2.132,0.792,3.185,1.18c2.135,0.708,4.069,1.787,6.015,2.729
		c0.99,0.441,1.88,1.044,2.783,1.6c0.899,0.56,1.79,1.115,2.671,1.664c6.863,4.717,11.922,10.583,15.516,16.216
		c3.67,5.637,5.576,11.235,6.852,15.824c0.287,1.162,0.558,2.262,0.813,3.297c0.217,1.042,0.31,2.041,0.464,2.957
		c0.136,0.919,0.263,1.77,0.378,2.548c0.111,0.779,0.091,1.5,0.138,2.138c0.119,2.56,0.183,3.924,0.183,3.924V56.614z
		 M111.614,56.609c0,0-0.074-1.359-0.213-3.908c-0.051-0.635-0.036-1.352-0.152-2.127c-0.122-0.775-0.254-1.621-0.397-2.534
		c-0.155-0.911-0.266-1.902-0.505-2.934c-0.273-1.023-0.565-2.111-0.873-3.261c-1.323-4.547-3.468-9.999-7.243-15.428
		c-3.712-5.44-8.926-10.915-15.686-15.328c-6.747-4.372-15.139-7.564-24.189-8.665c-0.554-0.112-1.151-0.115-1.739-0.147
		c-0.589-0.029-1.18-0.058-1.773-0.086s-1.188-0.058-1.785-0.087L56.161,2.06L55.329,2.1c-2.355,0.155-4.756,0.136-7.131,0.615
		c-4.803,0.584-9.534,2.142-14.16,4.049c-1.133,0.539-2.271,1.081-3.414,1.624c-1.136,0.556-2.187,1.281-3.292,1.916l-1.644,0.986
		c-0.524,0.366-1.032,0.759-1.55,1.138c-1.02,0.78-2.096,1.498-3.082,2.333c-3.977,3.321-7.46,7.279-10.494,11.604
		c-2.953,4.393-5.225,9.259-6.907,14.347l-1.05,3.886l-0.261,0.974l-0.163,0.989l-0.328,1.98l-0.33,1.983
		c-0.132,0.656-0.11,1.354-0.173,2.029l-0.256,4.056c0.07,5.401,0.707,10.808,2.202,16.006c1.63,5.142,3.862,10.079,6.791,14.554
		c0.73,1.116,1.57,2.155,2.361,3.223c0.41,0.523,0.781,1.077,1.221,1.572l1.344,1.463l1.34,1.459l0.668,0.729
		c0.235,0.229,0.487,0.443,0.729,0.665c0.978,0.879,1.953,1.756,2.925,2.63c0.997,0.844,2.084,1.57,3.116,2.357
		c0.524,0.383,1.037,0.78,1.571,1.144l1.669,0.983c1.122,0.633,2.189,1.354,3.341,1.906c1.158,0.538,2.312,1.075,3.46,1.609
		c4.672,1.896,9.498,3.389,14.296,3.899c2.354,0.444,4.829,0.391,7.224,0.519c0.281,0.01,0.644,0.037,0.857,0.032l0.883-0.049
		c0.588-0.032,1.174-0.064,1.758-0.097c0.584-0.031,1.166-0.063,1.746-0.095c0.58-0.035,1.161-0.04,1.729-0.156
		c9.172-1.153,17.461-4.441,24.238-8.802c6.766-4.417,11.969-9.908,15.68-15.35c3.775-5.433,5.92-10.886,7.24-15.436
		c0.308-1.149,0.599-2.238,0.872-3.262c0.238-1.032,0.348-2.021,0.502-2.932c0.143-0.913,0.274-1.758,0.395-2.532
		c0.116-0.775,0.101-1.495,0.15-2.131c0.136-2.554,0.209-3.916,0.209-3.916V56.609z"/>
</g>
<g>
	<path d="M27.102,52.216c-0.672-0.364-1.316-0.771-1.946-1.198c-0.629-0.429-1.263-0.856-1.869-1.318
		c-1.217-0.92-2.384-1.909-3.501-2.956c-2.216-2.108-4.267-4.434-5.913-7.061c-0.428-0.645-0.783-1.338-1.146-2.021
		c-0.348-0.695-0.658-1.407-0.93-2.136c-0.287-0.72-0.52-1.465-0.733-2.209l-0.289-1.126l-0.218-1.142
		c-0.112-0.766-0.222-1.531-0.257-2.301c-0.074-0.768-0.036-1.539-0.046-2.306c0.062-0.767,0.102-1.534,0.237-2.291
		c0.081-0.767,0.313-1.502,0.467-2.257l0.098-0.479l0.422,0.302c1.587,1.138,3.252,2.172,4.854,3.296
		c1.62,1.101,3.235,2.21,4.801,3.383c1.573,1.162,3.108,2.378,4.65,3.563l2.314,1.766c0.772,0.59,1.553,1.137,2.321,1.71
		c0.776,0.556,1.573,1.065,2.364,1.573c0.804,0.48,1.607,0.966,2.46,1.338c0.826,0.436,1.72,0.715,2.588,1.069
		c0.907,0.25,1.796,0.563,2.73,0.758c0.931,0.203,1.86,0.419,2.815,0.563c0.949,0.163,1.9,0.339,2.866,0.441
		c0.964,0.106,1.925,0.261,2.895,0.363c0.969,0.109,1.939,0.213,2.911,0.348l-0.004,0.2c-0.978,0.068-1.957,0.105-2.937,0.148
		c-0.98,0.066-1.962,0.03-2.946,0.025c-0.983,0.009-1.969-0.058-2.958-0.114c-0.991-0.023-1.975-0.199-2.966-0.322
		c-0.993-0.115-1.97-0.396-2.956-0.609c-0.959-0.326-1.958-0.564-2.873-1.019c-0.95-0.382-1.835-0.875-2.722-1.369
		c-0.87-0.509-1.699-1.084-2.51-1.659c-0.798-0.589-1.604-1.177-2.351-1.812l-2.268-1.874l-4.478-3.76l-4.445-3.791
		c-0.737-0.638-1.502-1.241-2.259-1.854c-0.754-0.617-1.518-1.222-2.292-1.814l0.52-0.177c-0.194,0.713-0.413,1.425-0.507,2.161
		c-0.157,0.727-0.16,1.473-0.207,2.21c0.014,0.741,0.038,1.482,0.159,2.213c0.068,0.736,0.282,1.453,0.462,2.165l0.327,1.056
		l0.393,1.032c0.278,0.68,0.571,1.355,0.916,2.004c0.323,0.66,0.712,1.285,1.063,1.928c0.384,0.627,0.764,1.253,1.167,1.869
		c0.388,0.624,0.83,1.215,1.242,1.826c0.427,0.602,0.869,1.194,1.329,1.773c0.919,1.16,1.874,2.299,2.879,3.397
		c0.998,1.106,2.038,2.18,3.105,3.233c1.052,1.07,2.162,2.086,3.286,3.097L27.102,52.216z"/>
</g>
<g>
	<path d="M26.442,67.098c0.074,0.189-0.124,0.046-0.271,0.064l-0.467-0.05c-0.314-0.034-0.629-0.076-0.942-0.133
		c-0.63-0.102-1.251-0.259-1.869-0.438c-1.231-0.372-2.421-0.897-3.542-1.55c-1.109-0.667-2.17-1.434-3.098-2.342
		c-0.922-0.914-1.707-1.954-2.375-3.049c-0.679-1.088-1.246-2.227-1.82-3.346c-0.57-1.123-1.114-2.254-1.628-3.404
		c-0.542-1.14-1.019-2.314-1.457-3.506c-0.445-1.191-0.779-2.42-1.048-3.661l-0.354-1.631l1.62,0.648l4.522,1.81
		c0.74,0.336,1.5,0.614,2.243,0.935l2.224,0.977c0.733,0.348,1.484,0.636,2.223,0.97c0.737,0.338,1.479,0.66,2.223,0.968
		l1.117,0.477c0.371,0.169,0.748,0.292,1.124,0.446c0.375,0.157,0.75,0.313,1.132,0.429c0.38,0.13,0.774,0.255,1.146,0.323
		l0.028,0.198c-0.444,0.076-0.858,0.065-1.276,0.03c-0.423-0.015-0.836-0.069-1.248-0.125c-0.831-0.106-1.64-0.282-2.444-0.474
		c-0.816-0.166-1.603-0.408-2.393-0.64c-0.786-0.242-1.581-0.477-2.355-0.747c-1.536-0.573-3.086-1.129-4.577-1.81l-4.435-2.114
		l1.266-0.982c0.163,1.209,0.357,2.414,0.558,3.625c0.206,1.21,0.496,2.406,0.855,3.585c0.391,1.166,0.872,2.308,1.498,3.366
		c0.616,1.065,1.393,2.029,2.219,2.921c0.838,0.885,1.72,1.703,2.619,2.484c0.889,0.792,1.805,1.552,2.792,2.224
		c0.976,0.687,2.01,1.298,3.086,1.857c0.537,0.285,1.09,0.54,1.65,0.799l0.852,0.379l0.433,0.198l0.223,0.117
		c0.042,0.03,0.07,0.031,0.144,0.112c0.012,0.011,0.041,0.055,0.028,0.126c-0.015,0.058-0.039,0.061-0.066,0.086
		c-0.046,0.027-0.045,0.017-0.071,0.026L26.442,67.098z"/>
</g>
<g>
	<path d="M91.776,30.388l-0.157,0.088c-0.02,0.014-0.052,0.033-0.057,0.041c-0.019,0.002,0.026,0.016,0.01-0.088
		c-0.047-0.07-0.045-0.045-0.05-0.055c-0.008-0.003-0.012-0.002-0.003-0.003c0.084-0.002,0.222-0.032,0.335-0.057l0.718-0.185
		l1.433-0.417l2.858-0.865l5.701-1.795l1.6-0.504l-1.084,1.306c-1.671,2.011-3.357,4.004-5.077,5.977
		c-0.862,0.985-1.73,1.964-2.63,2.93c-0.449,0.484-0.911,0.954-1.409,1.422c-0.27,0.238-0.476,0.454-0.904,0.721
		c-0.078,0.038-0.068,0.057-0.261,0.118c-0.076,0.023-0.156,0.039-0.234,0.048l-0.059,0.006c0.517-0.091,0.135-0.022,0.247-0.041
		c-0.007,0.003-0.025,0.009-0.022,0.009c0.154-0.034,0.331-0.198,0.38-0.314c0.009-0.011,0.016-0.023,0.02-0.036
		c0.009-0.029-0.001,0.015-0.002,0.019c-0.019,0.092-0.037,0.244-0.05,0.391l-0.255,3.895c-0.102,1.315-0.255,2.628-0.444,3.936
		c-0.383,2.615-0.916,5.212-1.63,7.76c-0.727,2.543-1.594,5.05-2.66,7.47c-1.047,2.429-2.285,4.77-3.647,7.028
		c-2.725,4.521-6.004,8.675-9.654,12.439l-0.021,0.021l-0.007,0.005l-3.687,2.867c-1.182,1.02-2.542,1.79-3.835,2.653l-1.952,1.278
		c-0.65,0.428-1.361,0.751-2.04,1.132l-2.059,1.102c-0.683,0.376-1.37,0.742-2.099,1.019l-4.31,1.807l-4.443,1.468
		c-1.502,0.418-3.033,0.731-4.551,1.106c-0.756,0.21-1.534,0.29-2.306,0.415l-2.321,0.352c-0.387,0.054-0.773,0.126-1.163,0.165
		l-1.171,0.083l-2.344,0.163l-1.174,0.074l-1.175-0.016l-2.352-0.032l-1.177-0.019l-1.172-0.104l-2.346-0.206
		c-1.568-0.11-3.105-0.465-4.66-0.695c-1.545-0.286-3.063-0.713-4.597-1.063c-1.495-0.495-3.021-0.899-4.49-1.481
		c-1.468-0.584-2.946-1.144-4.351-1.893c-1.448-0.649-2.785-1.539-4.155-2.36L2.34,87.979l2.964-0.436l3.643-0.535
		c1.219-0.157,2.406-0.455,3.61-0.675c0.6-0.12,1.204-0.226,1.792-0.392l1.776-0.445c0.592-0.15,1.189-0.281,1.769-0.476l1.75-0.54
		c1.176-0.33,2.307-0.808,3.461-1.212c1.152-0.412,2.27-0.931,3.414-1.375c2.265-0.962,4.52-1.983,6.775-3.019l0.05,1.621
		c-0.884-0.382-1.77-0.747-2.651-1.143c-0.873-0.434-1.771-0.788-2.619-1.287l-1.285-0.71c-0.423-0.246-0.822-0.534-1.233-0.8
		c-0.401-0.28-0.834-0.519-1.207-0.835l-1.142-0.916c-0.384-0.301-0.761-0.608-1.107-0.946l-1.065-0.985
		c-0.727-0.643-1.371-1.355-2.047-2.039c-0.676-0.685-1.338-1.38-1.97-2.099l-1.925-2.132l0.051,0.048
		c-0.049-0.047-0.064-0.049-0.13-0.145c-0.038-0.065-0.063-0.122-0.076-0.208c-0.023-0.118,0.043-0.301,0.093-0.352
		c0.044-0.057,0.104-0.108,0.165-0.143l0.08-0.034c0.065-0.024,0.082-0.023,0.115-0.031c0.116-0.019,0.182-0.018,0.255-0.019
		c0.139,0.001,0.263,0.01,0.386,0.021l0.718,0.082l1.402,0.208l2.779,0.451c0.925,0.149,1.85,0.296,2.776,0.423
		c0.463,0.065,0.926,0.128,1.389,0.174c0.231,0.022,0.463,0.042,0.693,0.051c0.226,0.007,0.469,0.014,0.662-0.038l0.07,0.188
		c-0.257,0.089-0.492,0.089-0.732,0.104c-0.238,0.008-0.475,0.006-0.711,0c-0.473-0.011-0.944-0.038-1.414-0.07
		c-0.939-0.07-1.875-0.161-2.809-0.254l-2.798-0.281l-1.393-0.12l-0.684-0.037c-0.11-0.003-0.222-0.004-0.316,0.001
		c-0.044,0.001-0.096,0.008-0.096,0.01l0.03-0.009l0.038-0.019c0.05-0.025,0.099-0.067,0.131-0.114
		c0.04-0.041,0.108-0.206,0.081-0.311c-0.009-0.072-0.026-0.117-0.059-0.168c-0.05-0.071-0.041-0.056-0.07-0.082l0.051,0.048
		l2.004,2.031c0.66,0.686,1.344,1.343,2.039,1.986c0.694,0.643,1.362,1.319,2.095,1.908l1.077,0.912
		c0.352,0.314,0.727,0.593,1.107,0.863l1.129,0.827c0.366,0.291,0.781,0.504,1.168,0.759c0.397,0.241,0.779,0.504,1.187,0.726
		l1.239,0.641c0.81,0.45,1.704,0.774,2.55,1.168c0.87,0.361,1.758,0.7,2.635,1.052l1.843,0.737l-1.793,0.884
		c-2.228,1.097-4.467,2.186-6.743,3.228c-1.152,0.495-2.291,1.019-3.468,1.463c-1.182,0.432-2.338,0.935-3.549,1.293l-1.8,0.58
		c-0.597,0.208-1.211,0.352-1.82,0.514l-1.831,0.475c-0.608,0.17-1.228,0.276-1.845,0.4c-1.237,0.224-2.464,0.526-3.708,0.686
		L5.563,89.65l0.472-1.929c1.276,0.784,2.507,1.641,3.882,2.279c1.32,0.734,2.732,1.29,4.132,1.874
		c1.4,0.581,2.871,0.992,4.305,1.494c1.479,0.359,2.94,0.797,4.434,1.097l2.25,0.41c0.749,0.144,1.498,0.292,2.259,0.356
		l2.274,0.261l1.138,0.132l1.144,0.048l2.29,0.093l1.146,0.047l1.146-0.043l2.293-0.067l1.148-0.034
		c0.382-0.022,0.761-0.078,1.142-0.116l2.284-0.251c0.761-0.092,1.53-0.139,2.277-0.315c1.5-0.309,3.017-0.567,4.509-0.926
		l4.426-1.29c1.447-0.516,2.856-1.139,4.288-1.703c0.725-0.265,1.408-0.617,2.087-0.98l2.05-1.063
		c0.675-0.368,1.385-0.679,2.033-1.094l1.934-1.265c1.272-0.866,2.612-1.64,3.772-2.66l3.57-2.929l-0.027,0.026
		c3.47-3.859,6.491-8.105,8.975-12.628c2.463-4.534,4.433-9.316,5.824-14.267c0.7-2.474,1.26-4.988,1.655-7.53
		c0.201-1.271,0.354-2.549,0.491-3.832l0.347-3.907c0.021-0.177,0.042-0.349,0.093-0.577c0.021-0.074,0.024-0.111,0.064-0.215
		l0.065-0.149c0.072-0.149,0.274-0.346,0.454-0.413l0.034-0.013c0.121-0.022-0.251,0.042,0.274-0.051l-0.028-0.003
		c-0.039-0.001-0.08,0.004-0.117,0.016c-0.109,0.047-0.036,0.012-0.041,0.012c0.128-0.072,0.406-0.3,0.624-0.494
		c0.465-0.412,0.921-0.869,1.382-1.318c0.917-0.907,1.818-1.844,2.714-2.787c1.788-1.888,3.552-3.809,5.295-5.741l0.516,0.802
		c-1.93,0.515-3.87,0.981-5.81,1.455l-2.916,0.683l-1.47,0.302l-0.745,0.126c-0.131,0.015-0.24,0.039-0.405,0.029
		c-0.007,0-0.025-0.003-0.049-0.011c-0.02-0.015-0.035,0.009-0.087-0.079c-0.027-0.131,0.051-0.147,0.053-0.161
		c0.041-0.034,0.066-0.042,0.1-0.063l0.176-0.08L91.776,30.388z"/>
</g>
<g>
	<path d="M51.945,41.977c-0.006-1.556,0.055-3.099,0.171-4.657c0.049-0.778,0.147-1.553,0.248-2.328
		c0.087-0.776,0.224-1.55,0.375-2.322c0.13-0.775,0.34-1.539,0.541-2.306c0.173-0.773,0.488-1.515,0.753-2.27
		c0.248-0.76,0.659-1.472,1.008-2.197c0.406-0.7,0.859-1.387,1.353-2.031c0.568-0.591,1.045-1.267,1.723-1.738l0.956-0.758
		c0.314-0.255,0.689-0.426,1.029-0.641c0.351-0.198,0.689-0.417,1.047-0.593l1.106-0.46c0.722-0.34,1.493-0.524,2.243-0.759
		c0.745-0.255,1.517-0.39,2.278-0.56l1.146-0.243l1.156-0.168c0.771-0.1,1.538-0.263,2.315-0.305
		c0.774-0.065,1.549-0.164,2.327-0.243l0.018-0.002l0.046,0.004c0.854,0.082,1.714,0.136,2.572,0.29
		c0.432,0.054,0.859,0.145,1.287,0.251c0.432,0.087,0.855,0.212,1.279,0.357c0.849,0.271,1.673,0.668,2.443,1.136
		c0.773,0.471,1.463,1.032,2.107,1.514c0.647,0.485,1.265,0.854,1.94,1.076l0.516,0.147l0.544,0.087
		c0.176,0.039,0.369,0.041,0.559,0.05l0.284,0.015l0.142,0.008l0.071,0.004l0.035,0.002l0.018,0.001c0.019,0-0.131,0.001-0.063,0
		l0.01-0.001l1.263-0.083c0.417-0.032,0.863-0.036,1.211-0.13c0.738-0.141,1.478-0.253,2.235-0.531
		c0.762-0.204,1.488-0.531,2.228-0.826c0.715-0.354,1.425-0.72,2.11-1.144c0.35-0.203,0.682-0.433,1.028-0.655l0.594-0.401
		l0.091-0.048c0.066-0.032,0.139-0.059,0.211-0.077c0.068-0.015,0.129-0.036,0.307-0.027c0.303,0.02,0.576,0.174,0.756,0.454
		c0.049,0.078,0.067,0.125,0.074,0.145l0.032,0.096c0.02,0.065,0.032,0.132,0.039,0.198c0.013,0.276-0.027,0.362-0.045,0.454
		c-0.045,0.172-0.091,0.291-0.137,0.407c-0.366,0.882-0.797,1.594-1.229,2.347c-0.86,1.486-1.841,2.887-2.856,4.263
		c-0.508,0.688-1.053,1.351-1.642,1.98c-0.596,0.613-1.187,1.276-2.025,1.633l-0.084-0.182c0.65-0.465,1.122-1.184,1.589-1.862
		c0.455-0.697,0.873-1.421,1.296-2.141c0.836-1.445,1.57-2.956,2.298-4.447c0.351-0.74,0.703-1.528,0.946-2.22
		c0.028-0.082,0.049-0.163,0.054-0.196c0.008-0.01-0.014-0.029-0.005,0.141c0.004,0.053,0.014,0.107,0.03,0.16l0.027,0.077
		c0.007,0.012,0.022,0.054,0.065,0.127c0.165,0.257,0.418,0.396,0.691,0.417c0.164,0.004,0.212-0.012,0.269-0.023
		c0.06-0.014,0.119-0.037,0.173-0.065c0.08-0.044,0.035-0.02,0.039-0.021l-0.017,0.011l-0.017,0.011
		c0.131-0.085,0.031-0.02,0.059-0.038l-0.008,0.006l-0.03,0.024l-0.063,0.048l-0.124,0.097l-0.248,0.193
		c-0.348,0.256-0.694,0.529-1.061,0.774c-0.725,0.506-1.505,0.931-2.288,1.354c-0.818,0.354-1.612,0.775-2.488,0.999
		c-0.835,0.299-1.764,0.456-2.688,0.608c-0.478,0.107-0.88,0.086-1.306,0.101l-1.265,0.031l-0.093,0l-0.021-0.002l-0.044-0.004
		l-0.087-0.008l-0.174-0.016l-0.347-0.033c-0.231-0.022-0.461-0.037-0.696-0.094l-0.7-0.146l-0.692-0.229
		c-0.919-0.341-1.737-0.898-2.414-1.455c-0.688-0.552-1.271-1.107-1.919-1.55c-0.641-0.454-1.312-0.86-2.046-1.176
		c-0.36-0.17-0.73-0.327-1.117-0.45c-0.38-0.142-0.767-0.27-1.166-0.366c-0.785-0.24-1.606-0.363-2.422-0.524l0.063,0.002
		c-0.763,0.013-1.529,0.008-2.296,0.037c-0.769,0-1.525,0.106-2.284,0.203l-1.139,0.144c-0.377,0.063-0.743,0.172-1.115,0.256
		c-0.741,0.177-1.49,0.333-2.187,0.646c-0.71,0.266-1.421,0.531-2.058,0.938l-0.978,0.55c-0.312,0.203-0.598,0.445-0.896,0.663
		c-0.287,0.233-0.608,0.42-0.864,0.687l-0.775,0.779l-0.384,0.388l-0.328,0.439l-0.678,0.852c-0.389,0.615-0.797,1.219-1.154,1.856
		c-0.293,0.677-0.709,1.286-0.954,1.994c-0.271,0.692-0.57,1.372-0.779,2.097c-0.235,0.713-0.482,1.425-0.655,2.166
		c-0.19,0.734-0.415,1.461-0.567,2.212c-0.16,0.747-0.368,1.486-0.512,2.24c-0.145,0.754-0.349,1.497-0.5,2.258
		c-0.154,0.759-0.313,1.518-0.5,2.272L51.945,41.977z"/>
</g>
</svg>
